{
.appVersion = "3208";
.formatVersion = 3;
DisplayStrings = (
"
Letter Groups
EFHIJLTU
EFHIJLTU

AVWXZ
AVWXZ

KMNY
KMNY

COQS
COQS

BPRDG
BPRDG

fijltr
fijltr

kvwxyz
kvwxyz

hmnu
hmnu

ceogs
ceogs

abdpq
abdpq

Spacing
HHOHHOOHOO HIHOIO
HHOHHOOHOO HIHOIO

uuonouonoo ninoioolonlniuo
uuonouonoo ninoioolonlniuo

010 080 030 020 050 060 070
010 080 030 020 050 060 070

Kerning
HHAVAHH WAFAPATAUAYALYTJLVÆ HH
HHAVAHH WAFAPATAUAYALYTJLVÆ HH

TiTíTîTïTìTTīTĩT Vă Tä Tü Tõ Tŭ Tř"
);
customParameters = (
{
disabled = 1;
name = glyphOrder;
value = (
space,
exclam,
quotesingle,
quotedbl,
numbersign,
dollar,
percent,
ampersand,
parenleft,
parenright,
asterisk,
plus,
comma,
hyphen,
period,
slash,
zero,
one,
two,
three,
four,
five,
six,
seven,
eight,
nine,
colon,
semicolon,
less,
equal,
greater,
question,
at,
A,
B,
C,
D,
E,
F,
G,
H,
I,
J,
K,
L,
M,
N,
O,
P,
Q,
R,
S,
T,
U,
V,
W,
X,
Y,
Z,
bracketleft,
backslash,
bracketright,
asciicircum,
underscore,
grave,
a,
b,
c,
d,
e,
f,
g,
h,
i,
j,
k,
l,
m,
n,
o,
p,
q,
r,
s,
t,
u,
v,
w,
x,
y,
z,
braceleft,
bar,
braceright,
asciitilde,
exclamdown,
cent,
sterling,
currency,
yen,
brokenbar,
section,
dieresis,
copyright,
ordfeminine,
guillemetleft,
logicalnot,
registered,
macron,
degree,
plusminus,
twosuperior,
threesuperior,
acute,
mu,
paragraph,
periodcentered,
cedilla,
onesuperior,
ordmasculine,
guillemetright,
onequarter,
onehalf,
threequarters,
questiondown,
Agrave,
Aacute,
Acircumflex,
Atilde,
Adieresis,
Aring,
AE,
Ccedilla,
Egrave,
Eacute,
Ecircumflex,
Edieresis,
Igrave,
Iacute,
Icircumflex,
Idieresis,
Eth,
Ntilde,
Ograve,
Oacute,
Ocircumflex,
Otilde,
Odieresis,
multiply,
Oslash,
Ugrave,
Uacute,
Ucircumflex,
Udieresis,
Yacute,
Thorn,
germandbls,
agrave,
aacute,
acircumflex,
atilde,
adieresis,
aring,
ae,
ccedilla,
egrave,
eacute,
ecircumflex,
edieresis,
igrave,
iacute,
icircumflex,
idieresis,
eth,
ntilde,
ograve,
oacute,
ocircumflex,
otilde,
odieresis,
divide,
oslash,
ugrave,
uacute,
ucircumflex,
udieresis,
yacute,
thorn,
ydieresis,

glyphs = (
{
glyphname = A;
kernLeft = A;
kernRight = A;
lastChange = "2023-08-03 09:41:05 +0000";
layers = (
{
anchors = (
{
name = bottom;
pos = (268,0);
},
{
name = ogonek;
pos = (514,0);
},
{
name = top;
pos = (368,712);
}
);
layerId = master01;
shapes = (
{
closed = 1;
nodes = (
(560,0,l),
(409,700,l),
(325,700,l),
(476,0,l)
);
},
{
closed = 1;
nodes = (
(61,0,l),
(408,700,l),
(324,700,l),
(-23,0,l)
);
},
{
closed = 1;
nodes = (
(447,195,l),
(459,275,l),
(138,275,l),
(126,195,l)
);
}
);
width = 607;
}
);
unicode = 65;
},
{
glyphname = AE;
kernLeft = A;
kernRight = E;
lastChange = "2023-08-03 09:41:05 +0000";
layers = (
{
layerId = master01;
shapes = (
{
closed = 1;
nodes = (
(63,0,l),
(476,700,l),
(388,700,l),
(-25,0,l)
);
},
{
closed = 1;
nodes = (
(393,195,l),
(405,275,l),
(159,275,l),
(147,195,l)
);
},
{
closed = 1;
nodes = (
(739,0,l),
(750,80,l),
(450,80,l),
(484,320,l),
(723,320,l),
(734,400,l),
(495,400,l),
(526,620,l),
(826,620,l),
(837,700,l),
(449,700,l),
(351,0,l)
);
}
);
width = 832;
}
);
unicode = 198;
},
{
glyphname = B;
kernLeft = B;
kernRight = B;
lastChange = "2023-08-03 09:41:05 +0000";
layers = (
{
hints = (
{
horizontal = 1;
origin = (0,14);
target = (1,10);
type = Stem;
},
{
horizontal = 1;
origin = (1,0);
target = (2,10);
type = Stem;
},
{
horizontal = 1;
origin = (2,0);
target = (0,13);
type = Stem;
},
{
origin = (0,14);
target = (1,10);
type = Stem;
},
{
origin = (1,6);
target = (0,3);
type = Stem;
},
{
origin = (2,6);
target = (0,9);
type = Stem;
}
);
layerId = master01;
shapes = (
{
closed = 1;
nodes = (
(319,0,ls),
(479,0,o),
(574,79,o),
(592,206,cs),
(606,309,o),
(565,360,o),
(475,382,c),
(536,400,o),
(586,444,o),
(598,525,cs),
(614,641,o),
(546,701,o),
(409,701,cs),
(160,701,l),
(62,0,l)
);
},
{
closed = 1;
nodes = (
(197,335,l),
(197,335,o),
(376,335,o),
(376,335,c),
(468,335,o),
(511,289,o),
(500,206,cs),
(489,126,o),
(422,80,o),
(330,80,cs),
(161,80,l)
);
},
{
closed = 1;
nodes = (
(237,621,l),
(237,621,o),
(393,621,o),
(393,621,cs),
(466,621,o),
(516,591,o),
(507,524,cs),
(497,455,o),
(438,415,o),
(365,415,cs),
(208,415,l)
);
}
);
width = 652;
},
{
associatedMasterId = master01;
layerId = "B2778AA9-272F-47DA-B672-36E0A49462E6";
name = foreground;
shapes = (
{
closed = 1;
nodes = (
(201,608,o),
(362,608,o),
(362,608,c),
(428,608,o),
(473,575,o),
(473,515,cs),
(473,461,o),
(427,419,o),
(362,419,cs),
(201,419,l),
(201,608,l)
);
},
{
closed = 1;
nodes = (
(95,0,l),
(394,0,ls),
(546,0,o),
(621,101,o),
(621,194,cs),
(621,315,o),
(554,363,o),
(486,382,c),
(529,387,o),
(582,456,o),
(582,536,cs),
(582,620,o),
(516,701,o),
(379,701,cs),
(95,701,l)
);
},
{
closed = 1;
nodes = (
(201,326,o),
(374,326,o),
(374,326,c),
(461,326,o),
(506,283,o),
(506,209,cs),
(506,146,o),
(459,93,o),
(374,93,cs),
(201,93,l),
(201,326,l)
);
}
);
width = 671;
}
);
unicode = 66;
},
{
glyphname = C;
kernLeft = C;
kernRight = C;
lastChange = "2023-08-03 09:41:05 +0000";
layers = (
{
anchors = (
{
name = bottom;
pos = (331,0);
},
{
name = top;
pos = (429,713);
}
);
layerId = master01;
shapes = (
{
closed = 1;
nodes = (
(486,-13,o),
(600,75,o),
(646,198,c),
(559,216,l),
(524,130,o),
(443,67,o),
(338,67,cs),
(194,67,o),
(137,194,o),
(160,357,cs),
(182,512,o),
(274,633,o),
(418,633,c),
(523,633,o),
(586,570,o),
(597,484,c),
(688,502,l),
(678,625,o),
(588,713,o),
(429,713,c),
(210,713,o),
(97,548,o),
(70,355,cs),
(44,171,o),
(107,-13,o),
(327,-13,cs)
);
}
);
width = 697;
},
{
associatedMasterId = master01;
layerId = "B03B6E58-C7A4-4549-B5DA-7F61DFFF8AA1";
name = foreground;
shapes = (
{
closed = 1;
nodes = (
(50,540,o),
(156,713,o),
(386,713,c),
(551,713,o),
(653,623,o),
(683,503,c),
(574,481,l),
(548,565,o),
(477,616,o),
(386,616,c),
(252,616,o),
(164,504,o),
(164,349,c),
(164,194,o),
(252,86,o),
(386,86,c),
(477,86,o),
(549,147,o),
(576,223,c),
(683,198,l),
(648,82,o),
(551,-12,o),
(386,-12,c),
(156,-12,o),
(50,158,o),
(50,347,c)
);
}
);
width = 718;
}
);
unicode = 67;
},
{
glyphname = D;
kernLeft = D;
kernRight = D;
lastChange = "2023-08-03 09:41:05 +0000";
layers = (
{
anchors = (
{
name = top;
pos = (388,712);
}
);
layerId = master01;
shapes = (
{
closed = 1;
nodes = (
(254,0,ls),
(484,0,o),
(611,141,o),
(640,349,cs),
(670,560,o),
(582,700,o),
(352,700,cs),
(160,700,l),
(62,0,l)
);
},
{
closed = 1;
nodes = (
(235,620,l),
(344,620,ls),
(505,620,o),
(570,507,o),
(548,350,cs),
(526,192,o),
(429,80,o),
(268,80,cs),
(159,80,l)
);
}
);
width = 676;
},
{
associatedMasterId = master01;
layerId = "06695B29-B584-4CFA-B58E-873EFBF25244";
name = foreground;
shapes = (
{
closed = 1;
nodes = (
(535,700,o),
(646,542,o),
(646,356,cs),
(646,178,o),
(539,0,o),
(308,0,cs),
(95,0,l),
(95,700,l),
(305,700,ls)
);
},
{
closed = 1;
nodes = (
(445,91,o),
(532,200,o),
(532,356,cs),
(532,504,o),
(441,609,o),
(308,609,cs),
(205,609,l),
(205,91,l),
(308,91,ls)
);
}
);
width = 696;
}
);
unicode = 68;
},
{
glyphname = Eth;
kernLeft = D;
kernRight = D;
lastChange = "2023-08-03 09:41:05 +0000";
layers = (
{
layerId = master01;
shapes = (
{
closed = 1;
nodes = (
(254,0,ls),
(484,0,o),
(611,141,o),
(640,349,cs),
(670,560,o),
(582,700,o),
(352,700,cs),
(160,700,l),
(62,0,l)
);
},
{
closed = 1;
nodes = (
(275,302,l),
(287,386,l),
(33,386,l),
(21,302,l)
);
},
{
closed = 1;
nodes = (
(235,620,l),
(344,620,ls),
(505,620,o),
(570,507,o),
(548,350,cs),
(526,192,o),
(429,80,o),
(268,80,cs),
(159,80,l)
);
}
);
width = 676;
}
);
unicode = 208;
},
{
glyphname = E;
kernLeft = E;
kernRight = E;
lastChange = "2023-08-03 09:41:05 +0000";
layers = (
{
anchors = (
{
name = bottom;
pos = (267,0);
},
{
name = ogonek;
pos = (427,0);
},
{
name = top;
pos = (368,720);
}
);
layerId = master01;
shapes = (
{
closed = 1;
nodes = (
(472,0,l),
(483,80,l),
(161,80,l),
(195,320,l),
(456,320,l),
(467,398,l),
(206,398,l),
(237,620,l),
(559,620,l),
(570,700,l),
(160,700,l),
(62,0,l)
);
}
);
width = 564;
},
{
associatedMasterId = master01;
layerId = "A977A26C-359E-4C6D-9AFD-AF1AE6B4AD04";
name = foreground;
shapes = (
{
closed = 1;
nodes = (
(90,700,l),
(546,700,l),
(546,608,l),
(196,608,l),
(196,405,l),
(485,405,l),
(485,313,l),
(196,313,l),
(196,92,l),
(546,92,l),
(546,0,l),
(90,0,l)
);
}
);
width = 596;
}
);
unicode = 69;
},
{
glyphname = F;
kernLeft = F;
kernRight = F;
lastChange = "2023-08-03 09:41:05 +0000";
layers = (
{
layerId = master01;
shapes = (
{
closed = 1;
nodes = (
(150,0,l),
(195,320,l),
(456,320,l),
(467,400,l),
(206,400,l),
(237,620,l),
(559,620,l),
(570,700,l),
(160,700,l),
(62,0,l)
);
}
);
width = 541;
},
{
associatedMasterId = master01;
layerId = "A8DBB783-FE60-44AC-AE41-AD44FD5FD283";
name = foreground;
shapes = (
{
closed = 1;
nodes = (
(95,0,l),
(95,700,l),
(551,700,l),
(551,608,l),
(201,608,l),
(201,404,l),
(490,404,l),
(490,312,l),
(201,312,l),
(201,0,l)
);
}
);
width = 581;
}
);
unicode = 70;
},
{
glyphname = G;
kernLeft = G;
kernRight = G;
lastChange = "2023-08-03 09:41:05 +0000";
layers = (
{
anchors = (
{
name = top;
pos = (430,724);
}
);
layerId = master01;
shapes = (
{
closed = 1;
nodes = (
(421,-12,o),
(504,30,o),
(555,107,c),
(555,107,o),
(553,0,o),
(553,0,c),
(622,0,l),
(674,368,l),
(427,368,l),
(415,284,l),
(573,284,l),
(555,158,o),
(440,67,o),
(335,67,cs),
(191,67,o),
(137,194,o),
(160,357,cs),
(182,512,o),
(274,633,o),
(418,633,c),
(523,633,o),
(586,570,o),
(597,484,c),
(688,502,l),
(678,625,o),
(588,713,o),
(429,713,c),
(210,713,o),
(97,548,o),
(70,355,cs),
(42,158,o),
(110,-12,o),
(337,-12,c)
);
}
);
width = 723;
},
{
associatedMasterId = master01;
layerId = "CB3D37D9-D998-4BEF-81F7-6BF9414937DB";
name = foreground;
shapes = (
{
closed = 1;
nodes = (
(156,-12,o),
(50,158,o),
(50,347,c),
(50,540,o),
(156,713,o),
(386,713,c),
(551,713,o),
(652,623,o),
(683,503,c),
(570,481,l),
(548,553,o),
(477,618,o),
(386,618,c),
(252,618,o),
(165,504,o),
(165,349,c),
(165,194,o),
(250,94,o),
(391,94,c),
(487,94,o),
(577,179,o),
(577,274,c),
(419,274,l),
(419,368,l),
(704,368,l),
(704,0,l),
(608,0,l),
(608,0,o),
(608,143,o),
(608,143,c),
(583,27,o),
(467,-12,o),
(383,-12,c)
);
}
);
width = 768;
}
);
unicode = 71;
},
{
glyphname = H;
kernLeft = H;
kernRight = H;
lastChange = "2023-08-03 09:41:05 +0000";
layers = (
{
hints = (
{
horizontal = 1;
origin = (0,1);
target = (0,8);
type = Stem;
},
{
origin = (0,11);
target = (0,0);
type = Stem;
},
{
origin = (0,3);
target = (0,4);
type = Stem;
}
);
layerId = master01;
shapes = (
{
closed = 1;
nodes = (
(148,0,l),
(193,324,l),
(527,324,l),
(482,0,l),
(570,0,l),
(668,700,l),
(580,700,l),
(539,404,l),
(205,404,l),
(246,700,l),
(158,700,l),
(60,0,l)
);
}
);
width = 700;
},
{
associatedMasterId = master01;
layerId = "767EE966-09EE-4F15-A2D2-031D2049D6EC";
name = foreground;
shapes = (
{
closed = 1;
nodes = (
(534,0,l),
(640,0,l),
(640,700,l),
(534,700,l),
(534,404,l),
(196,404,l),
(196,700,l),
(90,700,l),
(90,0,l),
(196,0,l),
(196,312,l),
(534,312,l)
);
}
);
width = 730;
}
);
unicode = 72;
},
{
glyphname = Hbar;
kernLeft = H;
kernRight = H;
lastChange = "2023-08-03 09:41:05 +0000";
layers = (
{
layerId = master01;
shapes = (
{
closed = 1;
nodes = (
(693,492,l),
(703,562,l),
(88,562,l),
(78,492,l)
);
},
{
pos = (2,0);
ref = H;
}
);
width = 700;
}
);
unicode = 294;
},
{
glyphname = I;
kernLeft = I;
kernRight = I;
lastChange = "2023-08-03 09:41:05 +0000";
layers = (
{
anchors = (
{
name = top;
pos = (303,712);
}
);
hints = (
{
horizontal = 1;
origin = (0,11);
target = (0,10);
type = Stem;
},
{
horizontal = 1;
origin = (0,6);
target = (0,7);
type = Stem;
},
{
horizontal = 1;
origin = (0,11);
target = (0,2);
type = Stem;
},
{
origin = (0,9);
target = (0,0);
type = Stem;
},
{
origin = (0,9);
target = (0,2);
type = Stem;
},
{
origin = (0,11);
target = (0,2);
type = Stem;
}
);
layerId = master01;
shapes = (
{
closed = 1;
nodes = (
(366,0,l),
(377,76,l),
(258,76,l),
(335,624,l),
(454,624,l),
(464,700,l),
(138,700,l),
(128,624,l),
(247,624,l),
(169,74,l),
(50,74,l),
(40,0,l)
);
}
);
width = 476;
},
{
associatedMasterId = master01;
layerId = "7531A638-AF93-42CE-98F8-0983E097DA89";
name = foreground;
shapes = (
{
closed = 1;
nodes = (
(416,94,l),
(306,94,l),
(306,608,l),
(416,608,l),
(416,700,l),
(90,700,l),
(90,608,l),
(200,608,l),
(200,92,l),
(90,92,l),
(90,0,l),
(416,0,l)
);
}
);
width = 506;
}
);
unicode = 73;
},
{
glyphname = J;
kernLeft = J;
kernRight = J;
lastChange = "2023-08-03 09:41:05 +0000";
layers = (
{
anchors = (
{
name = top;
pos = (434,720);
}
);
layerId = master01;
shapes = (
{
closed = 1;
nodes = (
(320,-12,o),
(388,70,o),
(412,241,cs),
(476,700,l),
(388,700,l),
(324,240,ls),
(309,133,o),
(273,72,o),
(182,72,c),
(117,72,o),
(90,120,o),
(87,200,c),
(-1,173,l),
(1,56,o),
(60,-12,o),
(174,-12,c)
);
}
);
width = 495;
},
{
associatedMasterId = master01;
layerId = "7D5A962D-9C0D-4DF1-88D2-B6BD600C45BA";
name = foreground;
shapes = (
{
closed = 1;
nodes = (
(126,118,o),
(160,85,o),
(214,86,c),
(307,86,o),
(327,162,o),
(327,229,cs),
(327,700,l),
(433,700,l),
(433,230,ls),
(433,134,o),
(410,-12,o),
(218,-12,c),
(113,-12,o),
(29,48,o),
(10,164,c),
(109,197,l)
);
}
);
width = 513;
}
);
unicode = 74;
},
{
glyphname = K;
kernLeft = K;
kernRight = K;
lastChange = "2023-08-03 09:41:05 +0000";
layers = (
{
hints = (
{
horizontal = 1;
origin = (0,11);
target = (0,10);
type = Stem;
},
{
origin = (0,11);
target = (0,0);
type = Stem;
}
);
layerId = master01;
shapes = (
{
closed = 1;
nodes = (
(148,0,l),
(182,242,l),
(284,343,l),
(453,0,l),
(565,0,l),
(354,404,l),
(645,700,l),
(538,700,l),
(199,361,l),
(246,700,l),
(158,700,l),
(60,0,l)
);
}
);
width = 615;
},
{
associatedMasterId = master01;
layerId = "08AA5D7D-8610-445E-8CED-4DCF5FBF5B32";
name = foreground;
shapes = (
{
closed = 1;
nodes = (
(94,0,l),
(200,0,l),
(200,248,l),
(278,333,l),
(515,0,l),
(645,0,l),
(349,408,l),
(621,700,l),
(491,700,l),
(200,381,l),
(200,700,l),
(94,700,l)
);
}
);
width = 655;
}
);
unicode = 75;
},
{
glyphname = L;
kernLeft = L;
kernRight = L;
lastChange = "2023-08-03 09:41:05 +0000";
layers = (
{
anchors = (
{
name = top;
pos = (204,712);
}
);
hints = (
{
horizontal = 1;
origin = (0,5);
target = (0,4);
type = Stem;
},
{
origin = (0,5);
target = (0,0);
type = Stem;
}
);
layerId = master01;
shapes = (
{
closed = 1;
nodes = (
(471,0,l),
(482,80,l),
(159,80,l),
(246,700,l),
(158,700,l),
(60,0,l)
);
}
);
width = 524;
},
{
associatedMasterId = master01;
layerId = "709592C3-DB4C-47AA-8876-5A583F256C89";
name = foreground;
shapes = (
{
closed = 1;
nodes = (
(513,96,l),
(513,0,l),
(90,0,l),
(90,700,l),
(196,700,l),
(196,96,l)
);
}
);
width = 528;
}
);
unicode = 76;
},
{
glyphname = Lslash;
kernLeft = L;
kernRight = L;
lastChange = "2023-08-03 09:41:05 +0000";
layers = (
{
anchors = (
{
name = top;
pos = (204,712);
}
);
hints = (
{
horizontal = 1;
origin = (0,5);
target = (0,4);
type = Stem;
},
{
origin = (0,5);
target = (0,0);
type = Stem;
}
);
layerId = master01;
shapes = (
{
closed = 1;
nodes = (
(471,0,l),
(482,80,l),
(159,80,l),
(246,700,l),
(158,700,l),
(60,0,l)
);
},
{
closed = 1;
nodes = (
(357,398,l),
(331,462,l),
(-9,294,l),
(16,229,l)
);
}
);
width = 524;
}
);
unicode = 321;
},
{
glyphname = M;
kernLeft = M;
kernRight = M;
lastChange = "2023-08-03 09:41:05 +0000";
layers = (
{
hints = (
{
horizontal = 1;
origin = (0,12);
target = (0,11);
type = Stem;
},
{
origin = (0,12);
target = (0,0);
type = Stem;
},
{
place = (637,53);
type = Stem;
}
);
layerId = master01;
shapes = (
{
closed = 1;
nodes = (
(148,0,l),
(227,562,l),
(363,62,l),
(458,62,l),
(729,562,l),
(650,0,l),
(738,0,l),
(836,700,l),
(714,700,l),
(422,164,l),
(280,700,l),
(158,700,l),
(60,0,l)
);
}
);
width = 868;
},
{
associatedMasterId = master01;
layerId = "CA1B1FD6-294F-47BB-99AD-78D1808B8BBA";
name = foreground;
shapes = (
{
closed = 1;
nodes = (
(200,0,l),
(200,538,l),
(368,137,l),
(481,137,l),
(649,535,l),
(649,0,l),
(755,0,l),
(755,700,l),
(607,700,l),
(426,268,l),
(243,700,l),
(94,700,l),
(94,0,l)
);
}
);
width = 849;
}
);
unicode = 77;
},
{
glyphname = N;
kernLeft = N;
kernRight = N;
lastChange = "2023-08-03 09:41:05 +0000";
layers = (
{
anchors = (
{
name = bottom;
pos = (332,0);
},
{
name = top;
pos = (428,712);
}
);
hints = (
{
horizontal = 1;
origin = (0,9);
target = (0,8);
type = Stem;
},
{
origin = (0,9);
target = (0,0);
type = Stem;
},
{
origin = (0,6);
target = (0,3);
type = Stem;
}
);
layerId = master01;
shapes = (
{
closed = 1;
nodes = (
(148,0,l),
(229,578,l),
(468,0,l),
(583,0,l),
(681,700,l),
(593,700,l),
(513,126,l),
(286,700,l),
(158,700,l),
(60,0,l)
);
}
);
width = 713;
},
{
associatedMasterId = master01;
layerId = "0588BE4C-E1DC-4D10-B2ED-A5B0C3E90302";
name = foreground;
shapes = (
{
closed = 1;
nodes = (
(200,0,l),
(200,542,l),
(502,0,l),
(635,0,l),
(635,700,l),
(529,700,l),
(529,158,l),
(240,700,l),
(94,700,l),
(94,0,l)
);
}
);
width = 729;
}
);
unicode = 78;
},
{
glyphname = Eng;
kernLeft = N;
kernRight = N;
lastChange = "2023-08-03 09:41:05 +0000";
layers = (
{
hints = (
{
horizontal = 1;
origin = (0,8);
target = (0,7);
type = Stem;
},
{
origin = (0,8);
target = (0,9);
type = Stem;
}
);
layerId = master01;
shapes = (
{
closed = 1;
nodes = (
(509,-188,o),
(564,-137,o),
(577,-44,cs),
(681,700,l),
(593,700,l),
(522,193,l),
(286,700,l),
(158,700,l),
(60,0,l),
(148,0,l),
(229,578,l),
(499,26,l),
(489,-43,ls),
(481,-97,o),
(451,-116,o),
(402,-116,cs),
(389,-116,o),
(371,-115,o),
(355,-112,c),
(346,-180,l),
(362,-185,o),
(384,-188,o),
(400,-188,cs)
);
}
);
width = 713;
}
);
unicode = 330;
},
{
glyphname = O;
kernLeft = O;
kernRight = O;
lastChange = "2023-08-03 09:41:05 +0000";
layers = (
{
anchors = (
{
name = top;
pos = (438,721);
}
);
hints = (
{
horizontal = 1;
origin = (0,11);
target = (1,11);
type = Stem;
},
{
horizontal = 1;
origin = (1,5);
target = (0,5);
type = Stem;
},
{
origin = (0,8);
target = (1,2);
type = Stem;
},
{
origin = (1,8);
target = (0,2);
type = Stem;
}
);
layerId = master01;
shapes = (
{
closed = 1;
nodes = (
(559,-11,o),
(676,158,o),
(703,351,cs),
(730,544,o),
(661,713,o),
(437,713,cs),
(213,713,o),
(96,544,o),
(69,351,cs),
(42,158,o),
(111,-11,o),
(335,-11,cs)
);
},
{
closed = 1;
nodes = (
(200,69,o),
(139,196,o),
(161,351,cs),
(183,506,o),
(279,633,o),
(426,633,cs),
(583,633,o),
(633,506,o),
(611,351,cs),
(589,196,o),
(504,69,o),
(347,69,cs)
);
}
);
width = 744;
},
{
associatedMasterId = master01;
layerId = "1E35F290-6AA7-4BE9-AB09-67F845E701DA";
name = foreground;
shapes = (
{
closed = 1;
nodes = (
(155,-13,o),
(50,171,o),
(50,355,cs),
(50,548,o),
(156,713,o),
(386,713,c),
(616,713,o),
(722,548,o),
(722,355,cs),
(722,171,o),
(617,-13,o),
(386,-13,c)
);
},
{
closed = 1;
nodes = (
(252,617,o),
(162,512,o),
(162,357,cs),
(162,194,o),
(248,83,o),
(386,83,c),
(524,83,o),
(610,194,o),
(610,357,cs),
(610,512,o),
(520,617,o),
(386,617,c)
);
}
);
width = 772;
}
);
unicode = 79;
},
{
glyphname = Ohorn;
kernLeft = O;
kernRight = O;
lastChange = "2023-08-03 12:56:31 +0000";
layers = (
{
layerId = master01;
shapes = (
{
closed = 1;
nodes = (
(688,641,o),
(712,762,o),
(701,824,c),
(613,818,l),
(619,774,o),
(613,709,o),
(535,707,cs),
(463,704,o),
(448,713,o),
(372,713,c),
(396,674,l),
(427,674,o),
(427,641,o),
(553,641,cs)
);
},
{
pos = (-71,0);
ref = O;
}
);
width = 600;
}
);
unicode = 416;
},
{
glyphname = Oslash;
kernLeft = O;
kernRight = O;
lastChange = "2023-08-03 09:41:05 +0000";
layers = (
{
layerId = master01;
shapes = (
{
closed = 1;
nodes = (
(745,688,l),
(694,734,l),
(20,12,l),
(67,-36,l)
);
},
{
ref = O;
}
);
width = 744;
}
);
unicode = 216;
},
{
glyphname = OE;
kernLeft = O;
kernRight = E;
lastChange = "2023-08-03 09:41:05 +0000";
layers = (
{
layerId = master01;
shapes = (
{
closed = 1;
nodes = (
(554,-11,o),
(666,158,o),
(693,351,cs),
(720,544,o),
(656,713,o),
(432,713,cs),
(213,713,o),
(96,544,o),
(69,351,cs),
(42,158,o),
(106,-11,o),
(330,-11,cs)
);
},
{
closed = 1;
nodes = (
(195,69,o),
(139,196,o),
(161,351,cs),
(183,506,o),
(274,633,o),
(421,633,cs),
(578,633,o),
(623,506,o),
(601,351,cs),
(579,196,o),
(499,69,o),
(342,69,cs)
);
},
{
closed = 1;
nodes = (
(976,0,l),
(987,80,l),
(653,80,l),
(687,320,l),
(960,320,l),
(971,400,l),
(698,400,l),
(729,620,l),
(1063,620,l),
(1074,700,l),
(652,700,l),
(554,0,l)
);
}
);
width = 1069;
}
);
unicode = 338;
},
{
glyphname = P;
kernLeft = P;
kernRight = P;
lastChange = "2023-08-03 09:41:05 +0000";
layers = (
{
hints = (
{
horizontal = 1;
origin = (0,1);
target = (1,8);
type = Stem;
},
{
horizontal = 1;
origin = (1,0);
target = (0,9);
type = Stem;
},
{
origin = (0,10);
target = (1,8);
type = Stem;
},
{
origin = (1,4);
target = (0,5);
type = Stem;
},
{
origin = (0,10);
target = (0,0);
type = Stem;
}
);
layerId = master01;
shapes = (
{
closed = 1;
nodes = (
(150,-1,l),
(185,252,l),
(344,252,l),
(485,252,o),
(580,342,o),
(598,471,cs),
(618,615,o),
(539,701,o),
(409,701,cs),
(158,701,l),
(60,-1,l)
);
},
{
closed = 1;
nodes = (
(235,621,l),
(396,621,ls),
(469,621,o),
(522,573,o),
(508,473,cs),
(495,376,o),
(429,332,o),
(355,332,cs),
(195,332,l)
);
}
);
width = 602;
},
{
associatedMasterId = master01;
layerId = "7FCCACBF-61D8-41EB-96D9-CCFCE935C285";
name = foreground;
shapes = (
{
closed = 1;
nodes = (
(335,614,ls),
(408,614,o),
(463,573,o),
(463,473,cs),
(463,376,o),
(408,343,o),
(334,343,cs),
(200,343,l),
(200,614,l)
);
},
{
closed = 1;
nodes = (
(491,252,o),
(573,342,o),
(573,471,cs),
(573,615,o),
(482,701,o),
(352,701,cs),
(94,701,l),
(94,-1,l),
(202,-1,l),
(202,252,l),
(350,252,l)
);
}
);
width = 603;
}
);
unicode = 80;
},
{
glyphname = Thorn;
kernLeft = P;
kernRight = P;
lastChange = "2023-08-03 09:41:05 +0000";
layers = (
{
hints = (
{
horizontal = 1;
origin = (0,1);
target = (1,8);
type = Stem;
},
{
horizontal = 1;
origin = (1,0);
target = (0,9);
type = Stem;
},
{
origin = (0,10);
target = (1,8);
type = Stem;
},
{
origin = (1,4);
target = (0,5);
type = Stem;
},
{
origin = (0,10);
target = (0,0);
type = Stem;
}
);
layerId = master01;
shapes = (
{
closed = 1;
nodes = (
(150,-1,l),
(173,164,l),
(295,164,l),
(447,164,o),
(528,234,o),
(545,358,cs),
(563,487,o),
(502,553,o),
(352,553,cs),
(138,553,l),
(60,-1,l)
);
},
{
closed = 1;
nodes = (
(214,473,l),
(338,473,ls),
(423,473,o),
(467,445,o),
(455,360,cs),
(442,263,o),
(391,244,o),
(305,244,cs),
(182,244,l)
);
},
{
closed = 1;
nodes = (
(213,464,l),
(246,700,l),
(158,700,l),
(125,464,l)
);
}
);
width = 565;
}
);
unicode = 222;
},
{
glyphname = Q;
kernLeft = Q;
kernRight = Q;
lastChange = "2023-08-03 09:41:05 +0000";
layers = (
{
layerId = master01;
shapes = (
{
closed = 1;
nodes = (
(559,-11,o),
(676,158,o),
(703,351,cs),
(730,544,o),
(661,713,o),
(437,713,cs),
(213,713,o),
(96,544,o),
(69,351,cs),
(42,158,o),
(111,-11,o),
(335,-11,cs)
);
},
{
closed = 1;
nodes = (
(672,37,l),
(494,264,l),
(433,217,l),
(432,216,o),
(610,-8,o),
(609,-12,c)
);
},
{
closed = 1;
nodes = (
(190,69,o),
(139,196,o),
(161,351,cs),
(183,506,o),
(269,633,o),
(426,633,cs),
(583,633,o),
(633,506,o),
(611,351,cs),
(589,196,o),
(504,69,o),
(347,69,cs)
);
}
);
width = 752;
},
{
associatedMasterId = master01;
layerId = "EFBC5A6F-D367-4A7A-A5FC-DD2D16B712CA";
name = foreground;
shapes = (
{
closed = 1;
nodes = (
(410,270,l),
(486,340,l),
(758,54,l),
(681,-12,l)
);
},
{
closed = 1;
nodes = (
(155,-13,o),
(50,171,o),
(50,355,cs),
(50,548,o),
(156,713,o),
(386,713,c),
(616,713,o),
(722,548,o),
(722,355,cs),
(722,171,o),
(617,-13,o),
(386,-13,c)
);
},
{
closed = 1;
nodes = (
(252,617,o),
(162,512,o),
(162,357,cs),
(162,194,o),
(248,83,o),
(386,83,c),
(524,83,o),
(610,194,o),
(610,357,cs),
(610,512,o),
(520,617,o),
(386,617,c)
);
}
);
width = 817;
}
);
unicode = 81;
},
{
glyphname = R;
kernLeft = R;
kernRight = R;
lastChange = "2023-08-03 09:41:05 +0000";
layers = (
{
anchors = (
{
name = top;
pos = (375,720);
}
);
hints = (
{
horizontal = 1;
origin = (0,1);
target = (1,8);
type = Stem;
},
{
horizontal = 1;
origin = (0,12);
target = (1,0);
type = Stem;
},
{
origin = (0,13);
target = (1,8);
type = Stem;
},
{
origin = (1,4);
target = (0,8);
type = Stem;
},
{
origin = (0,13);
target = (0,0);
type = Stem;
}
);
layerId = master01;
shapes = (
{
closed = 1;
nodes = (
(150,0,l),
(191,292,l),
(342,292,l),
(465,0,l),
(569,0,l),
(434,306,l),
(533,340,o),
(589,421,o),
(600,498,cs),
(613,588,o),
(578,700,o),
(411,700,cs),
(158,700,l),
(60,0,l)
);
},
{
closed = 1;
nodes = (
(235,620,l),
(401,620,ls),
(475,620,o),
(519,561,o),
(510,498,c),
(500,427,o),
(438,372,o),
(365,372,cs),
(200,372,l)
);
}
);
width = 646;
},
{
associatedMasterId = master01;
layerId = "AC853CD9-4D5C-4A9A-82EA-746798F3E6E3";
name = foreground;
shapes = (
{
closed = 1;
nodes = (
(346,606,ls),
(420,606,o),
(463,561,o),
(463,498,c),
(463,427,o),
(418,386,o),
(345,386,cs),
(200,386,l),
(200,606,l)
);
},
{
closed = 1;
nodes = (
(487,0,l),
(612,0,l),
(434,306,l),
(528,340,o),
(573,421,o),
(573,498,cs),
(573,588,o),
(523,700,o),
(356,700,cs),
(94,700,l),
(94,0,l),
(202,0,l),
(202,292,l),
(323,292,l)
);
}
);
width = 652;
}
);
unicode = 82;
},
{
glyphname = S;
kernLeft = S;
kernRight = S;
lastChange = "2023-08-03 09:41:05 +0000";
layers = (
{
anchors = (
{
name = bottom;
pos = (279,-12);
},
{
name = top;
pos = (380,720);
}
);
hints = (
{
horizontal = 1;
origin = (0,31);
target = (0,24);
type = Stem;
},
{
horizontal = 1;
origin = (0,15);
target = (0,8);
type = Stem;
},
{
origin = (0,18);
target = (0,5);
type = Stem;
},
{
origin = (0,21);
target = (0,2);
type = Stem;
}
);
layerId = master01;
shapes = (
{
closed = 1;
nodes = (
(424,-12,o),
(537,58,o),
(556,195,c),
(594,462,o),
(174,336,o),
(200,521,cs),
(210,591,o),
(285,632,o),
(360,632,cs),
(460,632,o),
(499,572,o),
(501,513,c),
(594,513,l),
(602,603,o),
(531,712,o),
(378,712,c),
(213,712,o),
(126,618,o),
(111,516,c),
(73,240,o),
(494,375,o),
(467,186,c),
(458,114,o),
(378,68,o),
(290,68,c),
(197,70,o),
(144,129,o),
(142,214,c),
(45,214,l),
(42,99,o),
(104,-12,o),
(279,-12,c)
);
}
);
width = 621;
},
{
associatedMasterId = master01;
layerId = "917E4443-A1CA-4121-BF2B-9D5AF53FD226";
name = foreground;
shapes = (
{
closed = 1;
nodes = (
(271,419,o),
(184,433,o),
(184,521,cs),
(184,591,o),
(247,623,o),
(322,623,cs),
(422,623,o),
(473,572,o),
(483,513,c),
(585,513,l),
(580,603,o),
(502,712,o),
(329,712,c),
(164,712,o),
(82,618,o),
(82,516,c),
(82,368,o),
(176,334,o),
(286,313,c),
(397,296,o),
(492,287,o),
(492,186,c),
(493,114,o),
(422,79,o),
(334,79,c),
(240,81,o),
(175,129,o),
(161,214,c),
(58,214,l),
(71,99,o),
(159,-12,o),
(334,-12,c),
(479,-12,o),
(592,58,o),
(592,195,c),
(592,340,o),
(493,376,o),
(364,401,c)
);
}
);
width = 643;
},
{
associatedMasterId = master01;
layerId = "C07C9857-C18C-48E6-9123-EFA8357277D3";
name = "8 Jul 21, 13:25";
shapes = (
{
closed = 1;
nodes = (
(271,419,o),
(184,433,o),
(184,521,cs),
(184,591,o),
(247,623,o),
(322,623,cs),
(422,623,o),
(473,572,o),
(483,513,c),
(585,513,l),
(580,603,o),
(502,712,o),
(329,712,c),
(164,712,o),
(82,618,o),
(82,516,c),
(82,368,o),
(176,334,o),
(286,313,c),
(397,296,o),
(492,287,o),
(492,186,c),
(493,114,o),
(422,79,o),
(334,79,c),
(240,81,o),
(175,129,o),
(161,214,c),
(58,214,l),
(71,99,o),
(159,-12,o),
(334,-12,c),
(479,-12,o),
(592,58,o),
(592,195,c),
(592,340,o),
(493,376,o),
(364,401,c)
);
},
{
closed = 1;
nodes = (
(271,419,o),
(184,433,o),
(184,521,cs),
(184,591,o),
(247,623,o),
(322,623,cs),
(422,623,o),
(473,572,o),
(483,513,c),
(585,513,l),
(580,603,o),
(502,712,o),
(329,712,c),
(164,712,o),
(82,618,o),
(82,516,c),
(82,368,o),
(176,334,o),
(286,313,c),
(397,296,o),
(492,287,o),
(492,186,c),
(493,114,o),
(422,79,o),
(334,79,c),
(240,81,o),
(175,129,o),
(161,214,c),
(58,214,l),
(71,99,o),
(159,-12,o),
(334,-12,c),
(479,-12,o),
(592,58,o),
(592,195,c),
(592,340,o),
(493,376,o),
(364,401,c)
);
}
);
width = 643;
},
{
anchors = (
{
name = top;
pos = (311,720);
}
);
associatedMasterId = master01;
hints = (
{
horizontal = 1;
origin = (0,31);
target = (0,24);
type = Stem;
},
{
horizontal = 1;
origin = (0,12);
target = (0,5);
type = Stem;
},
{
origin = (0,15);
target = (0,2);
type = Stem;
},
{
origin = (0,21);
target = (0,34);
type = Stem;
}
);
layerId = "AA6848CB-AEE8-43E1-A86C-A0496DF06434";
name = "1 Oct 21, 07:21";
shapes = (
{
closed = 1;
nodes = (
(253,413,o),
(162,433,o),
(162,521,cs),
(162,591,o),
(231,632,o),
(306,632,cs),
(406,632,o),
(451,572,o),
(461,513,c),
(557,513,l),
(552,603,o),
(486,712,o),
(313,712,c),
(148,712,o),
(74,618,o),
(74,516,c),
(74,380,o),
(168,338,o),
(268,317,c),
(379,291,o),
(476,287,o),
(476,186,c),
(477,114,o),
(404,68,o),
(316,68,c),
(222,70,o),
(161,129,o),
(147,214,c),
(50,214,l),
(63,99,o),
(141,-12,o),
(316,-12,c),
(461,-12,o),
(564,58,o),
(564,195,c),
(564,340,o),
(465,370,o),
(346,395,c)
);
},
{
closed = 1;
nodes = (
(253,413,o),
(162,433,o),
(162,521,cs),
(162,591,o),
(231,632,o),
(306,632,cs),
(406,632,o),
(451,572,o),
(461,513,c),
(557,513,l),
(552,603,o),
(486,712,o),
(313,712,c),
(148,712,o),
(74,618,o),
(74,516,c),
(74,380,o),
(168,338,o),
(268,317,c),
(379,291,o),
(476,287,o),
(476,186,c),
(477,114,o),
(404,68,o),
(316,68,c),
(222,70,o),
(161,129,o),
(147,214,c),
(50,214,l),
(63,99,o),
(141,-12,o),
(316,-12,c),
(461,-12,o),
(564,58,o),
(564,195,c),
(564,340,o),
(465,370,o),
(346,395,c)
);
}
);
visible = 1;
width = 621;
}
);
unicode = 83;
},
{
glyphname = Germandbls;
kernLeft = B;
kernRight = B;
lastChange = "2023-08-03 09:41:05 +0000";
layers = (
{
layerId = master01;
shapes = (
{
closed = 1;
nodes = (
(482,-12,o),
(603,69,o),
(621,199,cs),
(635,300,o),
(557,382,o),
(432,382,c),
(622,600,l),
(606,662,o),
(518,712,o),
(410,712,cs),
(246,712,o),
(147,605,o),
(120,416,c),
(62,0,l),
(150,0,l),
(207,407,ls),
(229,563,o),
(309,631,o),
(398,631,cs),
(461,631,o),
(501,612,o),
(507,592,c),
(327,382,l),
(317,313,l),
(411,313,ls),
(471,313,o),
(546,275,o),
(535,203,cs),
(525,128,o),
(459,68,o),
(380,68,cs),
(340,68,o),
(306,78,o),
(281,98,c),
(224,30,l),
(262,2,o),
(312,-12,o),
(368,-12,cs)
);
}
);
width = 682;
},
{
associatedMasterId = master01;
layerId = "F21A90D2-DE7B-4C42-8F88-BC0E7842DBD9";
name = "7 Jun 23, 15:00";
shapes = (
{
closed = 1;
nodes = (
(185,0,l),
(97,0,l),
(97,416,l),
(97,601,o),
(174,700,o),
(329,700,cs),
(437,700,o),
(530,630,o),
(555,568,c),
(404,407,l),
(559,407,o),
(636,315,o),
(636,199,cs),
(636,60,o),
(524,-12,o),
(395,-12,cs),
(339,-12,o),
(287,2,o),
(245,30,c),
(292,96,l),
(320,76,o),
(356,68,o),
(396,68,cs),
(485,68,o),
(550,119,o),
(550,203,cs),
(550,300,o),
(480,338,o),
(381,338,cs),
(290,338,l),
(290,407,l),
(441,560,l),
(432,580,o),
(393,615,o),
(330,615,cs),
(218,615,o),
(185,521,o),
(185,407,cs)
);
}
);
width = 690;
}
);
unicode = 7838;
},
{
glyphname = T;
kernLeft = T;
kernRight = T;
lastChange = "2023-08-03 13:01:11 +0000";
layers = (
{
anchors = (
{
name = bottom;
pos = (212,0);
},
{
name = top;
pos = (313,712);
}
);
hints = (
{
horizontal = 1;
origin = (0,4);
target = (0,5);
type = Stem;
},
{
origin = (0,7);
target = (0,0);
type = Stem;
}
);
layerId = master01;
shapes = (
{
closed = 1;
nodes = (
(258,0,l),
(345,620,l),
(535,620,l),
(546,700,l),
(78,700,l),
(67,620,l),
(257,620,l),
(170,0,l)
);
}
);
width = 499;
},
{
associatedMasterId = master01;
layerId = "B6AB5140-E37C-42F2-A30F-777986DD981C";
name = foreground;
shapes = (
{
closed = 1;
nodes = (
(318,608,l),
(517,608,l),
(517,700,l),
(5,700,l),
(5,608,l),
(212,608,l),
(212,0,l),
(318,0,l)
);
}
);
width = 522;
}
);
unicode = 84;
},
{
glyphname = U;
kernLeft = U;
kernRight = U;
lastChange = "2023-08-03 09:41:05 +0000";
layers = (
{
anchors = (
{
name = top;
pos = (406,712);
}
);
hints = (
{
horizontal = 1;
origin = (0,17);
target = (0,9);
type = Stem;
},
{
origin = (0,14);
target = (0,11);
type = Stem;
},
{
place = (472,78);
type = Stem;
}
);
layerId = master01;
shapes = (
{
closed = 1;
nodes = (
(470,-12,o),
(571,98,o),
(596,275,cs),
(655,701,l),
(567,701,l),
(508,275,ls),
(488,139,o),
(405,73,o),
(312,73,cs),
(215,73,o),
(154,139,o),
(174,275,cs),
(233,701,l),
(145,701,l),
(86,275,ls),
(61,98,o),
(141,-12,o),
(304,-12,cs)
);
}
);
width = 674;
},
{
associatedMasterId = master01;
layerId = "5FB1FA1A-EB05-444A-B8AE-D1ED2DC196B0";
name = foreground;
shapes = (
{
closed = 1;
nodes = (
(258,91,o),
(181,142,o),
(181,278,cs),
(181,701,l),
(70,701,l),
(70,278,ls),
(70,101,o),
(156,-12,o),
(356,-12,c),
(523,-12,o),
(620,102,o),
(620,280,cs),
(620,700,l),
(507,700,l),
(507,279,ls),
(507,142,o),
(447,91,o),
(352,91,c)
);
}
);
width = 690;
}
);
unicode = 85;
},
{
glyphname = Uhorn;
kernLeft = U;
kernRight = U;
lastChange = "2023-08-03 09:41:05 +0000";
layers = (
{
layerId = master01;
shapes = (
{
closed = 1;
nodes = (
(780,634,o),
(804,755,o),
(793,817,c),
(705,811,l),
(711,767,o),
(705,702,o),
(627,700,c),
(640,634,l)
);
},
{
pos = (0,-1);
ref = U;
}
);
width = 674;
}
);
unicode = 431;
},
{
glyphname = V;
kernLeft = V;
kernRight = V;
lastChange = "2023-08-03 09:41:05 +0000";
layers = (
{
layerId = master01;
shapes = (
{
closed = 1;
nodes = (
(302,0,l),
(155,700,l),
(71,700,l),
(218,0,l)
);
},
{
closed = 1;
nodes = (
(303,0,l),
(645,700,l),
(561,700,l),
(219,0,l)
);
}
);
width = 590;
},
{
associatedMasterId = master01;
layerId = "0FF30111-47E3-4533-B04A-7E0F4FCC8B75";
name = foreground;
shapes = (
{
closed = 1;
nodes = (
(246,0,l),
(356,0,l),
(120,701,l),
(10,701,l)
);
},
{
closed = 1;
nodes = (
(515,701,l),
(279,0,l),
(385,0,l),
(621,701,l)
);
}
);
width = 631;
}
);
unicode = 86;
},
{
glyphname = W;
kernLeft = W;
kernRight = W;
lastChange = "2023-08-03 09:41:05 +0000";
layers = (
{
anchors = (
{
name = top;
pos = (528,712);
}
);
layerId = master01;
shapes = (
{
closed = 1;
nodes = (
(258,0,l),
(508,569,l),
(598,0,l),
(713,0,l),
(961,700,l),
(868,700,l),
(669,116,l),
(580,700,l),
(472,700,l),
(219,116,l),
(184,700,l),
(91,700,l),
(143,0,l)
);
}
);
width = 926;
},
{
associatedMasterId = master01;
layerId = "D6814062-5E09-4D1C-9A77-973156DD01C6";
name = foreground;
shapes = (
{
closed = 1;
nodes = (
(347,563,l),
(209,162,l),
(127,700,l),
(24,700,l),
(137,0,l),
(260,0,l),
(398,432,l),
(536,0,l),
(659,0,l),
(772,700,l),
(671,700,l),
(591,162,l),
(451,563,l)
);
}
);
width = 796;
}
);
unicode = 87;
},
{
glyphname = X;
kernLeft = X;
kernRight = X;
lastChange = "2023-08-03 09:41:05 +0000";
layers = (
{
layerId = master01;
shapes = (
{
closed = 1;
nodes = (
(522,0,l),
(191,700,l),
(90,700,l),
(422,0,l)
);
},
{
closed = 1;
nodes = (
(81,0,l),
(609,700,l),
(509,700,l),
(-18,0,l)
);
}
);
width = 574;
},
{
associatedMasterId = master01;
layerId = "246BAF68-6253-4F28-9414-8F7B7433EFF2";
name = foreground;
shapes = (
{
closed = 1;
nodes = (
(620,0,l),
(149,700,l),
(22,700,l),
(494,0,l)
);
},
{
closed = 1;
nodes = (
(620,700,l),
(497,700,l),
(26,0,l),
(148,0,l)
);
}
);
width = 649;
}
);
unicode = 88;
},
{
glyphname = Y;
kernLeft = Y;
kernRight = Y;
lastChange = "2023-08-03 12:44:40 +0000";
layers = (
{
anchors = (
{
name = top;
pos = (364,712);
}
);
hints = (
{
horizontal = 1;
origin = (0,8);
target = (0,6);
type = Stem;
},
{
origin = (0,8);
target = (0,0);
type = Stem;
}
);
layerId = master01;
shapes = (
{
closed = 1;
nodes = (
(304,0,l),
(344,309,l),
(640,700,l),
(547,700,l),
(313,390,l),
(168,700,l),
(68,700,l),
(262,309,l),
(216,0,l)
);
}
);
width = 582;
},
{
associatedMasterId = master01;
layerId = "8B946DEB-BFC8-4419-BD29-DE4D27CA2D95";
name = foreground;
shapes = (
{
closed = 1;
nodes = (
(345,0,l),
(345,309,l),
(580,700,l),
(462,700,l),
(296,404,l),
(127,700,l),
(2,700,l),
(239,309,l),
(239,0,l)
);
}
);
width = 582;
}
);
unicode = 89;
},
{
glyphname = Z;
kernLeft = Z;
kernRight = Z;
lastChange = "2023-08-03 09:41:05 +0000";
layers = (
{
anchors = (
{
name = top;
pos = (345,712);
}
);
hints = (
{
horizontal = 1;
origin = (0,9);
target = (0,2);
type = Stem;
},
{
horizontal = 1;
origin = (0,5);
target = (0,6);
type = Stem;
},
{
origin = (0,9);
target = (0,0);
type = Stem;
}
);
layerId = master01;
shapes = (
{
closed = 1;
nodes = (
(469,1,l),
(480,81,l),
(125,81,l),
(556,618,l),
(567,700,l),
(108,700,l),
(97,620,l),
(452,620,l),
(22,83,l),
(10,1,l)
);
}
);
width = 554;
},
{
associatedMasterId = master01;
layerId = "2E06CB95-C68F-4397-AF31-B6A751E83E1E";
name = foreground;
shapes = (
{
closed = 1;
nodes = (
(529,1,l),
(529,93,l),
(162,93,l),
(529,606,l),
(529,700,l),
(40,700,l),
(40,608,l),
(407,608,l),
(40,95,l),
(40,1,l)
);
}
);
width = 569;
}
);
unicode = 90;
},
{
glyphname = a;
kernLeft = a;
kernRight = a;
lastChange = "2023-08-03 09:41:05 +0000";
layers = (
{
anchors = (
{
name = bottom;
pos = (238,-12);
},
{
name = ogonek;
pos = (441,0);
},
{
name = top;
pos = (336,516);
}
);
hints = (
{
horizontal = 1;
place = (-47,41);
type = Stem;
},
{
horizontal = 1;
place = (204,41);
type = Stem;
},
{
horizontal = 1;
place = (477,41);
type = Stem;
},
{
horizontal = 1;
place = (-35,60);
type = Stem;
},
{
place = (21,49);
type = Stem;
},
{
place = (330,49);
type = Stem;
}
);
layerId = master01;
shapes = (
{
closed = 1;
nodes = (
(307,-12,o),
(386,27,o),
(416,96,c),
(403,0,l),
(486,0,l),
(556,500,l),
(476,500,l),
(462,402,l),
(449,457,o),
(405,512,o),
(317,512,cs),
(186,512,o),
(78,419,o),
(54,250,cs),
(31,86,o),
(107,-12,o),
(238,-12,cs)
);
},
{
closed = 1;
nodes = (
(486,0,l),
(403,0,l)
);
},
{
closed = 1;
nodes = (
(160,64,o),
(124,148,o),
(138,252,cs),
(153,356,o),
(212,437,o),
(310,437,cs),
(409,437,o),
(452,360,o),
(437,250,cs),
(423,148,o),
(357,64,o),
(261,64,cs)
);
}
);
width = 607;
},
{
associatedMasterId = master01;
layerId = "3B5242A6-E9B9-4106-A318-25CEEEEB8629";
name = foreground;
shapes = (
{
closed = 1;
nodes = (
(131,199,o),
(196,247,o),
(349,247,c),
(349,226,ls),
(349,127,o),
(247,78,o),
(195,78,cs),
(152,78,o),
(131,114,o),
(131,148,cs)
);
},
{
closed = 1;
nodes = (
(355,67,o),
(377,0,o),
(448,0,cs),
(473,0,o),
(496,6,o),
(510,16,c),
(510,95,l),
(470,91,o),
(447,107,o),
(447,147,c),
(447,340,ls),
(447,414,o),
(408,512,o),
(257,512,cs),
(115,512,o),
(56,404,o),
(56,404,cs),
(132,355,l),
(132,355,o),
(167,425,o),
(250,426,cs),
(315,427,o),
(347,388,o),
(349,344,c),
(349,328,l),
(165,328,o),
(40,262,o),
(40,135,cs),
(40,43,o),
(103,-12,o),
(192,-12,cs),
(318,-12,o),
(356,106,o),
(356,106,c)
);
}
);
width = 550;
}
);
unicode = 97;
},
{
glyphname = ae;
kernLeft = a;
kernRight = e;
lastChange = "2023-08-03 09:41:05 +0000";
layers = (
{
layerId = master01;
shapes = (
{
closed = 1;
nodes = (
(682,-13,o),
(758,30,o),
(811,113,c),
(741,143,l),
(706,92,o),
(656,63,o),
(596,63,c),
(495,63,o),
(461,141,o),
(475,245,cs),
(490,349,o),
(547,436,o),
(648,436,c),
(739,436,o),
(777,360,o),
(770,304,c),
(481,304,l),
(471,233,l),
(844,233,l),
(848,261,l),
(872,434,o),
(782,512,o),
(661,512,c),
(535,512,o),
(416,412,o),
(393,248,cs),
(370,87,o),
(461,-13,o),
(587,-13,c)
);
},
{
closed = 1;
nodes = (
(144,64,o),
(118,91,o),
(125,142,cs),
(136,223,o),
(219,239,o),
(391,239,c),
(389,219,ls),
(375,120,o),
(257,64,o),
(195,64,cs)
);
},
{
closed = 1;
nodes = (
(308,-12,o),
(403,113,o),
(403,113,c),
(428,155,o),
(464,173,o),
(490,340,cs),
(503,429,o),
(434,512,o),
(316,512,cs),
(150,512,o),
(91,393,o),
(91,393,c),
(154,356,l),
(154,356,o),
(196,436,o),
(298,436,cs),
(366,436,o),
(413,390,o),
(405,336,cs),
(401,305,l),
(168,305,o),
(58,262,o),
(40,135,cs),
(27,43,o),
(82,-12,o),
(163,-12,cs)
);
}
);
width = 896;
}
);
unicode = 230;
},
{
glyphname = b;
kernLeft = l;
kernRight = b;
lastChange = "2023-08-03 12:05:51 +0000";
layers = (
{
anchors = (
{
name = bottom;
pos = (297,-11);
}
);
hints = (
{
horizontal = 1;
origin = (0,16);
target = (1,11);
type = Stem;
},
{
horizontal = 1;
origin = (0,5);
target = (1,5);
type = Stem;
},
{
horizontal = 1;
origin = (0,11);
target = (1,11);
type = Stem;
},
{
origin = (0,11);
target = (1,2);
type = Stem;
},
{
origin = (1,8);
target = (0,2);
type = Stem;
},
{
origin = (0,11);
target = (0,8);
type = Stem;
},
{
origin = (0,11);
target = (0,12);
type = Stem;
}
);
layerId = master01;
shapes = (
{
closed = 1;
nodes = (
(428,-12,o),
(536,81,o),
(560,250,cs),
(583,414,o),
(507,512,o),
(376,512,cs),
(307,512,o),
(228,473,o),
(198,404,c),
(242,720,l),
(158,720,l),
(57,0,l),
(138,0,l),
(152,98,l),
(165,43,o),
(209,-12,o),
(297,-12,cs)
);
},
{
closed = 1;
nodes = (
(205,63,o),
(162,140,o),
(177,250,cs),
(191,352,o),
(257,435,o),
(353,436,cs),
(454,437,o),
(490,352,o),
(476,248,cs),
(461,144,o),
(402,63,o),
(304,63,cs)
);
}
);
width = 614;
},
{
associatedMasterId = master01;
hints = (
{
horizontal = 1;
origin = (1,11);
target = (0,5);
type = Stem;
},
{
horizontal = 1;
origin = (1,5);
target = (0,11);
type = Stem;
},
{
horizontal = 1;
origin = (1,11);
target = (0,5);
type = Stem;
},
{
origin = (1,8);
target = (0,8);
type = Stem;
},
{
origin = (0,2);
target = (1,2);
type = Stem;
},
{
origin = (1,8);
target = (0,8);
type = Stem;
}
);
layerId = "67A6802E-0ADA-4E35-B6DE-2FB806E7B19C";
name = "21 Jul 21, 11:33";
shapes = (
{
closed = 1;
nodes = (
(419,436,o),
(473,339,o),
(473,252,cs),
(473,165,o),
(421,64,o),
(327,64,c),
(231,64,o),
(173,165,o),
(173,252,cs),
(173,339,o),
(223,436,o),
(321,436,c)
);
},
{
closed = 1;
nodes = (
(460,-13,o),
(576,81,o),
(576,250,cs),
(576,414,o),
(465,512,o),
(336,512,c),
(207,512,o),
(92,412,o),
(92,248,cs),
(92,79,o),
(202,-13,o),
(331,-13,c)
);
}
);
width = 613;
}
);
unicode = 98;
},
{
glyphname = c;
kernLeft = c;
kernRight = c;
lastChange = "2023-08-03 09:41:05 +0000";
layers = (
{
anchors = (
{
name = bottom;
pos = (255,-13);
},
{
name = top;
pos = (330,521);
}
);
layerId = master01;
shapes = (
{
closed = 1;
nodes = (
(341,-13,o),
(425,35,o),
(471,118,c),
(400,148,l),
(371,97,o),
(324,63,o),
(264,63,c),
(163,63,o),
(124,147,o),
(138,251,cs),
(153,355,o),
(215,436,o),
(316,436,c),
(376,436,o),
(414,402,o),
(428,351,c),
(508,381,l),
(485,464,o),
(417,512,o),
(329,512,c),
(203,512,o),
(77,412,o),
(54,248,cs),
(31,87,o),
(129,-13,o),
(255,-13,c)
);
}
);
width = 536;
},
{
associatedMasterId = master01;
layerId = "D5044F65-6BC5-444E-BECC-015FB8AF7D9F";
name = foreground;
shapes = (
{
closed = 1;
nodes = (
(150,338,o),
(200,429,o),
(294,429,c),
(356,429,o),
(397,384,o),
(413,331,c),
(502,360,l),
(479,465,o),
(389,512,o),
(293,512,c),
(162,512,o),
(50,421,o),
(50,251,c),
(50,81,o),
(162,-12,o),
(293,-12,c),
(389,-12,o),
(481,38,o),
(506,147,c),
(417,176,l),
(401,123,o),
(356,72,o),
(294,72,c),
(200,72,o),
(150,164,o),
(150,250,c)
);
}
);
width = 550;
},
{
associatedMasterId = master01;
layerId = "5E179671-36B7-481B-ACDA-F3411599AAD9";
name = "22 Jul 21, 10:29";
shapes = (
{
closed = 1;
nodes = (
(54,87,o),
(166,-13,o),
(292,-13,c),
(380,-13,o),
(457,35,o),
(492,118,c),
(416,148,l),
(395,97,o),
(350,63,o),
(290,63,c),
(189,63,o),
(137,147,o),
(137,251,cs),
(137,355,o),
(189,436,o),
(290,436,c),
(350,436,o),
(395,402,o),
(416,351,c),
(492,381,l),
(457,464,o),
(380,512,o),
(292,512,c),
(166,512,o),
(54,412,o),
(54,248,cs)
);
}
);
width = 536;
}
);
unicode = 99;
},
{
glyphname = d;
kernLeft = d;
kernRight = d;
lastChange = "2023-08-03 12:06:21 +0000";
layers = (
{
anchors = (
{
name = bottom;
pos = (256,0);
},
{
name = center;
pos = (314,250);
},
{
name = top;
pos = (423,720);
},
{
name = topright;
pos = (657,720);
}
);
layerId = master01;
shapes = (
{
closed = 1;
nodes = (
(331,-12,o),
(391,43,o),
(421,98,c),
(411,27,o),
(446,-1,o),
(498,-1,cs),
(523,-1,o),
(536,3,o),
(551,11,c),
(561,79,l),
(510,68,o),
(499,86,o),
(505,126,cs),
(587,712,l),
(503,712,l),
(460,404,l),
(448,473,o),
(381,512,o),
(312,512,cs),
(181,512,o),
(77,414,o),
(54,250,cs),
(30,81,o),
(112,-12,o),
(243,-12,cs)
);
},
{
closed = 1;
nodes = (
(160,63,o),
(123,144,o),
(138,248,cs),
(152,352,o),
(212,436,o),
(313,436,cs),
(409,436,o),
(451,352,o),
(437,250,cs),
(422,140,o),
(357,63,o),
(258,63,cs)
);
}
);
width = 627;
},
{
associatedMasterId = master01;
layerId = "7399E59F-C8CF-444F-A145-6D2B7F7CF480";
name = foreground;
shapes = (
{
closed = 1;
nodes = (
(397,426,o),
(440,339,o),
(440,252,cs),
(440,165,o),
(391,75,o),
(299,75,c),
(205,75,o),
(156,165,o),
(156,252,cs),
(156,339,o),
(203,426,o),
(299,426,c)
);
},
{
closed = 1;
nodes = (
(443,62,o),
(477,2,o),
(536,1,cs),
(578,0,o),
(614,18,o),
(614,18,c),
(614,18,o),
(614,101,o),
(614,101,cs),
(564,90,o),
(537,105,o),
(537,150,c),
(537,720,l),
(437,720,l),
(437,422,l),
(414,475,o),
(343,512,o),
(274,512,c),
(141,512,o),
(54,397,o),
(54,250,cs),
(54,123,o),
(122,-12,o),
(274,-11,c),
(349,-11,o),
(419,25,o),
(444,101,c)
);
}
);
width = 664;
}
);
unicode = 100;
},
{
glyphname = eth;
kernLeft = d;
kernRight = d;
lastChange = "2023-08-03 09:41:05 +0000";
layers = (
{
layerId = master01;
shapes = (
{
closed = 1;
nodes = (
(365,-12,o),
(487,78,o),
(515,250,cs),
(537,388,o),
(540,617,o),
(251,738,c),
(202,677,l),
(323,636,o),
(415,526,o),
(421,470,c),
(400,507,o),
(329,512,o),
(319,512,cs),
(199,512,o),
(78,422,o),
(54,250,cs),
(30,78,o),
(125,-12,o),
(245,-12,cs)
);
},
{
closed = 1;
nodes = (
(160,64,o),
(119,133,o),
(135,250,cs),
(151,367,o),
(212,436,o),
(308,436,cs),
(405,436,o),
(449,367,o),
(433,250,cs),
(417,133,o),
(353,64,o),
(256,64,cs)
);
},
{
closed = 1;
nodes = (
(507,644,l),
(494,701,l),
(181,597,l),
(195,540,l)
);
}
);
width = 569;
}
);
unicode = 240;
},
{
glyphname = dcroat;
kernLeft = d;
kernRight = d;
lastChange = "2023-08-03 09:41:05 +0000";
layers = (
{
layerId = master01;
shapes = (
{
closed = 1;
nodes = (
(634,582,l),
(643,650,l),
(350,650,l),
(341,582,l)
);
},
{
ref = d;
}
);
width = 627;
}
);
unicode = 273;
},
{
glyphname = e;
kernLeft = e;
kernRight = e;
lastChange = "2023-08-03 09:41:05 +0000";
layers = (
{
anchors = (
{
name = bottom;
pos = (254,-13);
},
{
name = top;
pos = (328,515);
}
);
hints = (
{
horizontal = 1;
origin = (0,28);
target = (0,6);
type = Stem;
},
{
horizontal = 1;
origin = (0,17);
target = (0,15);
type = Stem;
},
{
horizontal = 1;
origin = (0,22);
target = (0,12);
type = Stem;
},
{
origin = (0,25);
target = (0,9);
type = Stem;
},
{
origin = (0,15);
target = (0,18);
type = Stem;
}
);
layerId = master01;
shapes = (
{
closed = 1;
nodes = (
(355,-13,o),
(431,30,o),
(484,113,c),
(414,143,l),
(379,92,o),
(323,63,o),
(263,63,c),
(162,63,o),
(122,141,o),
(136,245,cs),
(151,349,o),
(214,436,o),
(315,436,c),
(412,436,o),
(450,360,o),
(443,304,c),
(142,304,l),
(131,230,l),
(516,230,l),
(521,261,l),
(545,434,o),
(455,512,o),
(328,512,c),
(202,512,o),
(77,412,o),
(54,248,cs),
(31,87,o),
(128,-13,o),
(254,-13,c)
);
}
);
width = 569;
},
{
associatedMasterId = master01;
layerId = "169FF446-F214-45AF-87EB-12250BF5A1D5";
name = foreground;
visible = 1;
width = 543;
},
{
associatedMasterId = master01;
layerId = "E0E72D27-D989-452C-96DA-744C8CBAEC4B";
name = "10 Jul 21, 15:30";
shapes = (
{
closed = 1;
nodes = (
(41,87,o),
(153,-13,o),
(279,-13,c),
(367,-13,o),
(444,35,o),
(479,118,c),
(403,148,l),
(382,97,o),
(337,63,o),
(277,63,c),
(176,63,o),
(124,147,o),
(124,251,cs),
(124,355,o),
(176,436,o),
(277,436,c),
(337,436,o),
(382,402,o),
(403,351,c),
(479,381,l),
(444,464,o),
(367,512,o),
(279,512,c),
(153,512,o),
(41,412,o),
(41,248,cs)
);
},
{
closed = 1;
nodes = (
(406,-13,o),
(521,81,o),
(521,250,cs),
(521,414,o),
(411,512,o),
(283,512,c),
(156,512,o),
(42,412,o),
(42,248,cs),
(42,79,o),
(151,-13,o),
(278,-13,c)
);
},
{
closed = 1;
nodes = (
(377,435,o),
(437,352,o),
(437,250,cs),
(437,140,o),
(377,63,o),
(278,63,c),
(179,63,o),
(126,144,o),
(126,248,cs),
(126,352,o),
(179,436,o),
(281,436,c)
);
}
);
visible = 1;
width = 543;
}
);
unicode = 101;
},
{
glyphname = eogonek;
kernLeft = e;
kernRight = e;
lastChange = "2023-08-03 09:41:05 +0000";
layers = (
{
layerId = master01;
shapes = (
{
closed = 1;
nodes = (
(402,-197,o),
(435,-193,o),
(453,-182,c),
(463,-112,l),
(419,-133,o),
(366,-124,o),
(374,-68,cs),
(381,-18,o),
(444,58,o),
(484,113,c),
(371,33,l),
(349,21,o),
(303,-33,o),
(296,-83,cs),
(288,-140,o),
(318,-197,o),
(389,-197,cs)
);
},
{
ref = e;
}
);
width = 569;
}
);
unicode = 281;
},
{
glyphname = f;
kernLeft = f;
kernRight = f;
lastChange = "2023-08-03 09:41:05 +0000";
layers = (
{
hints = (
{
horizontal = 1;
origin = (0,20);
target = (0,21);
type = Stem;
},
{
horizontal = 1;
origin = (0,11);
target = (0,15);
type = Stem;
},
{
origin = (0,23);
target = (0,0);
type = Stem;
}
);
layerId = master01;
shapes = (
{
closed = 1;
nodes = (
(192,0,l),
(251,424,l),
(379,424,l),
(390,500,l),
(262,500,l),
(273,575,ls),
(280,629,o),
(310,648,o),
(359,648,cs),
(372,648,o),
(390,647,o),
(405,644,c),
(415,712,l),
(399,717,o),
(376,720,o),
(360,720,cs),
(251,720,o),
(202,669,o),
(189,576,cs),
(178,500,l),
(82,500,l),
(71,424,l),
(167,424,l),
(108,0,l)
);
}
);
width = 375;
},
{
associatedMasterId = master01;
layerId = "05947023-CF81-4962-BA32-552EF9D46824";
name = foreground;
shapes = (
{
closed = 1;
nodes = (
(134,409,l),
(134,0,l),
(233,0,l),
(233,409,l),
(365,409,l),
(365,500,l),
(233,500,l),
(232,602,o),
(245,630,o),
(294,635,cs),
(332,639,o),
(364,630,o),
(364,630,c),
(364,720,l),
(349,725,o),
(321,728,o),
(305,728,cs),
(164,728,o),
(134,664,o),
(134,500,c),
(40,500,l),
(40,409,l)
);
}
);
width = 375;
}
);
unicode = 102;
},
{
glyphname = g;
kernLeft = g;
kernRight = g;
lastChange = "2023-08-03 09:41:05 +0000";
layers = (
{
anchors = (
{
name = top;
pos = (317,512);
}
);
layerId = master01;
shapes = (
{
closed = 1;
nodes = (
(344,-232,o),
(462,-171,o),
(488,17,cs),
(556,500,l),
(476,500,l),
(462,402,l),
(449,457,o),
(405,512,o),
(317,512,cs),
(186,512,o),
(78,419,o),
(54,250,cs),
(31,86,o),
(107,-12,o),
(238,-12,cs),
(307,-12,o),
(386,27,o),
(416,96,c),
(405,17,ls),
(389,-96,o),
(334,-156,o),
(224,-156,cs),
(157,-156,o),
(110,-125,o),
(94,-66,c),
(22,-107,l),
(48,-195,o),
(126,-229,o),
(213,-230,cs)
);
},
{
closed = 1;
nodes = (
(160,64,o),
(124,148,o),
(138,252,cs),
(153,356,o),
(212,437,o),
(310,437,cs),
(409,437,o),
(452,360,o),
(437,250,cs),
(423,148,o),
(357,64,o),
(261,64,cs)
);
}
);
width = 607;
},
{
associatedMasterId = master01;
layerId = "79240F66-912C-4E1A-A3E4-4F79DFA0CFDD";
name = foreground;
shapes = (
{
closed = 1;
nodes = (
(394,426,o),
(437,339,o),
(437,252,cs),
(437,165,o),
(392,75,o),
(296,75,c),
(202,75,o),
(160,165,o),
(160,252,cs),
(160,339,o),
(200,426,o),
(296,426,c)
);
},
{
closed = 1;
nodes = (
(534,499,l),
(434,499,l),
(434,422,l),
(411,475,o),
(340,512,o),
(271,512,c),
(138,512,o),
(51,397,o),
(51,250,cs),
(51,123,o),
(119,-13,o),
(271,-12,c),
(346,-12,o),
(406,27,o),
(434,98,c),
(434,5,ls),
(434,-112,o),
(388,-165,o),
(275,-166,cs),
(201,-167,o),
(153,-122,o),
(128,-63,c),
(50,-106,l),
(95,-207,o),
(187,-249,o),
(274,-250,cs),
(390,-252,o),
(534,-200,o),
(534,-12,cs)
);
}
);
width = 614;
}
);
unicode = 103;
},
{
glyphname = h;
kernLeft = l;
kernRight = h;
lastChange = "2023-08-03 12:08:52 +0000";
layers = (
{
hints = (
{
horizontal = 1;
origin = (0,13);
target = (0,4);
type = Stem;
},
{
place = (57,49);
type = Stem;
},
{
place = (386,49);
type = Stem;
}
);
layerId = master01;
shapes = (
{
closed = 1;
nodes = (
(141,0,l),
(179,270,ls),
(192,366,o),
(249,436,o),
(341,436,cs),
(408,436,o),
(449,403,o),
(436,316,cs),
(392,0,l),
(476,0,l),
(522,328,ls),
(539,448,o),
(477,512,o),
(380,512,cs),
(268,512,o),
(212,441,o),
(198,406,c),
(241,712,l),
(157,712,l),
(57,0,l)
);
}
);
width = 597;
},
{
associatedMasterId = master01;
layerId = "CD505587-AC72-48CE-8408-6BA3826A3B3C";
name = foreground;
shapes = (
{
closed = 1;
nodes = (
(185,0,l),
(185,259,ls),
(185,355,o),
(232,425,o),
(314,425,cs),
(371,425,o),
(423,392,o),
(423,306,c),
(423,0,l),
(523,0,l),
(523,328,ls),
(523,448,o),
(439,512,o),
(352,512,cs),
(249,512,o),
(205,455,o),
(185,402,c),
(185,720,l),
(85,720,l),
(85,0,l)
);
}
);
width = 603;
}
);
unicode = 104;
},
{
glyphname = hbar;
kernLeft = h;
kernRight = h;
lastChange = "2023-08-03 09:41:05 +0000";
layers = (
{
layerId = master01;
shapes = (
{
closed = 1;
nodes = (
(404,582,l),
(413,650,l),
(120,650,l),
(111,582,l)
);
},
{
pos = (37,0);
ref = h;
}
);
width = 634;
}
);
unicode = 295;
},
{
glyphname = i;
lastChange = "2023-08-03 13:00:57 +0000";
layers = (
{
anchors = (
{
name = bottom;
pos = (96,0);
},
{
name = top;
pos = (161,500);
}
);
hints = (
{
horizontal = 1;
origin = (0,11);
target = (0,5);
type = Stem;
},
{
origin = (0,3);
target = (0,0);
type = Stem;
},
{
origin = (0,8);
target = (0,2);
type = Stem;
}
);
layerId = master01;
shapes = (
{
closed = 1;
nodes = (
(210,595,o),
(240,622,o),
(245,653,cs),
(249,685,o),
(227,712,o),
(196,712,cs),
(164,712,o),
(133,685,o),
(129,653,cs),
(124,622,o),
(147,595,o),
(179,595,cs)
);
},
{
ref = idotless;
}
);
width = 260;
},
{
associatedMasterId = master01;
layerId = "6625A516-8D1C-4BE4-BEF2-383D9616A379";
name = foreground;
shapes = (
{
closed = 1;
nodes = (
(193,0,l),
(193,500,l),
(93,500,l),
(93,0,l)
);
},
{
closed = 1;
nodes = (
(178,571,o),
(206,600,o),
(206,634,cs),
(206,669,o),
(178,698,o),
(144,698,cs),
(109,698,o),
(80,669,o),
(80,634,cs),
(80,600,o),
(109,571,o),
(144,571,cs)
);
}
);
width = 286;
}
);
unicode = 105;
},
{
glyphname = idotless;
kernLeft = i;
kernRight = I;
lastChange = "2023-08-03 09:41:05 +0000";
layers = (
{
anchors = (
{
name = top;
pos = (166,512);
}
);
layerId = master01;
shapes = (
{
closed = 1;
nodes = (
(137,0,l),
(207,500,l),
(123,500,l),
(53,0,l)
);
}
);
width = 260;
}
);
unicode = 305;
},
{
glyphname = idotaccent;
kernLeft = i;
kernRight = I;
lastChange = "2023-08-03 09:41:05 +0000";
layers = (
{
layerId = master01;
shapes = (
{
closed = 1;
nodes = (
(208,593,o),
(240,622,o),
(245,656,cs),
(250,691,o),
(226,720,o),
(192,720,cs),
(157,720,o),
(124,691,o),
(119,656,cs),
(114,622,o),
(139,593,o),
(174,593,cs)
);
},
{
pos = (-5,0);
ref = idotless;
}
);
width = 260;
}
);
},
{
glyphname = ij;
kernLeft = i;
kernRight = j;
lastChange = "2023-08-03 09:41:05 +0000";
layers = (
{
layerId = master01;
shapes = (
{
closed = 1;
nodes = (
(508,593,o),
(540,622,o),
(545,656,c),
(551,691,o),
(527,720,o),
(492,720,cs),
(457,720,o),
(424,691,o),
(419,656,cs),
(414,622,o),
(439,593,o),
(474,593,cs)
);
},
{
ref = idotaccent;
},
{
pos = (260,0);
ref = jdotless;
}
);
width = 561;
}
);
unicode = 307;
},
{
glyphname = j;
kernLeft = j;
kernRight = j;
lastChange = "2023-08-03 09:41:05 +0000";
layers = (
{
hints = (
{
horizontal = 1;
place = (-284,59);
type = Stem;
},
{
horizontal = 1;
origin = (1,5);
target = (1,11);
type = Stem;
},
{
origin = (1,8);
target = (1,2);
type = Stem;
},
{
origin = (1,8);
target = (1,2);
type = Stem;
}
);
layerId = master01;
shapes = (
{
closed = 1;
nodes = (
(102,-230,o),
(150,-179,o),
(163,-86,cs),
(163,-86,o),
(176,0,o),
(246,500,c),
(162,500,l),
(80,-85,l),
(72,-139,o),
(43,-158,o),
(-6,-158,cs),
(-19,-158,o),
(-37,-157,o),
(-53,-154,c),
(-62,-222,l),
(-46,-227,o),
(-23,-230,o),
(-7,-230,cs)
);
},
{
closed = 1;
nodes = (
(249,593,o),
(281,622,o),
(286,656,cs),
(291,691,o),
(267,720,o),
(233,720,cs),
(198,720,o),
(165,691,o),
(160,656,cs),
(155,622,o),
(180,593,o),
(215,593,cs)
);
}
);
width = 301;
},
{
associatedMasterId = master01;
layerId = "D21705D2-9FF0-49F0-B103-525AAF3570C8";
name = foreground;
shapes = (
{
closed = 1;
nodes = (
(187,593,o),
(215,622,o),
(215,656,cs),
(215,691,o),
(187,720,o),
(153,720,cs),
(118,720,o),
(89,691,o),
(89,656,cs),
(89,622,o),
(118,593,o),
(153,593,cs)
);
},
{
closed = 1;
nodes = (
(106,499,l),
(106,-6,ls),
(106,-108,o),
(94,-152,o),
(41,-156,cs),
(3,-159,o),
(-25,-151,o),
(-25,-151,c),
(-25,-243,l),
(-10,-248,o),
(18,-251,o),
(34,-251,cs),
(175,-251,o),
(205,-176,o),
(205,-12,cs),
(205,499,l)
);
}
);
width = 275;
}
);
unicode = 106;
},
{
glyphname = jdotless;
kernLeft = j;
kernRight = j;
lastChange = "2023-08-03 09:41:05 +0000";
layers = (
{
anchors = (
{
name = top;
pos = (206,512);
}
);
hints = (
{
horizontal = 1;
place = (-284,59);
type = Stem;
},
{
horizontal = 1;
place = (685,-185);
target = (0,6);
type = Stem;
},
{
origin = (0,6);
target = (0,5);
type = Stem;
},
{
origin = (0,6);
target = (0,5);
type = Stem;
}
);
layerId = master01;
shapes = (
{
closed = 1;
nodes = (
(102,-230,o),
(150,-179,o),
(163,-86,cs),
(163,-86,o),
(176,0,o),
(246,500,c),
(162,500,l),
(80,-85,l),
(72,-139,o),
(43,-158,o),
(-6,-158,cs),
(-19,-158,o),
(-37,-157,o),
(-53,-154,c),
(-62,-222,l),
(-46,-227,o),
(-23,-230,o),
(-7,-230,cs)
);
}
);
width = 301;
}
);
unicode = 567;
},
{
glyphname = k;
kernLeft = l;
kernRight = k;
lastChange = "2023-08-03 12:05:26 +0000";
layers = (
{
anchors = (
{
name = bottom;
pos = (242,-12);
}
);
hints = (
{
place = (58,49);
type = Stem;
}
);
layerId = master01;
shapes = (
{
closed = 1;
nodes = (
(242,256,l),
(267,266,l),
(529,500,l),
(425,500,l),
(111,225,l),
(98,131,l)
);
},
{
closed = 1;
nodes = (
(141,0,l),
(241,712,l),
(157,712,l),
(57,0,l)
);
},
{
closed = 1;
nodes = (
(475,0,l),
(288,302,l),
(215,249,l),
(369,0,l)
);
}
);
width = 525;
},
{
associatedMasterId = master01;
layerId = "45831B20-6849-4EF6-BE83-8DDAD9BE09E7";
name = foreground;
shapes = (
{
closed = 1;
nodes = (
(804,256,l),
(828,266,l),
(1049,500,l),
(941,500,l),
(681,225,l),
(686,131,l)
);
},
{
closed = 1;
nodes = (
(747,0,l),
(747,712,l),
(663,712,l),
(663,0,l)
);
},
{
closed = 1;
nodes = (
(1069,0,l),
(840,302,l),
(778,249,l),
(967,0,l)
);
}
);
width = 537;
},
{
associatedMasterId = master01;
hints = (
{
horizontal = 1;
origin = (0,8);
target = (0,1);
type = Stem;
},
{
origin = (0,9);
target = (0,10);
type = Stem;
}
);
layerId = "F5153F53-BD19-4DEE-BBF1-244D87F5AFFD";
name = "22 Jul 21, 10:33";
shapes = (
{
closed = 1;
nodes = (
(210,252,l),
(395,-1,l),
(498,-1,l),
(267,308,l),
(479,500,l),
(371,500,l),
(177,325,l),
(176,712,l),
(92,712,l),
(93,0,l),
(177,0,l),
(177,223,l)
);
},
{
closed = 1;
nodes = (
(219,252,l),
(409,-1,l),
(528,-1,l),
(291,315,l),
(503,500,l),
(365,500,l),
(186,344,l),
(186,720,l),
(86,720,l),
(86,0,l),
(186,0,l),
(186,223,l)
);
}
);
width = 513;
}
);
unicode = 107;
},
{
glyphname = l;
kernLeft = l;
kernRight = l;
lastChange = "2023-08-03 12:51:49 +0000";
layers = (
{
anchors = (
{
name = bottom;
pos = (94,0);
},
{
name = center;
pos = (177,360);
},
{
name = top;
pos = (183,720);
},
{
name = topright;
pos = (281,720);
}
);
hints = (
{
horizontal = 1;
origin = (0,3);
target = (0,2);
type = Stem;
},
{
origin = (0,3);
target = (0,0);
type = Stem;
}
);
layerId = master01;
shapes = (
{
closed = 1;
nodes = (
(127,0,l),
(227,712,l),
(143,712,l),
(43,0,l)
);
}
);
width = 258;
},
{
associatedMasterId = master01;
layerId = "9184F1DE-F07E-494E-9C47-EEC1A903CA2E";
name = foreground;
shapes = (
{
closed = 1;
nodes = (
(180,0,l),
(180,720,l),
(80,720,l),
(80,0,l)
);
}
);
width = 260;
}
);
unicode = 108;
},
{
glyphname = lslash;
kernLeft = l;
kernRight = l;
lastChange = "2023-08-03 12:52:18 +0000";
layers = (
{
layerId = master01;
shapes = (
{
closed = 1;
nodes = (
(357,373,l),
(331,437,l),
(40,294,l),
(65,229,l)
);
},
{
pos = (66,0);
ref = l;
}
);
width = 383;
}
);
unicode = 322;
},
{
glyphname = m;
kernLeft = m;
kernRight = m;
lastChange = "2023-08-03 09:41:05 +0000";
layers = (
{
anchors = (
{
name = bottom;
pos = (434,1);
}
);
layerId = master01;
shapes = (
{
closed = 1;
nodes = (
(141,0,l),
(179,270,ls),
(192,366,o),
(249,436,o),
(341,436,cs),
(408,436,o),
(449,403,o),
(436,316,cs),
(392,0,l),
(476,0,l),
(522,328,ls),
(539,448,o),
(477,512,o),
(380,512,cs),
(268,512,o),
(212,441,o),
(198,406,c),
(211,500,l),
(127,500,l),
(57,0,l)
);
},
{
closed = 1;
nodes = (
(476,0,l),
(514,270,ls),
(527,366,o),
(584,436,o),
(676,436,cs),
(743,436,o),
(784,403,o),
(771,316,cs),
(727,0,l),
(811,0,l),
(857,328,ls),
(874,448,o),
(812,512,o),
(715,512,cs),
(603,512,o),
(537,433,o),
(523,398,c),
(459,0,l)
);
}
);
width = 934;
},
{
associatedMasterId = master01;
layerId = "2AB4FA2C-6E87-475E-BC95-C87BA88E814C";
name = foreground;
shapes = (
{
closed = 1;
nodes = (
(524,355,o),
(571,425,o),
(653,425,cs),
(710,425,o),
(762,392,o),
(762,306,c),
(762,0,l),
(862,0,l),
(862,328,ls),
(862,448,o),
(778,512,o),
(691,512,cs),
(589,512,o),
(535,445,o),
(514,392,c),
(490,471,o),
(422,512,o),
(352,512,cs),
(249,512,o),
(205,455,o),
(185,402,c),
(185,501,l),
(85,501,l),
(85,0,l),
(185,0,l),
(185,259,ls),
(185,355,o),
(232,425,o),
(314,425,cs),
(371,425,o),
(423,392,o),
(423,306,c),
(423,0,l),
(524,0,l),
(524,259,ls)
);
}
);
width = 942;
}
);
unicode = 109;
},
{
glyphname = n;
kernLeft = n;
kernRight = n;
lastChange = "2023-08-03 09:41:05 +0000";
layers = (
{
anchors = (
{
name = bottom;
pos = (274,0);
},
{
name = top;
pos = (354,525);
}
);
hints = (
{
origin = (0,19);
target = (0,0);
type = Stem;
},
{
origin = (0,8);
target = (0,9);
type = Stem;
}
);
layerId = master01;
shapes = (
{
closed = 1;
nodes = (
(141,0,l),
(179,270,ls),
(192,366,o),
(249,436,o),
(341,436,cs),
(408,436,o),
(449,403,o),
(436,316,cs),
(392,0,l),
(476,0,l),
(522,328,ls),
(539,448,o),
(477,512,o),
(380,512,cs),
(268,512,o),
(212,441,o),
(198,406,c),
(211,500,l),
(127,500,l),
(57,0,l)
);
}
);
width = 597;
},
{
associatedMasterId = master01;
layerId = "9DAFEF19-BC7E-4592-BC8A-958FBEEA9065";
name = foreground;
shapes = (
{
closed = 1;
nodes = (
(176,500,l),
(92,500,l),
(92,0,l),
(176,0,l),
(176,270,ls),
(176,366,o),
(223,436,o),
(315,436,cs),
(382,436,o),
(421,403,o),
(421,316,cs),
(421,0,l),
(505,0,l),
(505,328,ls),
(505,448,o),
(440,512,o),
(343,512,cs),
(231,512,o),
(163,445,o),
(163,320,c),
(176,320,l)
);
}
);
width = 603;
},
{
associatedMasterId = master01;
layerId = "4E993862-6A8B-4F58-BA63-F4C2183B2AD6";
name = "22 Jul 21, 09:48";
shapes = (
{
closed = 1;
nodes = (
(176,500,l),
(92,500,l),
(92,0,l),
(176,0,l),
(176,270,ls),
(176,366,o),
(223,436,o),
(315,436,cs),
(382,436,o),
(421,403,o),
(421,316,cs),
(421,0,l),
(505,0,l),
(505,328,ls),
(505,448,o),
(440,512,o),
(343,512,cs),
(231,512,o),
(163,445,o),
(163,320,c),
(176,320,l)
);
},
{
closed = 1;
nodes = (
(176,0,l),
(176,259,ls),
(176,355,o),
(228,425,o),
(310,425,cs),
(379,425,o),
(426,392,o),
(426,306,c),
(426,0,l),
(510,0,l),
(510,324,ls),
(510,432,o),
(443,512,o),
(348,512,cs),
(245,512,o),
(196,455,o),
(176,402,c),
(176,500,l),
(92,500,l),
(92,0,l)
);
}
);
width = 603;
},
{
associatedMasterId = master01;
layerId = "093DBDD9-08D0-4671-954B-3775BA1B0BE1";
name = "22 Jul 21, 09:45";
shapes = (
{
closed = 1;
nodes = (
(170,500,l),
(86,500,l),
(86,0,l),
(170,0,l),
(170,270,ls),
(170,366,o),
(217,436,o),
(309,436,cs),
(376,436,o),
(415,403,o),
(415,316,cs),
(415,0,l),
(499,0,l),
(499,328,ls),
(499,448,o),
(434,512,o),
(337,512,cs),
(225,512,o),
(179,441,o),
(170,406,c)
);
}
);
width = 591;
},
{
associatedMasterId = master01;
layerId = "47444D12-A43B-4A04-A14E-0473975F487A";
name = "22 Jul 21, 09:45";
shapes = (
{
closed = 1;
nodes = (
(176,500,l),
(92,500,l),
(92,0,l),
(176,0,l),
(176,270,ls),
(176,366,o),
(223,436,o),
(315,436,cs),
(382,436,o),
(421,403,o),
(421,316,cs),
(421,0,l),
(505,0,l),
(505,328,ls),
(505,448,o),
(440,512,o),
(343,512,cs),
(231,512,o),
(163,445,o),
(163,320,c),
(176,320,l)
);
}
);
width = 603;
}
);
unicode = 110;
},
{
glyphname = nhookleft;
kernLeft = n;
kernRight = n;
lastChange = "2023-08-03 09:41:05 +0000";
layers = (
{
layerId = master01;
shapes = (
{
closed = 1;
nodes = (
(71,-188,o),
(122,-137,o),
(135,-44,cs),
(179,270,ls),
(192,366,o),
(249,436,o),
(341,436,cs),
(408,436,o),
(449,403,o),
(436,316,cs),
(392,1,l),
(476,1,l),
(522,328,ls),
(539,448,o),
(477,512,o),
(380,512,cs),
(268,512,o),
(212,441,o),
(198,406,c),
(211,500,l),
(127,500,l),
(51,-43,ls),
(43,-97,o),
(13,-116,o),
(-36,-116,cs),
(-49,-116,o),
(-66,-115,o),
(-82,-112,c),
(-91,-180,l),
(-75,-185,o),
(-54,-188,o),
(-38,-188,cs)
);
}
);
width = 600;
}
);
unicode = 626;
},
{
glyphname = nhookretroflex;
kernLeft = n;
kernRight = n;
lastChange = "2023-08-03 09:41:05 +0000";
layers = (
{
layerId = master01;
shapes = (
{
closed = 1;
nodes = (
(531,-188,o),
(554,-185,o),
(572,-180,c),
(581,-112,l),
(565,-115,o),
(548,-116,o),
(535,-116,cs),
(486,-116,o),
(462,-97,o),
(470,-43,cs),
(522,328,ls),
(539,448,o),
(477,512,o),
(380,512,cs),
(268,512,o),
(212,441,o),
(198,406,c),
(211,500,l),
(127,500,l),
(57,0,l),
(141,0,l),
(179,270,ls),
(192,366,o),
(249,436,o),
(341,436,cs),
(408,436,o),
(449,403,o),
(436,316,cs),
(386,-44,ls),
(373,-137,o),
(406,-188,o),
(515,-188,cs)
);
}
);
width = 600;
}
);
unicode = 627;
},
{
glyphname = nmacronbelow;
kernLeft = n;
kernRight = n;
lastChange = "2023-08-03 09:41:05 +0000";
layers = (
{
anchors = (
{
name = bottom;
pos = (280,0);
}
);
layerId = master01;
shapes = (
{
closed = 1;
nodes = (
(141,0,l),
(179,270,ls),
(192,366,o),
(249,436,o),
(341,436,cs),
(408,436,o),
(449,403,o),
(436,316,cs),
(392,0,l),
(476,0,l),
(522,328,ls),
(539,448,o),
(477,512,o),
(380,512,cs),
(268,512,o),
(212,441,o),
(198,406,c),
(211,500,l),
(127,500,l),
(57,0,l)
);
},
{
ref = macronbelowcomb;
}
);
width = 600;
}
);
unicode = 7753;
},
{
glyphname = eng;
kernLeft = n;
kernRight = n;
lastChange = "2023-08-03 09:41:05 +0000";
layers = (
{
layerId = master01;
shapes = (
{
closed = 1;
nodes = (
(406,-188,o),
(457,-137,o),
(470,-44,cs),
(522,328,ls),
(539,448,o),
(477,512,o),
(380,512,cs),
(268,512,o),
(212,441,o),
(198,406,c),
(211,500,l),
(127,500,l),
(57,0,l),
(141,0,l),
(179,270,ls),
(192,366,o),
(249,436,o),
(341,436,cs),
(408,436,o),
(449,403,o),
(436,316,cs),
(386,-43,ls),
(378,-97,o),
(348,-116,o),
(299,-116,cs),
(286,-116,o),
(268,-115,o),
(252,-112,c),
(243,-180,l),
(259,-185,o),
(281,-188,o),
(297,-188,cs)
);
}
);
width = 600;
}
);
unicode = 331;
},
{
glyphname = o;
kernLeft = o;
kernRight = o;
lastChange = "2023-08-03 09:41:05 +0000";
layers = (
{
anchors = (
{
name = bottom;
pos = (253,-12);
},
{
name = top;
pos = (327,516);
}
);
hints = (
{
horizontal = 1;
origin = (0,11);
target = (1,11);
type = Stem;
},
{
horizontal = 1;
origin = (0,5);
target = (1,5);
type = Stem;
},
{
origin = (0,8);
target = (1,2);
type = Stem;
},
{
origin = (1,8);
target = (0,2);
type = Stem;
}
);
layerId = master01;
shapes = (
{
closed = 1;
nodes = (
(377,-12,o),
(502,78,o),
(526,250,cs),
(550,422,o),
(451,512,o),
(327,512,cs),
(203,512,o),
(78,422,o),
(54,250,cs),
(30,78,o),
(129,-12,o),
(253,-12,cs)
);
},
{
closed = 1;
nodes = (
(164,64,o),
(122,133,o),
(138,250,cs),
(154,367,o),
(216,436,o),
(316,436,cs),
(416,436,o),
(458,367,o),
(442,250,cs),
(426,133,o),
(364,64,o),
(264,64,cs)
);
}
);
width = 580;
},
{
associatedMasterId = master01;
layerId = "75CEC0A4-E86C-4BAB-AB20-41EC8FFB0C18";
name = foreground;
shapes = (
{
closed = 1;
nodes = (
(422,-13,o),
(540,81,o),
(540,250,cs),
(540,414,o),
(427,512,o),
(296,512,c),
(165,512,o),
(48,412,o),
(48,248,cs),
(48,79,o),
(160,-13,o),
(291,-13,c)
);
},
{
closed = 1;
nodes = (
(389,426,o),
(436,338,o),
(436,250,cs),
(436,164,o),
(384,72,o),
(291,72,c),
(197,72,o),
(149,162,o),
(149,248,cs),
(149,336,o),
(198,426,o),
(294,426,c)
);
}
);
width = 587;
}
);
unicode = 111;
},
{
glyphname = ohorn;
kernLeft = o;
kernRight = o;
lastChange = "2023-08-03 09:41:05 +0000";
layers = (
{
anchors = (
{
name = top;
pos = (327,516);
}
);
hints = (
{
horizontal = 1;
origin = (0,11);
target = (1,11);
type = Stem;
},
{
horizontal = 1;
origin = (2,9);
target = (1,5);
type = Stem;
},
{
origin = (0,8);
target = (1,2);
type = Stem;
},
{
origin = (1,8);
target = (0,2);
type = Stem;
}
);
layerId = master01;
shapes = (
{
closed = 1;
nodes = (
(377,-12,o),
(502,78,o),
(526,250,cs),
(550,422,o),
(451,512,o),
(327,512,cs),
(203,512,o),
(78,422,o),
(54,250,cs),
(30,78,o),
(129,-12,o),
(253,-12,cs)
);
},
{
closed = 1;
nodes = (
(164,64,o),
(122,133,o),
(138,250,cs),
(154,367,o),
(216,436,o),
(316,436,cs),
(416,436,o),
(458,367,o),
(442,250,cs),
(426,133,o),
(364,64,o),
(264,64,cs)
);
},
{
closed = 1;
nodes = (
(583,453,o),
(602,553,o),
(593,604,c),
(520,599,l),
(525,563,o),
(519,509,o),
(456,507,cs),
(396,505,o),
(383,515,o),
(321,512,c),
(340,480,l),
(366,480,o),
(367,453,o),
(471,453,cs)
);
}
);
width = 580;
}
);
unicode = 417;
},
{
glyphname = ohornacute;
kernLeft = o;
kernRight = o;
lastChange = "2023-08-03 09:41:05 +0000";
layers = (
{
layerId = master01;
shapes = (
{
closed = 1;
nodes = (
(377,-12,o),
(502,78,o),
(526,250,cs),
(550,422,o),
(451,512,o),
(327,512,cs),
(203,512,o),
(78,422,o),
(54,250,cs),
(30,78,o),
(129,-12,o),
(253,-12,cs)
);
},
{
closed = 1;
nodes = (
(164,64,o),
(122,133,o),
(138,250,cs),
(154,367,o),
(216,436,o),
(316,436,cs),
(416,436,o),
(458,367,o),
(442,250,cs),
(426,133,o),
(364,64,o),
(264,64,cs)
);
},
{
closed = 1;
nodes = (
(583,453,o),
(602,553,o),
(593,604,c),
(520,599,l),
(525,563,o),
(519,509,o),
(456,507,cs),
(396,505,o),
(383,515,o),
(321,512,c),
(340,480,l),
(366,480,o),
(367,453,o),
(471,453,cs)
);
},
{
pos = (223,0);
ref = acutecomb;
}
);
width = 600;
}
);
unicode = 7899;
},
{
glyphname = oslash;
kernLeft = o;
kernRight = o;
lastChange = "2023-08-03 09:41:05 +0000";
layers = (
{
layerId = master01;
shapes = (
{
closed = 1;
nodes = (
(568,500,l),
(518,546,l),
(11,0,l),
(58,-48,l)
);
},
{
ref = o;
}
);
width = 580;
}
);
unicode = 248;
},
{
glyphname = oe;
kernLeft = o;
kernRight = e;
lastChange = "2023-08-03 09:41:05 +0000";
layers = (
{
layerId = master01;
shapes = (
{
closed = 1;
nodes = (
(752,-13,o),
(828,30,o),
(881,113,c),
(811,143,l),
(776,92,o),
(720,63,o),
(660,63,c),
(559,63,o),
(511,141,o),
(525,245,cs),
(540,349,o),
(611,436,o),
(712,436,c),
(809,436,o),
(847,360,o),
(840,304,c),
(531,304,l),
(520,230,l),
(913,230,l),
(918,261,l),
(942,434,o),
(852,512,o),
(725,512,c),
(599,512,o),
(466,412,o),
(443,248,cs),
(420,87,o),
(525,-13,o),
(651,-13,c)
);
},
{
closed = 1;
nodes = (
(377,-12,o),
(502,78,o),
(526,250,cs),
(550,422,o),
(451,512,o),
(327,512,cs),
(203,512,o),
(78,422,o),
(54,250,cs),
(30,78,o),
(129,-12,o),
(253,-12,cs)
);
},
{
closed = 1;
nodes = (
(164,64,o),
(122,133,o),
(138,250,cs),
(154,367,o),
(216,436,o),
(316,436,cs),
(416,436,o),
(458,367,o),
(442,250,cs),
(426,133,o),
(364,64,o),
(264,64,cs)
);
}
);
width = 958;
}
);
unicode = 339;
},
{
glyphname = p;
kernLeft = p;
kernRight = p;
lastChange = "2023-08-03 09:41:05 +0000";
layers = (
{
layerId = master01;
shapes = (
{
closed = 1;
nodes = (
(109,-230,l),
(154,96,l),
(166,27,o),
(233,-12,o),
(302,-12,cs),
(433,-12,o),
(537,86,o),
(560,250,cs),
(584,419,o),
(502,512,o),
(371,512,cs),
(283,512,o),
(223,457,o),
(194,402,c),
(208,500,l),
(127,500,l),
(25,-230,l)
);
},
{
closed = 1;
nodes = (
(205,65,o),
(163,148,o),
(177,250,cs),
(192,360,o),
(257,437,o),
(356,437,cs),
(454,437,o),
(491,356,o),
(476,252,cs),
(462,148,o),
(402,63,o),
(301,64,cs)
);
}
);
width = 614;
},
{
associatedMasterId = master01;
layerId = "111F6626-3440-438D-AC91-776452057215";
name = foreground;
shapes = (
{
closed = 1;
nodes = (
(226,74,o),
(183,161,o),
(183,248,cs),
(183,335,o),
(228,425,o),
(324,425,c),
(418,425,o),
(467,335,o),
(467,248,cs),
(467,161,o),
(420,74,o),
(324,74,c)
);
},
{
closed = 1;
nodes = (
(482,-11,o),
(569,103,o),
(569,250,cs),
(569,377,o),
(501,513,o),
(349,512,c),
(274,512,o),
(214,473,o),
(186,402,c),
(186,500,l),
(86,500,l),
(86,-249,l),
(186,-249,l),
(186,78,l),
(209,25,o),
(280,-11,o),
(349,-11,c)
);
}
);
width = 624;
}
);
unicode = 112;
},
{
glyphname = thorn;
kernLeft = p;
kernRight = p;
lastChange = "2023-08-03 09:41:05 +0000";
layers = (
{
layerId = master01;
shapes = (
{
closed = 1;
nodes = (
(109,-230,l),
(154,96,l),
(166,27,o),
(233,-12,o),
(302,-12,cs),
(433,-12,o),
(537,86,o),
(560,250,cs),
(584,419,o),
(502,512,o),
(371,512,cs),
(283,512,o),
(223,457,o),
(194,402,c),
(238,712,l),
(157,712,l),
(25,-230,l)
);
},
{
closed = 1;
nodes = (
(205,65,o),
(163,148,o),
(177,250,cs),
(192,360,o),
(257,437,o),
(356,437,cs),
(454,437,o),
(491,356,o),
(476,252,cs),
(462,148,o),
(402,63,o),
(301,64,cs)
);
}
);
width = 614;
}
);
unicode = 254;
},
{
glyphname = q;
kernLeft = q;
kernRight = q;
lastChange = "2023-08-03 09:41:05 +0000";
layers = (
{
layerId = master01;
shapes = (
{
closed = 1;
nodes = (
(490,-230,o),
(503,-226,o),
(518,-218,c),
(528,-150,l),
(477,-161,o),
(466,-143,o),
(471,-103,cs),
(556,500,l),
(476,500,l),
(462,402,l),
(449,457,o),
(405,512,o),
(317,512,cs),
(186,512,o),
(78,419,o),
(54,250,cs),
(31,86,o),
(107,-12,o),
(238,-12,cs),
(307,-12,o),
(386,27,o),
(416,96,c),
(385,-124,ls),
(374,-204,o),
(413,-230,o),
(465,-230,cs)
);
},
{
closed = 1;
nodes = (
(160,64,o),
(124,148,o),
(138,252,cs),
(153,356,o),
(212,437,o),
(310,437,cs),
(409,437,o),
(452,360,o),
(437,250,cs),
(423,148,o),
(357,64,o),
(261,64,cs)
);
}
);
width = 624;
},
{
associatedMasterId = master01;
layerId = "5B836CBD-5A05-4F3B-A39F-8D74CF5805A4";
name = foreground;
shapes = (
{
closed = 1;
nodes = (
(443,-207,o),
(486,-247,o),
(536,-248,cs),
(578,-249,o),
(620,-231,o),
(620,-231,c),
(620,-231,o),
(620,-148,o),
(620,-148,cs),
(570,-159,o),
(543,-144,o),
(543,-99,c),
(543,500,l),
(443,500,l),
(443,402,l),
(415,473,o),
(353,512,o),
(278,512,c),
(126,513,o),
(60,377,o),
(60,250,cs),
(60,103,o),
(147,-11,o),
(280,-11,c),
(349,-11,o),
(420,25,o),
(443,78,c),
(443,-140,l)
);
},
{
closed = 1;
nodes = (
(209,74,o),
(162,161,o),
(162,248,cs),
(162,335,o),
(211,425,o),
(305,425,c),
(401,425,o),
(446,335,o),
(446,248,cs),
(446,161,o),
(403,74,o),
(305,74,c)
);
}
);
width = 630;
}
);
unicode = 113;
},
{
glyphname = r;
kernLeft = r;
kernRight = r;
lastChange = "2023-08-03 09:41:05 +0000";
layers = (
{
anchors = (
{
name = bottom;
pos = (99,0);
},
{
name = top;
pos = (246,527);
}
);
hints = (
{
horizontal = 1;
origin = (0,11);
target = (0,4);
type = Stem;
},
{
horizontal = 1;
origin = (0,16);
target = (0,4);
type = Stem;
},
{
origin = (0,17);
target = (0,0);
type = Stem;
}
);
layerId = master01;
shapes = (
{
closed = 1;
nodes = (
(141,0,l),
(179,270,ls),
(192,366,o),
(245,420,o),
(328,436,cs),
(354,441,o),
(388,436,o),
(407,430,c),
(418,508,l),
(409,509,o),
(386,512,o),
(376,512,cs),
(273,512,o),
(225,454,o),
(197,401,c),
(211,500,l),
(127,500,l),
(57,0,l)
);
}
);
width = 402;
},
{
associatedMasterId = master01;
layerId = "4E6D224B-E0A5-4955-882F-1582C38B5E9B";
name = foreground;
shapes = (
{
closed = 1;
nodes = (
(185,0,l),
(185,258,ls),
(185,354,o),
(230,408,o),
(311,424,cs),
(336,429,o),
(371,424,o),
(391,414,c),
(391,508,l),
(382,509,o),
(358,512,o),
(348,512,cs),
(245,512,o),
(205,454,o),
(185,401,c),
(185,500,l),
(85,500,l),
(85,0,l)
);
},
{
closed = 0;
nodes = (
(378,509,l)
);
}
);
width = 406;
}
);
unicode = 114;
},
{
glyphname = s;
kernLeft = s;
kernRight = s;
lastChange = "2023-08-03 09:41:05 +0000";
layers = (
{
anchors = (
{
name = bottom;
pos = (209,-12);
},
{
name = top;
pos = (281,520);
}
);
layerId = master01;
shapes = (
{
closed = 1;
nodes = (
(348,-12,o),
(421,56,o),
(432,137,cs),
(459,330,o),
(145,253,o),
(161,365,cs),
(167,407,o),
(203,436,o),
(268,436,cs),
(340,436,o),
(373,400,o),
(368,367,c),
(454,367,l),
(463,429,o),
(425,512,o),
(280,512,cs),
(158,512,o),
(87,435,o),
(77,362,cs),
(49,168,o),
(366,270,o),
(347,137,cs),
(340,87,o),
(293,64,o),
(227,64,cs),
(177,64,o),
(118,93,o),
(127,156,c),
(37,156,l),
(23,57,o),
(108,-12,o),
(209,-12,c)
);
}
);
width = 503;
},
{
associatedMasterId = master01;
layerId = "387FA4A7-73FF-4D97-8FCB-952702749138";
name = foreground;
shapes = (
{
closed = 1;
nodes = (
(88,39,o),
(165,-12,o),
(259,-12,cs),
(387,-12,o),
(459,56,o),
(457,137,cs),
(458,190,o),
(442,253,o),
(303,292,cs),
(203,320,o),
(164,339,o),
(163,380,cs),
(163,416,o),
(202,436,o),
(263,436,cs),
(314,436,o),
(352,413,o),
(365,373,c),
(440,408,l),
(416,470,o),
(360,512,o),
(266,512,cs),
(140,512,o),
(78,445,o),
(78,372,cs),
(78,310,o),
(99,266,o),
(205,233,cs),
(288,207,o),
(371,191,o),
(371,132,cs),
(371,82,o),
(317,65,o),
(266,65,cs),
(207,65,o),
(155,92,o),
(139,155,c),
(134,155,l),
(59,118,l)
);
}
);
width = 494;
},
{
associatedMasterId = master01;
layerId = "7E27A0BC-C66B-4AEC-96DE-E66ACE9A3214";
name = "21 Jul 21, 11:57";
shapes = (
{
closed = 1;
nodes = (
(65,56,o),
(151,-12,o),
(249,-12,c),
(387,-12,o),
(459,56,o),
(457,137,c),
(458,190,o),
(442,253,o),
(303,292,cs),
(203,320,o),
(154,339,o),
(153,372,c),
(153,416,o),
(192,436,o),
(251,436,cs),
(311,436,o),
(343,403,o),
(352,370,c),
(437,370,l),
(426,423,o),
(393,512,o),
(252,512,cs),
(130,512,o),
(68,445,o),
(68,372,cs),
(68,310,o),
(99,266,o),
(205,233,cs),
(288,207,o),
(371,191,o),
(371,140,c),
(371,82,o),
(317,65,o),
(256,65,c),
(207,65,o),
(155,92,o),
(139,155,c),
(50,155,l)
);
},
{
closed = 1;
nodes = (
(65,56,o),
(151,-12,o),
(249,-12,c),
(387,-12,o),
(459,56,o),
(457,137,c),
(458,190,o),
(442,253,o),
(303,292,cs),
(203,320,o),
(154,339,o),
(153,372,c),
(153,416,o),
(192,436,o),
(251,436,cs),
(311,436,o),
(343,403,o),
(352,370,c),
(437,370,l),
(426,423,o),
(393,512,o),
(252,512,cs),
(130,512,o),
(68,445,o),
(68,372,cs),
(68,310,o),
(99,266,o),
(205,233,cs),
(288,207,o),
(371,191,o),
(371,140,c),
(371,82,o),
(317,65,o),
(256,65,c),
(207,65,o),
(155,92,o),
(139,155,c),
(50,155,l)
);
}
);
width = 512;
},
{
associatedMasterId = master01;
layerId = "16A2ED11-E800-4B00-98DC-B709ECAC59BA";
name = "1 Oct 21, 07:26";
shapes = (
{
closed = 1;
nodes = (
(50,57,o),
(145,-12,o),
(246,-12,c),
(385,-12,o),
(448,56,o),
(448,137,cs),
(448,218,o),
(417,254,o),
(291,292,cs),
(174,327,o),
(146,342,o),
(145,375,cs),
(144,408,o),
(177,436,o),
(242,436,cs),
(314,436,o),
(352,400,o),
(352,367,c),
(438,367,l),
(438,429,o),
(388,512,o),
(243,512,cs),
(121,512,o),
(61,445,o),
(61,372,cs),
(61,303,o),
(102,255,o),
(199,229,cs),
(284,206,o),
(363,195,o),
(363,137,cs),
(363,87,o),
(319,64,o),
(253,64,cs),
(203,64,o),
(140,94,o),
(140,157,c),
(50,156,l)
);
},
{
closed = 1;
nodes = (
(50,57,o),
(145,-12,o),
(246,-12,c),
(385,-12,o),
(448,56,o),
(448,137,cs),
(448,218,o),
(417,254,o),
(291,292,cs),
(174,327,o),
(146,342,o),
(145,375,cs),
(144,408,o),
(177,436,o),
(242,436,cs),
(314,436,o),
(352,400,o),
(352,367,c),
(438,367,l),
(438,429,o),
(388,512,o),
(243,512,cs),
(121,512,o),
(61,445,o),
(61,372,cs),
(61,303,o),
(102,255,o),
(199,229,cs),
(284,206,o),
(363,195,o),
(363,137,cs),
(363,87,o),
(319,64,o),
(253,64,cs),
(203,64,o),
(140,94,o),
(140,157,c),
(50,156,l)
);
}
);
width = 503;
}
);
unicode = 115;
},
{
glyphname = germandbls;
kernLeft = s;
kernRight = s;
lastChange = "2023-08-03 09:41:05 +0000";
layers = (
{
layerId = master01;
shapes = (
{
closed = 1;
nodes = (
(378,-12,o),
(487,64,o),
(506,203,cs),
(518,286,o),
(484,348,o),
(426,384,c),
(472,416,o),
(507,465,o),
(516,530,cs),
(533,649,o),
(453,712,o),
(351,712,cs),
(240,712,o),
(148,649,o),
(131,530,cs),
(57,0,l),
(141,0,l),
(215,530,ls),
(223,586,o),
(263,636,o),
(339,636,cs),
(415,636,o),
(440,586,o),
(432,530,cs),
(423,465,o),
(385,418,o),
(311,418,cs),
(307,418,l),
(296,340,l),
(299,340,ls),
(379,340,o),
(429,278,o),
(418,203,cs),
(407,123,o),
(351,68,o),
(262,68,cs),
(247,68,o),
(234,68,o),
(224,70,c),
(213,-9,l),
(224,-11,o),
(236,-12,o),
(250,-12,cs)
);
}
);
width = 567;
}
);
unicode = 223;
},
{
glyphname = t;
kernLeft = t;
kernRight = t;
lastChange = "2023-08-03 12:10:40 +0000";
layers = (
{
anchors = (
{
name = bottom;
pos = (139,0);
},
{
name = center;
pos = (183,250);
},
{
name = top;
pos = (227,500);
},
{
name = topright;
pos = (315,748);
}
);
hints = (
{
horizontal = 1;
place = (-35,458);
target = (0,10);
type = Stem;
},
{
horizontal = 1;
origin = (0,20);
target = (0,21);
type = Stem;
},
{
horizontal = 1;
origin = (0,21);
target = (0,13);
type = Stem;
},
{
origin = (0,10);
target = (0,10);
type = Stem;
}
);
layerId = master01;
shapes = (
{
closed = 1;
nodes = (
(245,-12,o),
(268,-9,o),
(285,-4,c),
(295,64,l),
(278,61,o),
(261,60,o),
(248,60,cs),
(199,60,o),
(176,78,o),
(183,132,cs),
(224,423,l),
(353,423,l),
(364,499,l),
(235,499,l),
(253,627,l),
(169,627,l),
(161,570,ls),
(153,512,o),
(138,500,o),
(84,500,cs),
(61,500,l),
(50,423,l),
(140,423,l),
(99,132,ls),
(86,39,o),
(120,-12,o),
(229,-12,cs)
);
}
);
width = 366;
},
{
associatedMasterId = master01;
layerId = "4BC6D785-7F25-40CD-8B35-2CDB36DE77EE";
name = foreground;
shapes = (
{
closed = 1;
nodes = (
(97,500,o),
(43,500,cs),
(20,500,l),
(20,408,l),
(110,408,l),
(110,137,ls),
(110,56,o),
(145,0,o),
(260,0,c),
(282,0,o),
(321,2,o),
(336,4,c),
(336,98,l),
(322,97,o),
(287,96,o),
(271,96,cs),
(225,97,o),
(210,127,o),
(210,166,cs),
(210,408,l),
(339,408,l),
(339,499,l),
(210,499,l),
(210,629,l),
(110,629,l),
(110,572,ls),
(110,512,o)
);
}
);
width = 379;
}
);
unicode = 116;
},
{
glyphname = u;
kernLeft = u;
kernRight = u;
lastChange = "2023-08-03 09:41:05 +0000";
layers = (
{
anchors = (
{
name = bottom;
pos = (245,-12);
},
{
name = ogonek;
pos = (425,0);
},
{
name = top;
pos = (325,515);
}
);
layerId = master01;
shapes = (
{
closed = 1;
nodes = (
(329,-12,o),
(385,59,o),
(399,94,c),
(386,0,l),
(470,0,l),
(540,500,l),
(456,500,l),
(418,230,ls),
(405,134,o),
(348,64,o),
(256,64,cs),
(189,64,o),
(148,97,o),
(161,184,cs),
(205,500,l),
(121,500,l),
(75,172,ls),
(58,52,o),
(120,-12,o),
(217,-12,cs)
);
}
);
width = 597;
},
{
associatedMasterId = master01;
layerId = "58AB66D5-CBBE-4AAE-8E7A-6B076E516B66";
name = foreground;
shapes = (
{
closed = 1;
nodes = (
(418,500,l),
(418,241,ls),
(418,145,o),
(371,75,o),
(289,75,cs),
(232,75,o),
(180,108,o),
(180,194,c),
(180,500,l),
(80,500,l),
(80,172,ls),
(80,52,o),
(164,-12,o),
(251,-12,cs),
(354,-12,o),
(398,45,o),
(418,98,c),
(418,-1,l),
(518,-1,l),
(518,500,l)
);
}
);
width = 603;
}
);
unicode = 117;
},
{
glyphname = uhorn;
kernLeft = u;
kernRight = u;
lastChange = "2023-08-03 09:41:05 +0000";
layers = (
{
layerId = master01;
shapes = (
{
closed = 1;
nodes = (
(653,446,o),
(668,546,o),
(659,597,c),
(586,592,l),
(591,556,o),
(585,502,o),
(522,500,cs),
(462,498,o),
(453,446,o),
(516,446,c)
);
},
{
ref = u;
}
);
width = 600;
}
);
unicode = 432;
},
{
glyphname = v;
kernLeft = v;
kernRight = v;
lastChange = "2023-08-03 09:41:05 +0000";
layers = (
{
layerId = master01;
shapes = (
{
closed = 1;
nodes = (
(267,0,l),
(518,500,l),
(438,500,l),
(229,84,l),
(136,500,l),
(52,500,l),
(163,0,l)
);
}
);
width = 500;
},
{
associatedMasterId = master01;
layerId = "6A8EB27F-0274-4B16-855B-6672B7F2D5F0";
name = foreground;
shapes = (
{
closed = 1;
nodes = (
(506,500,l),
(324,0,l),
(193,0,l),
(12,500,l),
(124,500,l),
(258,101,l),
(392,500,l)
);
}
);
width = 518;
}
);
unicode = 118;
},
{
glyphname = w;
kernLeft = w;
kernRight = w;
lastChange = "2023-08-03 09:41:05 +0000";
layers = (
{
anchors = (
{
name = top;
pos = (424,512);
}
);
layerId = master01;
shapes = (
{
closed = 1;
nodes = (
(248,0,l),
(413,394,l),
(398,394,l),
(448,0,l),
(561,0,l),
(770,499,l),
(679,499,l),
(512,60,l),
(523,60,l),
(466,499,l),
(374,499,l),
(192,60,l),
(204,60,l),
(161,499,l),
(70,499,l),
(139,0,l)
);
}
);
width = 770;
},
{
associatedMasterId = master01;
layerId = "A8781FE5-F585-44A1-B1ED-7854B8098763";
name = foreground;
shapes = (
{
closed = 1;
nodes = (
(456,0,l),
(573,0,l),
(704,499,l),
(606,499,l),
(511,66,l),
(530,66,l),
(424,499,l),
(320,499,l),
(214,66,l),
(233,66,l),
(138,499,l),
(30,499,l),
(161,0,l),
(278,0,l),
(375,374,l),
(359,374,l)
);
}
);
width = 734;
}
);
unicode = 119;
},
{
glyphname = x;
kernLeft = x;
kernRight = x;
lastChange = "2023-08-03 09:41:05 +0000";
layers = (
{
layerId = master01;
shapes = (
{
closed = 1;
nodes = (
(394,0,l),
(272,257,l),
(455,500,l),
(361,500,l),
(236,334,l),
(156,500,l),
(62,500,l),
(178,257,l),
(-17,0,l),
(77,0,l),
(214,181,l),
(300,0,l)
);
}
);
width = 447;
},
{
associatedMasterId = master01;
layerId = "B47364CB-B425-460E-96EC-C79310290C0B";
name = foreground;
shapes = (
{
closed = 1;
nodes = (
(247,166,l),
(363,0,l),
(485,0,l),
(308,251,l),
(480,500,l),
(363,500,l),
(250,335,l),
(135,500,l),
(13,500,l),
(188,250,l),
(13,0,l),
(130,0,l)
);
}
);
width = 493;
}
);
unicode = 120;
},
{
glyphname = y;
kernLeft = y;
kernRight = y;
lastChange = "2023-08-03 09:41:05 +0000";
layers = (
{
anchors = (
{
name = bottom;
pos = (194,-230);
},
{
name = top;
pos = (298,516);
}
);
layerId = master01;
shapes = (
{
closed = 1;
nodes = (
(140,-230,o),
(178,-164,o),
(245,-34,cs),
(521,500,l),
(432,500,l),
(244,119,l),
(136,500,l),
(50,500,l),
(188,3,l),
(134,-126,o),
(97,-150,o),
(51,-150,c),
(33,-150,o),
(15,-149,o),
(3,-146,c),
(-7,-222,l),
(5,-226,o),
(25,-230,o),
(46,-230,cs)
);
}
);
width = 498;
},
{
associatedMasterId = master01;
layerId = "C02C67DD-6A80-4F27-B5CB-F7E47F86019A";
name = foreground;
shapes = (
{
closed = 1;
nodes = (
(185,-251,o),
(89,-251,cs),
(78,-251,o),
(45,-248,o),
(30,-243,c),
(30,-151,l),
(30,-151,o),
(58,-159,o),
(96,-156,c),
(141,-156,o),
(181,-118,o),
(202,-24,cs),
(208,3,l),
(10,500,l),
(127,500,l),
(266,119,l),
(391,500,l),
(497,500,l),
(306,-34,ls),
(248,-196,o)
);
}
);
width = 502;
}
);
unicode = 121;
},
{
glyphname = z;
kernLeft = z;
kernRight = z;
lastChange = "2023-08-03 09:41:05 +0000";
layers = (
{
anchors = (
{
name = top;
pos = (257,521);
}
);
hints = (
{
horizontal = 1;
origin = (0,9);
target = (0,2);
type = Stem;
},
{
horizontal = 1;
origin = (0,6);
target = (0,5);
type = Stem;
},
{
origin = (0,9);
target = (0,0);
type = Stem;
}
);
layerId = master01;
shapes = (
{
closed = 1;
nodes = (
(346,1,l),
(357,77,l),
(113,77,l),
(404,425,l),
(414,501,l),
(85,501,l),
(75,425,l),
(317,425,l),
(26,78,l),
(15,1,l)
);
}
);
width = 427;
},
{
associatedMasterId = master01;
layerId = "9FF03EA6-08B8-46BD-92BE-77D8C33F9469";
name = foreground;
shapes = (
{
closed = 1;
nodes = (
(390,1,l),
(390,86,l),
(148,86,l),
(390,419,l),
(390,501,l),
(40,501,l),
(40,419,l),
(282,419,l),
(40,87,l),
(40,1,l)
);
}
);
width = 430;
}
);
unicode = 122;
},
{
glyphname = a.ss01;
kernLeft = a;
kernRight = a;
lastChange = "2023-08-03 09:41:05 +0000";
layers = (
{
anchors = (
{
name = bottom;
pos = (230,0);
},
{
name = ogonek;
pos = (444,12);
},
{
name = top;
pos = (309,512);
}
);
hints = (
{
horizontal = 1;
place = (-47,41);
type = Stem;
},
{
horizontal = 1;
place = (401,41);
type = Stem;
},
{
place = (422,48);
type = Stem;
},
{
place = (38,49);
type = Stem;
}
);
layerId = master01;
shapes = (
{
closed = 1;
nodes = (
(299,-12,o),
(362,106,o),
(362,106,c),
(352,35,o),
(383,0,o),
(435,0,cs),
(460,0,o),
(473,4,o),
(489,12,c),
(498,80,l),
(448,69,o),
(436,87,o),
(442,127,cs),
(472,340,ls),
(484,429,o),
(427,512,o),
(309,512,cs),
(152,512,o),
(93,393,o),
(93,393,c),
(156,356,l),
(156,356,o),
(198,436,o),
(291,436,cs),
(359,436,o),
(395,390,o),
(387,336,cs),
(383,310,l),
(180,310,o),
(60,262,o),
(42,135,cs),
(29,43,o),
(84,-12,o),
(165,-12,cs)
);
},
{
closed = 1;
nodes = (
(146,64,o),
(120,91,o),
(127,142,cs),
(138,223,o),
(222,244,o),
(374,244,c),
(371,219,ls),
(357,120,o),
(259,64,o),
(197,64,cs)
);
}
);
width = 590;
},
{
associatedMasterId = master01;
layerId = "9D365B9B-32C5-456F-91EC-EA0BDBFBA64C";
name = foreground;
shapes = (
{
closed = 1;
nodes = (
(383,426,o),
(426,339,o),
(426,252,cs),
(426,165,o),
(381,75,o),
(285,75,c),
(191,75,o),
(149,165,o),
(149,252,cs),
(149,339,o),
(189,426,o),
(285,426,c)
);
},
{
closed = 1;
nodes = (
(127,512,o),
(40,397,o),
(40,250,cs),
(40,123,o),
(108,-13,o),
(260,-12,c),
(335,-12,o),
(395,27,o),
(423,98,c),
(423,0,l),
(523,0,l),
(523,499,l),
(423,499,l),
(423,422,l),
(400,475,o),
(329,512,o),
(260,512,c)
);
}
);
width = 583;
},
{
associatedMasterId = master01;
layerId = "B723C8F9-18DA-486D-A68C-0EA6D66026F1";
name = "1 Aug 21, 12:43";
shapes = (
{
closed = 1;
nodes = (
(383,426,o),
(426,339,o),
(426,252,cs),
(426,165,o),
(381,75,o),
(285,75,c),
(191,75,o),
(149,165,o),
(149,252,cs),
(149,339,o),
(189,426,o),
(285,426,c)
);
},
{
closed = 1;
nodes = (
(196,63,o),
(148,148,o),
(148,252,cs),
(148,356,o),
(196,437,o),
(294,437,cs),
(393,437,o),
(447,360,o),
(447,250,cs),
(447,148,o),
(393,65,o),
(297,64,cs)
);
},
{
closed = 0;
nodes = (
(531,-103,l),
(532,500,l),
(451,500,l),
(451,402,l),
(430,457,o),
(378,512,o),
(290,512,cs),
(159,512,o),
(64,419,o),
(64,250,cs),
(64,86,o),
(154,-12,o),
(285,-12,cs),
(354,-12,o),
(427,27,o),
(448,96,c)
);
}
);
width = 583;
}
);
},
{
glyphname = g.ss01;
kernLeft = g;
kernRight = g;
lastChange = "2023-08-03 09:41:05 +0000";
layers = (
{
anchors = (
{
name = top;
pos = (299,512);
}
);
layerId = master01;
shapes = (
{
closed = 1;
nodes = (
(353,-229,o),
(453,-148,o),
(467,-46,cs),
(477,20,o),
(451,94,o),
(322,94,cs),
(185,94,ls),
(116,94,o),
(135,174,o),
(195,174,cs),
(206,174,o),
(246,174,o),
(258,174,cs),
(374,174,o),
(455,242,o),
(469,340,cs),
(474,375,o),
(467,417,o),
(449,447,c),
(466,476,o),
(519,478,o),
(556,472,c),
(569,560,l),
(478,576,o),
(428,525,o),
(417,480,c),
(401,494,o),
(360,512,o),
(299,512,cs),
(172,512,o),
(97,427,o),
(85,340,cs),
(77,286,o),
(95,222,o),
(139,197,c),
(102,193,o),
(64,164,o),
(59,127,cs),
(53,86,o),
(75,61,o),
(107,52,c),
(45,31,o),
(14,-31,o),
(8,-73,cs),
(-6,-172,o),
(83,-229,o),
(208,-229,cs)
);
},
{
closed = 1;
nodes = (
(121,-154,o),
(79,-122,o),
(88,-59,cs),
(93,-22,o),
(124,12,o),
(168,22,c),
(304,22,l),
(376,22,o),
(395,-2,o),
(389,-49,cs),
(383,-100,o),
(336,-154,o),
(218,-154,cs)
);
},
{
closed = 1;
nodes = (
(183,243,o),
(157,287,o),
(165,342,cs),
(172,395,o),
(211,441,o),
(288,441,cs),
(372,441,o),
(397,396,o),
(389,343,cs),
(381,285,o),
(344,243,o),
(260,243,cs)
);
}
);
width = 547;
},
{
associatedMasterId = master01;
layerId = "077287D2-C640-42BE-89DC-9237D68A85C4";
name = foreground;
shapes = (
{
closed = 1;
nodes = (
(183,240,o),
(147,288,o),
(147,343,cs),
(147,398,o),
(180,440,o),
(245,440,cs),
(312,440,o),
(344,398,o),
(344,343,cs),
(344,288,o),
(312,240,o),
(245,240,cs)
);
},
{
closed = 1;
nodes = (
(129,-46,o),
(148,-8,o),
(188,12,c),
(298,12,l),
(361,12,o),
(405,-12,o),
(403,-81,cs),
(401,-150,o),
(334,-171,o),
(248,-169,c),
(174,-167,o),
(129,-127,o),
(129,-82,c)
);
},
{
closed = 1;
nodes = (
(509,560,l),
(416,576,o),
(373,525,o),
(370,480,c),
(340,500,o),
(299,512,o),
(248,512,cs),
(119,512,o),
(57,434,o),
(57,337,cs),
(57,280,o),
(84,216,o),
(139,191,c),
(118,183,o),
(57,164,o),
(57,103,cs),
(57,61,o),
(101,37,o),
(142,28,c),
(79,12,o),
(42,-33,o),
(42,-89,cs),
(42,-161,o),
(108,-250,o),
(249,-250,c),
(419,-251,o),
(495,-174,o),
(494,-67,cs),
(493,13,o),
(425,99,o),
(306,99,cs),
(206,99,ls),
(137,99,o),
(147,168,o),
(207,168,cs),
(218,168,o),
(241,168,o),
(248,168,cs),
(380,168,o),
(441,242,o),
(440,337,cs),
(440,379,o),
(428,417,o),
(405,447,c),
(418,476,o),
(471,478,o),
(509,472,c)
);
}
);
width = 523;
},
{
associatedMasterId = master01;
layerId = "7A42339F-1245-461A-AC41-BAF96E1C6F90";
name = "22 Jul 21, 14:28";
shapes = (
{
closed = 1;
nodes = (
(195,246,o),
(151,292,o),
(151,344,cs),
(151,396,o),
(192,440,o),
(257,440,cs),
(324,440,o),
(370,396,o),
(370,344,cs),
(370,292,o),
(324,246,o),
(257,246,cs)
);
},
{
closed = 1;
nodes = (
(138,-22,o),
(163,10,o),
(209,30,c),
(307,30,l),
(365,30,o),
(410,-1,o),
(408,-70,cs),
(406,-139,o),
(345,-155,o),
(266,-155,c),
(192,-155,o),
(138,-120,o),
(138,-70,cs)
);
},
{
closed = 1;
nodes = (
(521,560,l),
(428,576,o),
(385,525,o),
(382,480,c),
(352,500,o),
(311,512,o),
(260,512,cs),
(148,512,o),
(69,427,o),
(69,340,cs),
(69,286,o),
(96,222,o),
(151,197,c),
(126,194,o),
(77,181,o),
(77,117,cs),
(77,75,o),
(113,50,o),
(154,41,c),
(91,25,o),
(54,-22,o),
(54,-78,cs),
(54,-150,o),
(120,-229,o),
(261,-229,c),
(418,-230,o),
(494,-163,o),
(493,-56,cs),
(492,24,o),
(440,102,o),
(315,102,cs),
(210,102,ls),
(141,102,o),
(151,174,o),
(211,174,cs),
(222,174,o),
(253,174,o),
(260,174,cs),
(392,174,o),
(452,269,o),
(452,340,cs),
(452,375,o),
(440,417,o),
(417,447,c),
(430,476,o),
(483,478,o),
(521,472,c)
);
},
{
closed = 1;
nodes = (
(423,-97,o),
(378,-146,o),
(254,-146,cs),
(180,-146,o),
(132,-102,o),
(107,-43,c),
(29,-86,l),
(74,-187,o),
(166,-229,o),
(253,-230,cs),
(369,-232,o),
(506,-180,o),
(506,-12,cs),
(507,500,l),
(426,500,l),
(426,402,l),
(405,457,o),
(348,512,o),
(260,512,cs),
(129,512,o),
(31,419,o),
(31,250,cs),
(31,86,o),
(124,-12,o),
(255,-12,cs),
(324,-12,o),
(402,27,o),
(423,96,c),
(423,-12,ls)
);
},
{
closed = 1;
nodes = (
(166,63,o),
(115,148,o),
(115,252,cs),
(115,356,o),
(166,437,o),
(264,437,cs),
(363,437,o),
(422,360,o),
(422,250,cs),
(422,148,o),
(363,65,o),
(267,64,cs)
);
}
);
width = 543;
}
);
},
{
glyphname = zero;
lastChange = "2023-08-03 09:41:05 +0000";
layers = (
{
layerId = master01;
shapes = (
{
closed = 1;
nodes = (
(515,-13,o),
(605,173,o),
(631,358,cs),
(659,553,o),
(616,720,o),
(408,720,c),
(198,720,o),
(109,553,o),
(81,358,cs),
(55,173,o),
(93,-13,o),
(305,-13,c)
);
},
{
closed = 1;
nodes = (
(176,68,o),
(146,199,o),
(168,359,cs),
(191,522,o),
(257,639,o),
(398,639,c),
(533,639,o),
(567,522,o),
(544,359,cs),
(522,199,o),
(452,68,o),
(316,68,c)
);
},
{
closed = 1;
nodes = (
(382,290,o),
(414,319,o),
(418,353,cs),
(423,388,o),
(399,417,o),
(365,417,cs),
(330,417,o),
(297,388,o),
(292,353,cs),
(288,319,o),
(313,290,o),
(348,290,cs)
);
}
);
width = 682;
},
{
associatedMasterId = master01;
layerId = "13DCC383-82AB-442C-BFC2-C1F1611A1FF5";
name = foreground;
shapes = (
{
closed = 1;
nodes = (
(148,-13,o),
(84,173,o),
(84,358,cs),
(84,553,o),
(150,719,o),
(360,719,c),
(568,719,o),
(634,553,o),
(634,358,cs),
(634,173,o),
(570,-13,o),
(360,-13,c)
);
},
{
closed = 1;
nodes = (
(235,618,o),
(188,513,o),
(188,360,cs),
(188,200,o),
(230,89,o),
(359,89,c),
(488,89,o),
(530,200,o),
(530,360,cs),
(530,513,o),
(483,618,o),
(360,618,c)
);
},
{
closed = 1;
nodes = (
(395,295,o),
(424,325,o),
(424,358,cs),
(424,394,o),
(395,424,o),
(361,424,cs),
(326,424,o),
(296,394,o),
(296,358,cs),
(296,325,o),
(326,295,o),
(361,295,cs)
);
}
);
width = 718;
}
);
unicode = 48;
},
{
glyphname = one;
lastChange = "2023-08-03 09:41:05 +0000";
layers = (
{
hints = (
{
horizontal = 1;
origin = (0,12);
target = (0,2);
type = Stem;
},
{
horizontal = 1;
origin = (0,8);
target = (0,7);
type = Stem;
},
{
horizontal = 1;
origin = (0,12);
target = (0,11);
type = Stem;
},
{
origin = (0,10);
target = (0,2);
type = Stem;
},
{
origin = (0,4);
target = (0,2);
type = Stem;
}
);
layerId = master01;
shapes = (
{
closed = 1;
nodes = (
(387,0,l),
(398,80,l),
(265,80,l),
(352,699,l),
(277,699,l),
(264,606,o),
(241,592,o),
(124,592,c),
(113,512,l),
(238,512,l),
(177,80,l),
(50,80,l),
(39,0,l)
);
}
);
width = 513;
},
{
associatedMasterId = master01;
layerId = "E47BB55E-6434-4EFE-8F9A-CD219E7F6C54";
name = foreground;
shapes = (
{
closed = 1;
nodes = (
(196,94,l),
(69,94,l),
(69,0,l),
(441,0,l),
(441,96,l),
(308,96,l),
(308,699,l),
(221,699,l),
(221,598,o),
(163,593,o),
(71,593,c),
(71,512,l),
(196,512,l)
);
}
);
width = 496;
}
);
unicode = 49;
},
{
glyphname = two;
lastChange = "2023-08-03 09:41:05 +0000";
layers = (
{
hints = (
{
horizontal = 1;
origin = (0,25);
target = (0,2);
type = Stem;
},
{
horizontal = 1;
origin = (0,18);
target = (0,8);
type = Stem;
},
{
origin = (0,25);
target = (0,2);
type = Stem;
},
{
origin = (0,21);
target = (0,5);
type = Stem;
},
{
origin = (0,14);
target = (0,15);
type = Stem;
}
);
layerId = master01;
shapes = (
{
closed = 1;
nodes = (
(466,1,l),
(477,81,l),
(137,81,l),
(164,274,o),
(495,284,o),
(529,528,cs),
(546,647,o),
(464,712,o),
(349,712,c),
(269,712,o),
(192,677,o),
(147,615,c),
(129,589,o),
(115,555,o),
(110,519,c),
(198,519,l),
(206,576,o),
(259,632,o),
(337,632,c),
(415,632,o),
(451,584,o),
(443,528,cs),
(416,335,o),
(87,332,o),
(51,81,cs),
(40,1,l)
);
}
);
width = 576;
},
{
associatedMasterId = master01;
layerId = "BC9AB10E-C11D-48D7-ACCF-502BD9D7D8B4";
name = foreground;
shapes = (
{
closed = 1;
nodes = (
(184,257,o),
(500,284,o),
(500,530,cs),
(500,649,o),
(404,719,o),
(289,719,c),
(209,719,o),
(137,685,o),
(101,623,c),
(86,597,o),
(77,566,o),
(77,530,c),
(174,530,l),
(174,587,o),
(210,636,o),
(288,636,c),
(366,636,o),
(405,592,o),
(405,536,cs),
(405,343,o),
(80,308,o),
(80,87,cs),
(80,1,l),
(511,1,l),
(511,93,l),
(184,93,l)
);
}
);
width = 587;
}
);
unicode = 50;
},
{
glyphname = three;
lastChange = "2023-08-03 09:41:05 +0000";
layers = (
{
layerId = master01;
shapes = (
{
closed = 1;
nodes = (
(392,-12,o),
(516,69,o),
(535,208,cs),
(551,324,o),
(489,423,o),
(333,423,c),
(553,615,l),
(565,700,l),
(177,700,l),
(166,620,l),
(448,620,l),
(215,423,l),
(206,355,l),
(301,355,ls),
(400,355,o),
(463,309,o),
(450,212,cs),
(438,128,o),
(364,68,o),
(275,68,cs),
(202,68,o),
(147,94,o),
(138,173,c),
(137,185,o),
(137,198,o),
(138,210,c),
(53,203,l),
(50,182,o),
(51,162,o),
(52,144,c),
(65,43,o),
(154,-12,o),
(263,-12,cs)
);
}
);
width = 609;
},
{
associatedMasterId = master01;
layerId = "EB8DBBAE-32D2-41E0-8962-5175497312F2";
name = foreground;
shapes = (
{
closed = 1;
nodes = (
(469,429,o),
(530,330,o),
(530,203,cs),
(530,64,o),
(418,-12,o),
(289,-12,c),
(180,-12,o),
(83,43,o),
(56,144,c),
(52,162,o),
(49,182,o),
(49,203,c),
(156,210,l),
(156,198,o),
(158,185,o),
(161,173,c),
(174,121,o),
(217,78,o),
(290,78,c),
(379,78,o),
(423,140,o),
(423,207,cs),
(423,271,o),
(399,358,o),
(265,358,c),
(183,358,l),
(183,441,l),
(379,611,l),
(110,611,l),
(110,700,l),
(496,700,l),
(496,606,l),
(313,441,l)
);
}
);
width = 587;
}
);
unicode = 51;
},
{
glyphname = four;
lastChange = "2023-08-03 09:41:05 +0000";
layers = (
{
hints = (
{
horizontal = 1;
origin = (0,9);
target = (0,7);
type = Stem;
},
{
origin = (0,10);
target = (0,0);
type = Stem;
}
);
layerId = master01;
shapes = (
{
closed = 1;
nodes = (
(425,1,l),
(448,167,l),
(552,167,l),
(564,248,l),
(460,248,l),
(523,701,l),
(437,701,l),
(65,248,l),
(53,168,l),
(362,168,l),
(339,1,l)
);
},
{
closed = 1;
nodes = (
(417,559,l),
(374,248,l),
(157,248,l)
);
}
);
width = 613;
},
{
associatedMasterId = master01;
layerId = "343D4897-1185-4756-95B8-BCD83EF9873F";
name = foreground;
shapes = (
{
closed = 1;
nodes = (
(460,1,l),
(460,702,l),
(354,702,l),
(354,1,l)
);
},
{
closed = 1;
nodes = (
(557,158,l),
(557,250,l),
(63,250,l),
(63,158,l)
);
},
{
closed = 1;
nodes = (
(354,701,l),
(64,248,l),
(169,248,l),
(452,690,l)
);
}
);
width = 582;
}
);
unicode = 52;
},
{
glyphname = five;
lastChange = "2023-08-03 09:41:05 +0000";
layers = (
{
hints = (
{
horizontal = 1;
origin = (0,30);
target = (0,23);
type = Stem;
},
{
horizontal = 1;
origin = (0,17);
target = (0,5);
type = Stem;
},
{
horizontal = 1;
origin = (0,12);
target = (0,9);
type = Stem;
},
{
origin = (0,20);
target = (0,2);
type = Stem;
}
);
layerId = master01;
shapes = (
{
closed = 1;
nodes = (
(402,-12,o),
(527,77,o),
(549,234,cs),
(570,387,o),
(475,469,o),
(353,469,cs),
(296,469,o),
(231,443,o),
(206,407,c),
(275,620,l),
(557,620,l),
(568,700,l),
(221,700,l),
(110,348,l),
(198,322,l),
(226,361,o),
(272,388,o),
(324,388,cs),
(415,388,o),
(476,330,o),
(463,234,cs),
(448,126,o),
(374,68,o),
(285,68,cs),
(211,68,o),
(151,123,o),
(150,195,c),
(66,163,l),
(77,49,o),
(164,-12,o),
(273,-12,cs)
);
}
);
width = 621;
},
{
associatedMasterId = master01;
layerId = "141C748C-D320-4F67-ACD8-1A49E620755D";
name = foreground;
shapes = (
{
closed = 1;
nodes = (
(84,49,o),
(180,-12,o),
(289,-12,c),
(418,-12,o),
(530,83,o),
(530,240,cs),
(530,393,o),
(418,484,o),
(289,484,c),
(255,484,o),
(191,469,o),
(174,442,c),
(209,627,l),
(484,627,l),
(484,720,l),
(129,720,l),
(60,321,l),
(59,316,o),
(166,315,o),
(165,310,c),
(183,355,o),
(224,393,o),
(288,393,c),
(379,393,o),
(427,314,o),
(427,242,cs),
(427,166,o),
(379,80,o),
(290,80,c),
(216,80,o),
(170,133,o),
(156,195,c),
(57,163,l)
);
}
);
width = 587;
}
);
unicode = 53;
},
{
glyphname = six;
lastChange = "2023-08-03 09:41:05 +0000";
layers = (
{
hints = (
{
horizontal = 1;
origin = (0,17);
target = (1,11);
type = Stem;
},
{
horizontal = 1;
origin = (1,5);
target = (0,5);
type = Stem;
},
{
origin = (0,14);
target = (1,2);
type = Stem;
},
{
origin = (1,8);
target = (0,2);
type = Stem;
}
);
layerId = master01;
shapes = (
{
closed = 1;
nodes = (
(410,-12,o),
(512,88,o),
(532,227,cs),
(550,354,o),
(460,452,o),
(343,452,cs),
(312,452,o),
(275,442,o),
(261,427,c),
(473,700,l),
(374,700,l),
(158,404,ls),
(121,354,o),
(82,292,o),
(73,227,cs),
(53,88,o),
(125,-12,o),
(270,-12,c)
);
},
{
closed = 1;
nodes = (
(185,68,o),
(148,140,o),
(160,228,cs),
(170,299,o),
(229,376,o),
(322,376,c),
(413,376,o),
(454,299,o),
(444,228,cs),
(431,134,o),
(369,68,o),
(282,68,c)
);
}
);
width = 595;
},
{
associatedMasterId = master01;
layerId = "D6D6E878-2182-488D-B392-1DFFB86B72D8";
name = foreground;
shapes = (
{
closed = 1;
nodes = (
(417,-12,o),
(529,75,o),
(529,235,cs),
(529,392,o),
(413,476,o),
(318,476,c),
(271,476,o),
(246,464,o),
(241,464,c),
(413,720,l),
(297,720,l),
(91,384,ls),
(65,342,o),
(48,287,o),
(48,235,cs),
(48,75,o),
(159,-12,o),
(288,-12,c)
);
},
{
closed = 1;
nodes = (
(378,392,o),
(426,310,o),
(426,236,cs),
(426,159,o),
(378,81,o),
(289,81,c),
(200,81,o),
(151,159,o),
(151,236,cs),
(151,310,o),
(196,392,o),
(287,392,c)
);
}
);
width = 586;
}
);
unicode = 54;
},
{
glyphname = seven;
lastChange = "2023-08-03 12:47:48 +0000";
layers = (
{
hints = (
{
horizontal = 1;
origin = (0,3);
target = (0,4);
type = Stem;
},
{
origin = (0,4);
target = (0,1);
type = Stem;
}
);
layerId = master01;
shapes = (
{
closed = 1;
nodes = (
(165,1,l),
(551,622,l),
(562,700,l),
(118,700,l),
(107,620,l),
(462,620,l),
(76,1,l)
);
}
);
width = 527;
},
{
associatedMasterId = master01;
layerId = "838B41D5-9F30-4BE4-913F-336DAFA8DCAA";
name = foreground;
shapes = (
{
closed = 1;
nodes = (
(378,608,l),
(79,1,l),
(200,1,l),
(499,610,l),
(499,700,l),
(55,700,l),
(55,608,l)
);
}
);
width = 525;
}
);
unicode = 55;
},
{
glyphname = eight;
lastChange = "2023-08-03 09:41:05 +0000";
layers = (
{
layerId = master01;
shapes = (
{
closed = 1;
nodes = (
(391,-12,o),
(511,64,o),
(530,203,cs),
(542,286,o),
(508,348,o),
(450,384,c),
(496,416,o),
(531,465,o),
(540,530,cs),
(557,649,o),
(477,712,o),
(364,712,cs),
(253,712,o),
(154,649,o),
(137,530,cs),
(128,465,o),
(151,415,o),
(187,384,c),
(120,348,o),
(69,286,o),
(57,203,cs),
(38,64,o),
(134,-12,o),
(263,-12,cs)
);
},
{
closed = 1;
nodes = (
(187,68,o),
(134,123,o),
(145,203,cs),
(156,278,o),
(221,340,o),
(312,340,cs),
(403,340,o),
(453,278,o),
(442,203,cs),
(431,123,o),
(364,68,o),
(275,68,cs)
);
},
{
closed = 1;
nodes = (
(249,418,o),
(212,465,o),
(221,530,cs),
(229,586,o),
(276,636,o),
(352,636,cs),
(428,636,o),
(464,586,o),
(456,530,cs),
(447,465,o),
(398,418,o),
(324,418,cs)
);
}
);
width = 611;
},
{
associatedMasterId = master01;
layerId = "91AF98D4-6337-4809-84E9-869B365A9A81";
name = foreground;
shapes = (
{
closed = 1;
nodes = (
(404,342,o),
(503,408,o),
(503,530,cs),
(503,649,o),
(404,719,o),
(289,719,c),
(175,719,o),
(77,649,o),
(77,530,cs),
(77,408,o),
(175,342,o),
(289,342,c)
);
},
{
closed = 1;
nodes = (
(366,642,o),
(405,586,o),
(405,530,cs),
(405,474,o),
(366,418,o),
(290,418,c),
(213,418,o),
(174,474,o),
(174,530,cs),
(174,586,o),
(210,642,o),
(288,642,c)
);
},
{
closed = 1;
nodes = (
(418,-12,o),
(530,64,o),
(530,203,cs),
(530,339,o),
(418,419,o),
(289,419,c),
(160,419,o),
(49,339,o),
(49,203,cs),
(49,64,o),
(160,-12,o),
(289,-12,c)
);
},
{
closed = 1;
nodes = (
(379,341,o),
(423,274,o),
(423,210,cs),
(423,143,o),
(379,78,o),
(290,78,c),
(201,78,o),
(156,143,o),
(156,210,cs),
(156,274,o),
(197,341,o),
(288,341,c)
);
}
);
width = 587;
},
{
associatedMasterId = master01;
layerId = "594B591A-42ED-4B4B-A577-75D6A89A309A";
name = "2 Aug 21, 17:38";
shapes = (
{
closed = 1;
nodes = (
(404,342,o),
(503,408,o),
(503,530,cs),
(503,649,o),
(404,719,o),
(289,719,c),
(175,719,o),
(77,649,o),
(77,530,cs),
(77,408,o),
(175,342,o),
(289,342,c)
);
},
{
closed = 1;
nodes = (
(366,642,o),
(405,586,o),
(405,530,cs),
(405,474,o),
(366,418,o),
(290,418,c),
(213,418,o),
(174,474,o),
(174,530,cs),
(174,586,o),
(210,642,o),
(288,642,c)
);
},
{
closed = 1;
nodes = (
(418,-12,o),
(530,64,o),
(530,203,cs),
(530,339,o),
(418,419,o),
(289,419,c),
(160,419,o),
(49,339,o),
(49,203,cs),
(49,64,o),
(160,-12,o),
(289,-12,c)
);
},
{
closed = 1;
nodes = (
(379,341,o),
(423,274,o),
(423,210,cs),
(423,143,o),
(379,78,o),
(290,78,c),
(201,78,o),
(156,143,o),
(156,210,cs),
(156,274,o),
(197,341,o),
(288,341,c)
);
}
);
width = 587;
}
);
unicode = 56;
},
{
glyphname = nine;
lastChange = "2023-08-03 09:41:05 +0000";
layers = (
{
layerId = master01;
shapes = (
{
closed = 1;
nodes = (
(265,0,l),
(481,296,ls),
(518,346,o),
(557,408,o),
(566,473,cs),
(586,612,o),
(514,712,o),
(369,712,c),
(229,712,o),
(127,612,o),
(107,473,cs),
(89,346,o),
(179,248,o),
(296,248,cs),
(327,248,o),
(364,258,o),
(378,273,c),
(166,0,l)
);
},
{
closed = 1;
nodes = (
(226,324,o),
(185,401,o),
(195,472,cs),
(208,566,o),
(270,632,o),
(357,632,c),
(454,632,o),
(492,560,o),
(479,472,cs),
(469,401,o),
(410,324,o),
(317,324,c)
);
}
);
width = 594;
},
{
associatedMasterId = master01;
layerId = "DE9DA14C-A867-4145-8585-487AFC56B204";
name = foreground;
shapes = (
{
closed = 1;
nodes = (
(160,732,o),
(48,645,o),
(48,485,cs),
(48,328,o),
(164,244,o),
(259,244,c),
(306,244,o),
(331,256,o),
(336,256,c),
(164,0,l),
(280,0,l),
(486,336,ls),
(512,378,o),
(529,433,o),
(529,485,cs),
(529,645,o),
(418,732,o),
(289,732,c)
);
},
{
closed = 1;
nodes = (
(199,328,o),
(151,410,o),
(151,484,cs),
(151,561,o),
(199,639,o),
(288,639,c),
(377,639,o),
(426,561,o),
(426,484,cs),
(426,410,o),
(381,328,o),
(290,328,c)
);
}
);
width = 586;
}
);
unicode = 57;
},
{
glyphname = .notdef;
lastChange = "2023-08-03 09:41:05 +0000";
layers = (
{
hints = (
{
horizontal = 1;
origin = (0,3);
target = (1,3);
type = Stem;
},
{
horizontal = 1;
origin = (0,1);
target = (1,1);
type = Stem;
},
{
origin = (0,3);
target = (1,0);
type = Stem;
},
{
origin = (0,1);
target = (1,2);
type = Stem;
}
);
layerId = master01;
shapes = (
{
closed = 1;
nodes = (
(497,-150,l),
(620,730,l),
(162,730,l),
(39,-150,l)
);
},
{
closed = 1;
nodes = (
(236,652,l),
(524,652,l),
(423,-72,l),
(135,-72,l)
);
}
);
width = 648;
}
);
},
{
glyphname = period;
lastChange = "2023-08-03 12:46:37 +0000";
layers = (
{
layerId = master01;
shapes = (
{
closed = 1;
nodes = (
(109,-12,o),
(141,17,o),
(146,51,cs),
(151,86,o),
(127,115,o),
(93,115,cs),
(58,115,o),
(25,86,o),
(20,51,cs),
(15,17,o),
(40,-12,o),
(75,-12,cs)
);
}
);
width = 222;
},
{
associatedMasterId = master01;
layerId = "2626C257-C8D1-4BEC-A76B-04061BD798F2";
name = foreground;
shapes = (
{
closed = 1;
nodes = (
(196,-12,o),
(229,23,o),
(229,62,cs),
(229,104,o),
(196,139,o),
(156,139,cs),
(115,139,o),
(80,104,o),
(80,62,cs),
(80,23,o),
(115,-12,o),
(156,-12,cs)
);
}
);
width = 309;
}
);
unicode = 46;
},
{
glyphname = comma;
lastChange = "2023-08-03 09:41:05 +0000";
layers = (
{
layerId = master01;
shapes = (
{
closed = 1;
nodes = (
(92,-119,o),
(153,-39,o),
(166,48,cs),
(172,97,o),
(147,134,o),
(100,134,cs),
(64,134,o),
(29,99,o),
(24,64,cs),
(19,31,o),
(46,0,o),
(79,0,cs),
(82,0,o),
(87,0,o),
(89,1,c),
(79,-71,o),
(3,-86,o),
(3,-86,c),
(3,-86,o),
(-3,-119,o),
(-2,-119,cs)
);
}
);
width = 244;
},
{
associatedMasterId = master01;
layerId = "7090993E-1050-418C-BDF4-9BE23E3E6164";
name = foreground;
shapes = (
{
closed = 1;
nodes = (
(132,0,o),
(136,0,o),
(139,1,c),
(139,-76,o),
(60,-92,o),
(60,-92,c),
(60,-92,o),
(59,-131,o),
(60,-131,cs),
(171,-131,o),
(214,-21,o),
(214,50,c),
(214,94,o),
(190,142,o),
(131,142,cs),
(91,142,o),
(60,105,o),
(60,67,cs),
(60,32,o),
(92,0,o),
(129,0,cs)
);
}
);
width = 274;
}
);
unicode = 44;
},
{
glyphname = colon;
lastChange = "2023-08-03 09:41:05 +0000";
layers = (
{
layerId = master01;
shapes = (
{
closed = 1;
nodes = (
(195,300,o),
(227,329,o),
(232,363,cs),
(237,398,o),
(213,427,o),
(179,427,cs),
(144,427,o),
(111,398,o),
(106,363,cs),
(101,329,o),
(126,300,o),
(161,300,cs)
);
},
{
closed = 1;
nodes = (
(151,-12,o),
(183,17,o),
(188,51,cs),
(193,86,o),
(169,115,o),
(135,115,cs),
(100,115,o),
(67,86,o),
(62,51,cs),
(57,17,o),
(82,-12,o),
(117,-12,cs)
);
}
);
width = 306;
},
{
associatedMasterId = master01;
layerId = "1129757A-F034-4623-96F5-2C126444C93D";
name = foreground;
shapes = (
{
closed = 1;
nodes = (
(196,-12,o),
(229,23,o),
(229,62,cs),
(229,104,o),
(196,139,o),
(156,139,cs),
(115,139,o),
(80,104,o),
(80,62,cs),
(80,23,o),
(115,-12,o),
(156,-12,cs)
);
},
{
closed = 1;
nodes = (
(196,289,o),
(229,324,o),
(229,363,cs),
(229,405,o),
(196,440,o),
(156,440,cs),
(115,440,o),
(80,405,o),
(80,363,cs),
(80,324,o),
(115,289,o),
(156,289,cs)
);
}
);
width = 309;
}
);
unicode = 58;
},
{
glyphname = semicolon;
lastChange = "2023-08-03 09:41:05 +0000";
layers = (
{
layerId = master01;
shapes = (
{
closed = 1;
nodes = (
(88,-119,o),
(141,-20,o),
(152,48,c),
(157,89,o),
(142,134,o),
(86,134,cs),
(50,134,o),
(15,99,o),
(10,64,cs),
(5,31,o),
(32,0,o),
(65,0,cs),
(68,0,o),
(73,0,o),
(75,1,c),
(65,-71,o),
(-11,-86,o),
(-11,-86,c),
(-11,-86,o),
(-17,-119,o),
(-16,-119,cs)
);
},
{
closed = 1;
nodes = (
(150,300,o),
(182,329,o),
(187,363,cs),
(192,398,o),
(168,427,o),
(134,427,cs),
(99,427,o),
(66,398,o),
(61,363,cs),
(56,329,o),
(81,300,o),
(116,300,cs)
);
}
);
width = 270;
},
{
associatedMasterId = master01;
layerId = "7C7B3130-D28B-462C-85A7-59917ACED75E";
name = foreground;
shapes = (
{
closed = 1;
nodes = (
(180,289,o),
(213,324,o),
(213,363,cs),
(213,405,o),
(180,440,o),
(140,440,cs),
(99,440,o),
(64,405,o),
(64,363,cs),
(64,324,o),
(99,289,o),
(140,289,cs)
);
},
{
closed = 1;
nodes = (
(132,0,o),
(136,0,o),
(139,1,c),
(139,-76,o),
(60,-92,o),
(60,-92,c),
(60,-92,o),
(59,-131,o),
(60,-131,cs),
(171,-131,o),
(214,-21,o),
(214,50,c),
(214,94,o),
(190,142,o),
(131,142,cs),
(91,142,o),
(60,105,o),
(60,67,cs),
(60,32,o),
(92,0,o),
(129,0,cs)
);
}
);
width = 274;
}
);
unicode = 59;
},
{
glyphname = exclam;
lastChange = "2023-08-03 09:41:05 +0000";
layers = (
{
layerId = master01;
shapes = (
{
closed = 1;
nodes = (
(208,215,l),
(290,720,l),
(187,720,l),
(130,215,l)
);
},
{
closed = 1;
nodes = (
(173,-11,o),
(208,21,o),
(213,56,cs),
(218,94,o),
(193,126,o),
(157,126,cs),
(119,126,o),
(83,94,o),
(78,56,cs),
(73,21,o),
(99,-11,o),
(137,-11,cs)
);
}
);
width = 345;
},
{
associatedMasterId = master01;
layerId = "A93029F6-5A44-47E5-8EBB-60AEDDECB850";
name = foreground;
shapes = (
{
closed = 1;
nodes = (
(205,215,l),
(218,720,l),
(89,720,l),
(105,215,l)
);
},
{
closed = 1;
nodes = (
(196,-12,o),
(229,23,o),
(229,62,cs),
(229,104,o),
(196,139,o),
(156,139,cs),
(115,139,o),
(80,104,o),
(80,62,cs),
(80,23,o),
(115,-12,o),
(156,-12,cs)
);
}
);
width = 309;
}
);
unicode = 33;
},
{
glyphname = exclamdown;
lastChange = "2023-08-03 09:41:05 +0000";
layers = (
{
layerId = master01;
shapes = (
{
closed = 1;
nodes = (
(138,-232,l),
(198,273,l),
(120,273,l),
(35,-232,l)
);
},
{
closed = 1;
nodes = (
(208,362,o),
(242,394,o),
(248,432,cs),
(252,467,o),
(227,499,o),
(191,499,cs),
(153,499,o),
(117,467,o),
(113,432,cs),
(107,394,o),
(134,362,o),
(172,362,cs)
);
}
);
width = 309;
}
);
unicode = 161;
},
{
glyphname = question;
lastChange = "2023-08-03 09:41:05 +0000";
layers = (
{
hints = (
{
horizontal = 1;
origin = (0,18);
target = (0,8);
type = Stem;
},
{
horizontal = 1;
origin = (1,11);
target = (1,5);
type = Stem;
},
{
origin = (0,14);
target = (0,15);
type = Stem;
},
{
origin = (0,0);
target = (0,1);
type = Stem;
},
{
origin = (0,21);
target = (0,5);
type = Stem;
},
{
origin = (1,8);
target = (1,2);
type = Stem;
}
);
layerId = master01;
shapes = (
{
closed = 1;
nodes = (
(183,216,o),
(274,216,o),
(274,216,c),
(297,380,o),
(472,311,o),
(502,530,cs),
(519,649,o),
(437,719,o),
(322,719,cs),
(246,719,o),
(169,685,o),
(124,623,c),
(106,597,o),
(92,566,o),
(87,530,c),
(169,530,l),
(177,587,o),
(236,639,o),
(310,639,cs),
(388,639,o),
(429,592,o),
(421,536,cs),
(398,372,o),
(214,437,o),
(183,216,cs)
);
},
{
closed = 1;
nodes = (
(221,-12,o),
(253,17,o),
(258,51,cs),
(263,86,o),
(239,115,o),
(205,115,cs),
(170,115,o),
(137,86,o),
(132,51,cs),
(127,17,o),
(152,-12,o),
(187,-12,cs)
);
}
);
width = 511;
},
{
associatedMasterId = master01;
layerId = "CB6FE323-AA22-456B-834C-E280C3EC3E3D";
name = foreground;
shapes = (
{
closed = 1;
nodes = (
(312,380,o),
(500,311,o),
(500,530,cs),
(500,649,o),
(404,719,o),
(289,719,c),
(209,719,o),
(137,685,o),
(101,623,c),
(86,597,o),
(77,566,o),
(77,530,c),
(174,530,l),
(174,587,o),
(210,636,o),
(288,636,c),
(366,636,o),
(405,592,o),
(405,536,cs),
(405,372,o),
(208,437,o),
(208,216,cs),
(208,216,o),
(312,216,o),
(312,216,c)
);
},
{
closed = 1;
nodes = (
(308,-12,o),
(341,23,o),
(341,62,cs),
(341,104,o),
(308,139,o),
(268,139,cs),
(227,139,o),
(192,104,o),
(192,62,cs),
(192,23,o),
(227,-12,o),
(268,-12,cs)
);
}
);
width = 587;
}
);
unicode = 63;
},
{
glyphname = questiondown;
lastChange = "2023-08-03 09:41:05 +0000";
layers = (
{
layerId = master01;
shapes = (
{
closed = 1;
nodes = (
(265,-219,o),
(342,-185,o),
(387,-123,c),
(405,-97,o),
(419,-66,o),
(424,-30,c),
(342,-30,l),
(334,-87,o),
(275,-139,o),
(201,-139,cs),
(123,-139,o),
(82,-92,o),
(90,-36,cs),
(113,128,o),
(297,63,o),
(328,284,cs),
(328,284,o),
(237,284,o),
(237,284,c),
(214,120,o),
(39,189,o),
(9,-30,cs),
(-8,-149,o),
(74,-219,o),
(189,-219,cs)
);
},
{
closed = 1;
nodes = (
(341,385,o),
(374,414,o),
(379,449,cs),
(384,483,o),
(359,512,o),
(324,512,cs),
(290,512,o),
(258,483,o),
(253,449,cs),
(248,414,o),
(272,385,o),
(306,385,cs)
);
}
);
width = 511;
}
);
unicode = 191;
},
{
glyphname = periodcentered;
lastChange = "2023-08-03 09:41:05 +0000";
layers = (
{
layerId = master01;
shapes = (
{
closed = 1;
nodes = (
(187,241,o),
(219,270,o),
(224,304,cs),
(229,339,o),
(205,368,o),
(171,368,cs),
(136,368,o),
(103,339,o),
(98,304,cs),
(93,270,o),
(118,241,o),
(153,241,cs)
);
}
);
width = 306;
}
);
unicode = 183;
},
{
glyphname = bullet;
lastChange = "2023-08-03 09:41:05 +0000";
layers = (
{
layerId = master01;
shapes = (
{
closed = 1;
nodes = (
(212,223,o),
(256,262,o),
(262,307,cs),
(269,354,o),
(236,393,o),
(191,393,cs),
(144,393,o),
(100,354,o),
(93,307,cs),
(87,262,o),
(120,223,o),
(167,223,cs)
);
}
);
width = 339;
}
);
unicode = 8226;
},
{
glyphname = asterisk;
lastChange = "2023-08-03 09:41:05 +0000";
layers = (
{
layerId = master01;
shapes = (
{
closed = 1;
nodes = (
(273,455,l),
(361,330,l),
(419,374,l),
(332,499,l),
(475,562,l),
(456,624,l),
(324,567,l),
(344,712,l),
(276,712,l),
(255,564,l),
(138,622,l),
(102,561,l),
(226,499,l),
(103,374,l),
(149,330,l)
);
}
);
width = 489;
},
{
associatedMasterId = master01;
layerId = "52A87255-65B2-4E80-95F9-0AF50A018D84";
name = foreground;
shapes = (
{
closed = 1;
nodes = (
(146,321,l),
(246,438,l),
(344,320,l),
(407,374,l),
(310,489,l),
(436,553,l),
(400,624,l),
(287,568,l),
(287,714,l),
(204,714,l),
(204,568,l),
(92,624,l),
(55,553,l),
(180,490,l),
(83,374,l)
);
}
);
width = 491;
}
);
unicode = 42;
},
{
glyphname = numbersign;
lastChange = "2023-08-03 09:41:05 +0000";
layers = (
{
hints = (
{
horizontal = 1;
origin = (1,3);
target = (1,2);
type = Stem;
},
{
horizontal = 1;
origin = (3,3);
target = (3,2);
type = Stem;
},
{
origin = (1,3);
target = (3,0);
type = Stem;
}
);
layerId = master01;
shapes = (
{
closed = 1;
nodes = (
(419,0,l),
(693,720,l),
(620,720,l),
(346,0,l)
);
},
{
closed = 1;
nodes = (
(640,208,l),
(651,288,l),
(77,288,l),
(66,208,l)
);
},
{
closed = 1;
nodes = (
(203,0,l),
(477,720,l),
(404,720,l),
(130,0,l)
);
},
{
closed = 1;
nodes = (
(736,433,l),
(747,513,l),
(173,513,l),
(162,433,l)
);
}
);
width = 782;
},
{
associatedMasterId = master01;
layerId = "21C28542-C2BA-4EFE-9B17-DE8F14164D30";
name = foreground;
shapes = (
{
closed = 1;
nodes = (
(227,0,l),
(400,720,l),
(306,720,l),
(133,0,l)
);
},
{
closed = 1;
nodes = (
(462,0,l),
(635,720,l),
(541,720,l),
(368,0,l)
);
},
{
closed = 1;
nodes = (
(707,425,l),
(707,523,l),
(133,523,l),
(133,425,l)
);
},
{
closed = 1;
nodes = (
(644,199,l),
(644,297,l),
(70,297,l),
(70,199,l)
);
}
);
width = 777;
}
);
unicode = 35;
},
{
glyphname = slash;
lastChange = "2023-08-03 09:41:05 +0000";
layers = (
{
layerId = master01;
shapes = (
{
closed = 1;
nodes = (
(68,0,l),
(462,720,l),
(378,720,l),
(-16,0,l)
);
}
);
width = 400;
},
{
associatedMasterId = master01;
layerId = "B6C497E8-57DB-4813-80B4-1FC1C004D65A";
name = foreground;
shapes = (
{
closed = 1;
nodes = (
(97,0,l),
(390,720,l),
(303,720,l),
(10,0,l)
);
}
);
width = 385;
}
);
unicode = 47;
},
{
glyphname = backslash;
lastChange = "2023-08-03 09:41:05 +0000";
layers = (
{
layerId = master01;
shapes = (
{
closed = 1;
nodes = (
(346,0,l),
(154,720,l),
(70,720,l),
(262,0,l)
);
}
);
width = 400;
},
{
associatedMasterId = master01;
layerId = "343D6EAE-1DF2-4E0E-B6B5-032545DCA862";
name = foreground;
shapes = (
{
closed = 1;
nodes = (
(82,720,l),
(-5,720,l),
(288,0,l),
(375,0,l)
);
}
);
width = 385;
}
);
unicode = 92;
},
{
glyphname = periodcentered.loclCAT;
lastChange = "2023-08-03 09:41:05 +0000";
layers = (
{
layerId = master01;
shapes = (
{
closed = 1;
nodes = (
(182,241,o),
(214,270,o),
(219,304,cs),
(224,339,o),
(200,368,o),
(166,368,cs),
(131,368,o),
(98,339,o),
(93,304,cs),
(88,270,o),
(113,241,o),
(148,241,cs)
);
}
);
width = 296;
}
);
},
{
glyphname = periodcentered.loclCAT.case;
lastChange = "2023-08-03 09:41:05 +0000";
layers = (
{
layerId = master01;
shapes = (
{
closed = 1;
nodes = (
(-73,241,o),
(-41,270,o),
(-36,304,cs),
(-31,339,o),
(-55,368,o),
(-89,368,cs),
(-124,368,o),
(-157,339,o),
(-162,304,cs),
(-167,270,o),
(-142,241,o),
(-107,241,cs)
);
}
);
width = 41;
}
);
},
{
glyphname = hyphen;
lastChange = "2023-08-03 12:46:31 +0000";
layers = (
{
hints = (
{
horizontal = 1;
origin = (0,3);
target = (0,2);
type = Stem;
},
{
origin = (0,3);
target = (0,0);
type = Stem;
}
);
layerId = master01;
shapes = (
{
closed = 1;
nodes = (
(419,255,l),
(430,335,l),
(82,335,l),
(71,255,l)
);
}
);
width = 488;
},
{
associatedMasterId = master01;
layerId = "A4E3A6E5-E339-49A3-BA7C-5350A83F40F5";
name = foreground;
shapes = (
{
closed = 1;
nodes = (
(428,247,l),
(428,345,l),
(80,345,l),
(80,247,l)
);
}
);
width = 508;
}
);
unicode = 45;
},
{
glyphname = endash;
lastChange = "2023-08-03 09:41:05 +0000";
layers = (
{
layerId = master01;
shapes = (
{
closed = 1;
nodes = (
(485,255,l),
(496,335,l),
(83,335,l),
(72,255,l)
);
}
);
width = 555;
}
);
unicode = 8211;
},
{
glyphname = emdash;
lastChange = "2023-08-03 12:47:12 +0000";
layers = (
{
layerId = master01;
shapes = (
{
closed = 1;
nodes = (
(816,253,l),
(828,333,l),
(83,333,l),
(71,253,l)
);
}
);
width = 887;
}
);
unicode = 8212;
},
{
glyphname = underscore;
lastChange = "2023-08-03 09:41:05 +0000";
layers = (
{
hints = (
{
horizontal = 1;
origin = (0,3);
target = (0,2);
type = Stem;
},
{
origin = (0,3);
target = (0,0);
type = Stem;
}
);
layerId = master01;
shapes = (
{
closed = 1;
nodes = (
(481,0,l),
(492,80,l),
(6,80,l),
(-5,0,l)
);
}
);
width = 546;
},
{
associatedMasterId = master01;
layerId = "1AB4D43C-2735-4A3F-815D-32BCD16357D5";
name = foreground;
shapes = (
{
closed = 1;
nodes = (
(546,0,l),
(546,98,l),
(60,98,l),
(60,0,l)
);
}
);
width = 606;
}
);
unicode = 95;
},
{
glyphname = parenleft;
lastChange = "2023-08-03 09:41:05 +0000";
layers = (
{
layerId = master01;
shapes = (
{
closed = 1;
nodes = (
(229,-60,l),
(233,-58,o),
(132,82,o),
(169,345,c),
(206,607,o),
(346,748,o),
(343,750,c),
(250,750,l),
(250,750,o),
(116,580,o),
(83,345,c),
(50,109,o),
(136,-60,o),
(136,-60,c)
);
}
);
width = 303;
},
{
associatedMasterId = master01;
layerId = "A003329C-BEC9-4397-9AAD-9155A5EADE70";
name = foreground;
shapes = (
{
closed = 1;
nodes = (
(62,109,o),
(172,-60,o),
(172,-60,c),
(280,-60,l),
(283,-58,o),
(163,82,o),
(163,345,c),
(163,607,o),
(283,748,o),
(280,750,c),
(172,750,l),
(172,750,o),
(62,580,o),
(62,345,c)
);
}
);
width = 313;
}
);
unicode = 40;
},
{
glyphname = parenright;
lastChange = "2023-08-03 09:41:05 +0000";
layers = (
{
layerId = master01;
shapes = (
{
closed = 1;
nodes = (
(78,-60,l),
(78,-60,o),
(212,109,o),
(245,345,c),
(278,580,o),
(192,750,o),
(192,750,c),
(100,750,l),
(97,748,o),
(197,607,o),
(160,345,c),
(123,82,o),
(-16,-58,o),
(-14,-60,c)
);
}
);
width = 302;
},
{
associatedMasterId = master01;
layerId = "FEA7CF8C-5847-4A35-8A6B-C76339FB953A";
name = foreground;
shapes = (
{
closed = 1;
nodes = (
(243,580,o),
(133,750,o),
(133,750,c),
(25,750,l),
(22,748,o),
(142,607,o),
(142,345,c),
(142,82,o),
(22,-58,o),
(25,-60,c),
(133,-60,l),
(133,-60,o),
(243,109,o),
(243,345,c)
);
}
);
width = 303;
}
);
unicode = 41;
},
{
glyphname = braceleft;
lastChange = "2023-08-03 09:41:05 +0000";
layers = (
{
layerId = master01;
shapes = (
{
closed = 1;
nodes = (
(220,-93,l),
(231,-12,l),
(209,-12,ls),
(189,-12,o),
(179,-1,o),
(182,24,cs),
(211,232,ls),
(220,290,o),
(199,307,o),
(159,316,c),
(202,325,o),
(227,340,o),
(234,395,cs),
(264,608,ls),
(268,633,o),
(281,644,o),
(301,644,cs),
(323,644,l),
(335,725,l),
(288,725,ls),
(222,725,o),
(195,693,o),
(186,625,cs),
(157,422,ls),
(150,371,o),
(128,353,o),
(76,353,c),
(66,278,l),
(118,278,o),
(134,260,o),
(127,209,cs),
(99,7,ls),
(89,-61,o),
(107,-93,o),
(173,-93,cs)
);
}
);
width = 296;
}
);
unicode = 123;
},
{
glyphname = braceright;
lastChange = "2023-08-03 09:41:05 +0000";
layers = (
{
layerId = master01;
shapes = (
{
closed = 1;
nodes = (
(27,-93,ls),
(93,-93,o),
(119,-61,o),
(129,7,cs),
(157,209,ls),
(164,260,o),
(186,278,o),
(238,278,c),
(248,353,l),
(196,353,o),
(180,371,o),
(187,422,cs),
(216,625,ls),
(225,693,o),
(208,725,o),
(142,725,cs),
(95,725,l),
(83,644,l),
(105,644,ls),
(125,644,o),
(136,633,o),
(132,608,cs),
(102,395,ls),
(95,340,o),
(116,325,o),
(155,316,c),
(113,307,o),
(88,290,o),
(79,232,cs),
(50,24,ls),
(47,-1,o),
(33,-12,o),
(13,-12,cs),
(-9,-12,l),
(-20,-93,l)
);
}
);
width = 296;
}
);
unicode = 125;
},
{
glyphname = bracketleft;
lastChange = "2023-08-03 09:41:05 +0000";
layers = (
{
layerId = master01;
shapes = (
{
closed = 1;
nodes = (
(302,-51,l),
(312,25,l),
(143,25,l),
(235,678,l),
(405,678,l),
(416,753,l),
(166,753,l),
(53,-51,l)
);
}
);
width = 383;
}
);
unicode = 91;
},
{
glyphname = bracketright;
lastChange = "2023-08-03 09:41:05 +0000";
layers = (
{
layerId = master01;
shapes = (
{
closed = 1;
nodes = (
(246,-51,l),
(359,753,l),
(109,753,l),
(98,678,l),
(268,678,l),
(176,25,l),
(7,25,l),
(-3,-51,l)
);
}
);
width = 383;
}
);
unicode = 93;
},
{
glyphname = quotedblleft;
lastChange = "2023-08-03 12:47:07 +0000";
layers = (
{
layerId = master01;
shapes = (
{
closed = 1;
nodes = (
(385,467,o),
(416,495,o),
(422,537,cs),
(428,574,o),
(405,601,o),
(367,601,cs),
(364,601,o),
(359,601,o),
(357,600,c),
(367,672,o),
(443,687,o),
(443,687,c),
(443,687,o),
(449,720,o),
(448,720,cs),
(344,720,o),
(291,621,o),
(281,553,c),
(275,512,o),
(290,467,o),
(346,467,cs)
);
},
{
closed = 1;
nodes = (
(192,467,o),
(223,495,o),
(229,537,cs),
(235,574,o),
(212,601,o),
(174,601,cs),
(171,601,o),
(166,601,o),
(164,600,c),
(174,672,o),
(250,687,o),
(250,687,c),
(250,687,o),
(256,720,o),
(255,720,cs),
(151,720,o),
(98,621,o),
(88,553,c),
(82,512,o),
(97,467,o),
(153,467,cs)
);
}
);
width = 432;
}
);
unicode = 8220;
},
{
glyphname = quotedblright;
lastChange = "2023-08-03 09:41:05 +0000";
layers = (
{
layerId = master01;
shapes = (
{
closed = 1;
nodes = (
(378,472,o),
(431,571,o),
(442,639,c),
(447,680,o),
(432,725,o),
(376,725,cs),
(337,725,o),
(306,697,o),
(300,655,cs),
(295,618,o),
(317,591,o),
(355,591,cs),
(358,591,o),
(363,591,o),
(365,592,c),
(355,520,o),
(279,505,o),
(279,505,c),
(279,505,o),
(273,472,o),
(274,472,cs)
);
},
{
closed = 1;
nodes = (
(185,472,o),
(238,571,o),
(249,639,c),
(254,680,o),
(239,725,o),
(183,725,cs),
(144,725,o),
(113,697,o),
(107,655,cs),
(102,618,o),
(124,591,o),
(162,591,cs),
(165,591,o),
(170,591,o),
(172,592,c),
(162,520,o),
(86,505,o),
(86,505,c),
(86,505,o),
(80,472,o),
(81,472,cs)
);
}
);
width = 432;
}
);
unicode = 8221;
},
{
glyphname = quoteleft;
lastChange = "2023-08-03 09:41:05 +0000";
layers = (
{
layerId = master01;
shapes = (
{
closed = 1;
nodes = (
(194,467,o),
(229,502,o),
(234,537,cs),
(239,570,o),
(212,601,o),
(179,601,cs),
(176,601,o),
(171,601,o),
(169,600,c),
(179,672,o),
(255,687,o),
(255,687,c),
(255,687,o),
(261,720,o),
(260,720,cs),
(156,720,o),
(103,621,o),
(93,553,c),
(87,512,o),
(102,467,o),
(158,467,cs)
);
}
);
width = 244;
}
);
unicode = 8216;
},
{
glyphname = quoteright;
lastChange = "2023-08-03 09:41:05 +0000";
layers = (
{
layerId = master01;
shapes = (
{
closed = 1;
nodes = (
(184,467,o),
(237,566,o),
(248,634,c),
(254,675,o),
(238,720,o),
(182,720,cs),
(146,720,o),
(111,685,o),
(106,650,cs),
(102,617,o),
(128,586,o),
(161,586,cs),
(164,586,o),
(169,586,o),
(171,587,c),
(161,515,o),
(85,500,o),
(85,500,c),
(85,500,o),
(79,467,o),
(80,467,cs)
);
}
);
width = 244;
}
);
unicode = 8217;
},
{
glyphname = guillemetleft;
lastChange = "2023-08-03 09:41:05 +0000";
layers = (
{
layerId = master01;
shapes = (
{
closed = 1;
nodes = (
(613,120,l),
(387,287,l),
(660,454,l),
(672,544,l),
(315,325,l),
(304,249,l),
(600,30,l)
);
},
{
closed = 1;
nodes = (
(357,121,l),
(131,288,l),
(404,455,l),
(416,545,l),
(59,326,l),
(48,250,l),
(344,31,l)
);
}
);
width = 687;
}
);
unicode = 171;
},
{
glyphname = guillemetright;
lastChange = "2023-08-03 09:41:05 +0000";
layers = (
{
layerId = master01;
shapes = (
{
closed = 1;
nodes = (
(639,250,l),
(650,326,l),
(353,545,l),
(341,455,l),
(566,288,l),
(294,121,l),
(281,31,l)
);
},
{
closed = 1;
nodes = (
(383,249,l),
(394,325,l),
(97,544,l),
(85,454,l),
(310,287,l),
(38,120,l),
(25,30,l)
);
}
);
width = 687;
}
);
unicode = 187;
},
{
glyphname = guilsinglleft;
lastChange = "2023-08-03 09:41:05 +0000";
layers = (
{
layerId = master01;
shapes = (
{
closed = 1;
nodes = (
(327,121,l),
(127,288,l),
(374,455,l),
(386,545,l),
(59,326,l),
(48,250,l),
(314,31,l)
);
}
);
width = 401;
}
);
unicode = 8249;
},
{
glyphname = guilsinglright;
lastChange = "2023-08-03 09:41:05 +0000";
layers = (
{
layerId = master01;
shapes = (
{
closed = 1;
nodes = (
(353,250,l),
(364,326,l),
(97,545,l),
(85,455,l),
(284,288,l),
(38,121,l),
(25,31,l)
);
}
);
width = 401;
}
);
unicode = 8250;
},
{
glyphname = quotedbl;
lastChange = "2023-08-03 09:41:05 +0000";
layers = (
{
layerId = master01;
shapes = (
{
closed = 1;
nodes = (
(350,465,l),
(363,499,o),
(416,621,o),
(421,658,c),
(427,696,o),
(403,720,o),
(372,720,cs),
(339,720,o),
(309,696,o),
(303,658,c),
(298,621,o),
(318,499,o),
(321,465,c)
);
},
{
closed = 1;
nodes = (
(184,465,l),
(197,499,o),
(250,621,o),
(255,658,c),
(261,696,o),
(237,720,o),
(206,720,cs),
(173,720,o),
(143,696,o),
(137,658,c),
(132,621,o),
(152,499,o),
(155,465,c)
);
}
);
width = 444;
},
{
associatedMasterId = master01;
layerId = "24C34471-2878-49D9-AC64-055C689381E7";
name = foreground;
shapes = (
{
closed = 1;
nodes = (
(354,459,l),
(387,579,o),
(401,624,o),
(401,651,cs),
(401,689,o),
(371,721,o),
(335,721,cs),
(298,721,o),
(266,689,o),
(266,651,cs),
(266,625,o),
(280,579,o),
(314,459,c)
);
},
{
closed = 1;
nodes = (
(153,459,l),
(186,579,o),
(200,624,o),
(200,651,cs),
(200,689,o),
(170,721,o),
(134,721,cs),
(97,721,o),
(65,689,o),
(65,651,cs),
(65,625,o),
(79,579,o),
(113,459,c)
);
}
);
width = 473;
}
);
unicode = 34;
},
{
glyphname = quotesingle;
lastChange = "2023-08-03 09:41:05 +0000";
layers = (
{
layerId = master01;
shapes = (
{
closed = 1;
nodes = (
(184,465,l),
(197,499,o),
(250,621,o),
(255,658,c),
(261,696,o),
(237,720,o),
(206,720,cs),
(173,720,o),
(143,696,o),
(137,658,c),
(132,621,o),
(152,499,o),
(155,465,c)
);
}
);
width = 278;
},
{
associatedMasterId = master01;
layerId = "9EC1078A-27A8-4ABD-A85E-C1F27DFD7ADE";
name = foreground;
shapes = (
{
closed = 1;
nodes = (
(158,459,l),
(191,579,o),
(205,624,o),
(205,651,cs),
(205,689,o),
(175,721,o),
(139,721,cs),
(102,721,o),
(70,689,o),
(70,651,cs),
(70,625,o),
(84,579,o),
(118,459,c)
);
}
);
width = 282;
}
);
unicode = 39;
},
{
glyphname = at;
lastChange = "2023-08-03 09:41:05 +0000";
layers = (
{
layerId = master01;
shapes = (
{
closed = 1;
nodes = (
(583,-151,o),
(661,-112,o),
(765,-56,c),
(736,8,l),
(645,-45,o),
(562,-77,o),
(456,-77,cs),
(243,-77,o),
(142,84,o),
(169,281,cs),
(197,478,o),
(344,638,o),
(557,638,cs),
(766,638,o),
(858,512,o),
(835,348,cs),
(823,264,o),
(782,149,o),
(698,149,cs),
(672,149,o),
(648,171,o),
(655,207,c),
(731,502,l),
(653,502,l),
(632,419,l),
(623,479,o),
(570,512,o),
(517,512,cs),
(388,512,o),
(301,402,o),
(272,294,cs),
(240,169,o),
(287,67,o),
(400,67,cs),
(458,67,o),
(536,99,o),
(568,144,c),
(575,103,o),
(607,67,o),
(675,67,cs),
(840,67,o),
(905,249,o),
(919,348,cs),
(946,539,o),
(846,712,o),
(567,712,cs),
(288,712,o),
(118,512,o),
(85,279,cs),
(54,57,o),
(166,-151,o),
(446,-151,cs)
);
},
{
closed = 1;
nodes = (
(352,144,o),
(335,218,o),
(354,292,cs),
(373,366,o),
(429,437,o),
(509,437,cs),
(590,437,o),
(610,362,o),
(591,288,cs),
(572,214,o),
(517,144,o),
(434,144,cs)
);
}
);
width = 977;
}
);
unicode = 64;
},
{
glyphname = ampersand;
lastChange = "2023-08-03 09:41:05 +0000";
layers = (
{
hints = (
{
horizontal = 1;
origin = (0,38);
target = (1,9);
type = Stem;
},
{
horizontal = 1;
origin = (2,5);
target = (0,26);
type = Stem;
},
{
horizontal = 1;
origin = (0,5);
target = (0,9);
type = Stem;
},
{
origin = (0,35);
target = (1,2);
type = Stem;
},
{
origin = (2,8);
target = (0,23);
type = Stem;
},
{
origin = (0,16);
target = (0,15);
type = Stem;
},
{
origin = (0,29);
target = (2,2);
type = Stem;
}
);
layerId = master01;
shapes = (
{
closed = 1;
nodes = (
(326,-12,o),
(386,15,o),
(436,70,c),
(472,17,o),
(515,0,o),
(573,0,cs),
(580,0,o),
(580,0,o),
(589,0,c),
(599,70,l),
(537,70,o),
(517,85,o),
(486,128,c),
(524,182,o),
(561,262,o),
(572,332,c),
(500,332,l),
(493,285,o),
(470,226,o),
(443,186,c),
(338,359,l),
(443,423,o),
(505,478,o),
(517,564,cs),
(525,623,o),
(484,714,o),
(376,713,cs),
(261,712,o),
(188,629,o),
(177,549,cs),
(168,486,o),
(203,410,o),
(233,372,c),
(132,316,o),
(77,261,o),
(63,168,cs),
(48,58,o),
(118,-12,o),
(248,-12,cs)
);
},
{
closed = 1;
nodes = (
(177,66,o),
(134,115,o),
(143,179,cs),
(151,235,o),
(200,280,o),
(269,320,c),
(390,127,l),
(353,85,o),
(310,66,o),
(259,66,cs)
);
},
{
closed = 1;
nodes = (
(274,458,o),
(247,492,o),
(255,551,cs),
(262,602,o),
(301,641,o),
(365,641,cs),
(407,641,o),
(445,604,o),
(438,555,cs),
(431,503,o),
(394,468,o),
(302,412,c)
);
}
);
width = 668;
},
{
associatedMasterId = master01;
layerId = "BC46DC87-AB29-432C-8E82-6AD56269F461";
name = foreground;
shapes = (
{
closed = 1;
nodes = (
(506,-1,l),
(628,-1,l),
(311,350,l),
(259,405,o),
(185,460,o),
(185,534,c),
(185,582,o),
(210,640,o),
(286,640,cs),
(344,640,o),
(381,596,o),
(381,547,cs),
(381,495,o),
(339,466,o),
(265,418,c),
(130,341,o),
(50,284,o),
(50,177,c),
(50,54,o),
(155,-11,o),
(284,-11,c),
(492,-11,o),
(570,203,o),
(575,333,c),
(486,333,l),
(486,196,o),
(382,79,o),
(284,79,c),
(204,79,o),
(144,107,o),
(144,180,c),
(144,277,o),
(257,312,o),
(352,378,c),
(417,423,o),
(470,481,o),
(470,560,c),
(470,619,o),
(414,713,o),
(287,713,c),
(150,713,o),
(89,621,o),
(89,541,c),
(89,471,o),
(117,424,o),
(211,323,c)
);
}
);
width = 648;
}
);
unicode = 38;
},
{
glyphname = paragraph;
lastChange = "2023-08-03 09:41:05 +0000";
layers = (
{
anchors = (
{
name = top;
pos = (477,712);
}
);
hints = (
{
horizontal = 1;
origin = (0,13);
target = (1,3);
type = Stem;
},
{
horizontal = 1;
origin = (0,6);
target = (1,0);
type = Stem;
},
{
horizontal = 1;
origin = (0,13);
target = (0,2);
type = Stem;
},
{
origin = (1,2);
target = (0,0);
type = Stem;
},
{
origin = (1,2);
target = (0,2);
type = Stem;
},
{
origin = (1,3);
target = (0,2);
type = Stem;
}
);
layerId = master01;
shapes = (
{
closed = 1;
nodes = (
(568,0,l),
(579,76,l),
(460,76,l),
(537,624,l),
(656,624,l),
(666,700,l),
(287,700,ls),
(205,700,o),
(114,637,o),
(100,535,cs),
(85,429,o),
(159,371,o),
(241,371,c),
(189,0,l)
);
},
{
closed = 1;
nodes = (
(365,624,l),
(449,624,l),
(371,74,l),
(287,74,l)
);
}
);
width = 668;
}
);
unicode = 182;
},
{
glyphname = section;
lastChange = "2023-08-03 09:41:05 +0000";
layers = (
{
layerId = master01;
shapes = (
{
closed = 1;
nodes = (
(390,62,o),
(468,130,o),
(480,211,cs),
(507,404,o),
(198,430,o),
(214,542,cs),
(220,584,o),
(258,624,o),
(323,624,cs),
(395,624,o),
(428,588,o),
(423,555,c),
(509,555,l),
(518,617,o),
(479,700,o),
(334,700,cs),
(212,700,o),
(140,612,o),
(130,539,cs),
(102,345,o),
(413,344,o),
(395,211,cs),
(387,161,o),
(334,120,o),
(292,114,c),
(298,53,l)
);
},
{
closed = 1;
nodes = (
(333,-230,o),
(405,-142,o),
(415,-69,cs),
(442,125,o),
(132,126,o),
(150,259,cs),
(157,309,o),
(211,350,o),
(253,356,c),
(246,417,l),
(155,408,o),
(77,340,o),
(65,259,cs),
(38,66,o),
(346,40,o),
(331,-72,cs),
(325,-114,o),
(287,-154,o),
(222,-154,cs),
(150,-154,o),
(117,-118,o),
(122,-85,c),
(36,-85,l),
(27,-147,o),
(66,-230,o),
(211,-230,cs)
);
}
);
width = 549;
}
);
unicode = 167;
},
{
glyphname = copyright;
lastChange = "2023-08-03 09:41:05 +0000";
layers = (
{
layerId = master01;
shapes = (
{
closed = 1;
nodes = (
(592,-12,o),
(745,164,o),
(771,353,cs),
(798,544,o),
(695,720,o),
(469,720,cs),
(243,720,o),
(90,544,o),
(63,353,cs),
(37,164,o),
(140,-12,o),
(366,-12,cs)
);
},
{
closed = 1;
nodes = (
(461,151,o),
(525,188,o),
(560,252,c),
(502,274,l),
(481,237,o),
(450,222,o),
(402,222,c),
(333,222,o),
(306,274,o),
(317,353,cs),
(328,428,o),
(365,483,o),
(439,483,c),
(487,483,o),
(514,468,o),
(524,430,c),
(589,453,l),
(572,517,o),
(519,554,o),
(451,554,c),
(355,554,o),
(259,477,o),
(241,351,cs),
(224,228,o),
(298,151,o),
(394,151,c)
);
},
{
closed = 1;
nodes = (
(221,64,o),
(120,184,o),
(143,353,cs),
(167,518,o),
(301,644,o),
(458,644,cs),
(615,644,o),
(715,518,o),
(691,353,cs),
(668,184,o),
(533,64,o),
(377,64,cs)
);
}
);
width = 806;
}
);
unicode = 169;
},
{
glyphname = registered;
lastChange = "2023-08-03 09:41:05 +0000";
layers = (
{
layerId = master01;
shapes = (
{
closed = 1;
nodes = (
(570,126,o),
(694,269,o),
(715,422,cs),
(737,577,o),
(653,720,o),
(470,720,cs),
(287,720,o),
(163,577,o),
(141,422,cs),
(120,269,o),
(204,126,o),
(387,126,cs)
);
},
{
closed = 1;
nodes = (
(275,199,o),
(197,291,o),
(215,422,cs),
(233,551,o),
(338,646,o),
(460,646,cs),
(582,646,o),
(659,551,o),
(641,422,cs),
(623,291,o),
(519,199,o),
(397,199,cs)
);
},
{
closed = 1;
nodes = (
(365,279,l),
(380,386,l),
(409,386,l),
(458,279,l),
(528,279,l),
(471,396,l),
(500,407,o),
(531,435,o),
(538,487,cs),
(545,534,o),
(511,571,o),
(451,571,cs),
(345,571,l),
(304,279,l)
);
},
{
closed = 1;
nodes = (
(398,517,l),
(431,517,ls),
(466,517,o),
(481,505,o),
(478,482,c),
(473,452,o),
(455,443,o),
(420,443,cs),
(387,443,l)
);
}
);
width = 808;
}
);
unicode = 174;
},
{
glyphname = trademark;
lastChange = "2023-08-03 09:41:05 +0000";
layers = (
{
hints = (
{
horizontal = 1;
origin = (1,4);
target = (1,5);
type = Stem;
},
{
origin = (1,7);
target = (1,0);
type = Stem;
},
{
horizontal = 1;
origin = (0,12);
target = (0,11);
type = Stem;
},
{
origin = (0,12);
target = (0,0);
type = Stem;
},
{
place = (1135,53);
type = Stem;
}
);
layerId = master01;
shapes = (
{
closed = 1;
nodes = (
(444,319,l),
(479,573,l),
(548,353,l),
(589,353,l),
(720,573,l),
(685,319,l),
(755,319,l),
(808,700,l),
(723,700,l),
(586,471,l),
(512,700,l),
(427,700,l),
(374,319,l)
);
},
{
closed = 1;
nodes = (
(212,319,l),
(257,640,l),
(364,640,l),
(372,700,l),
(91,700,l),
(83,640,l),
(187,640,l),
(142,319,l)
);
}
);
width = 773;
}
);
unicode = 8482;
},
{
glyphname = degree;
lastChange = "2023-08-03 09:41:05 +0000";
layers = (
{
layerId = master01;
shapes = (
{
closed = 1;
nodes = (
(402,471,o),
(454,531,o),
(463,595,cs),
(473,661,o),
(437,720,o),
(360,720,cs),
(284,720,o),
(232,661,o),
(222,595,cs),
(213,531,o),
(249,471,o),
(325,471,cs)
);
},
{
closed = 1;
nodes = (
(301,535,o),
(280,560,o),
(284,595,cs),
(289,630,o),
(318,656,o),
(351,656,cs),
(385,656,o),
(406,630,o),
(401,595,cs),
(397,560,o),
(368,535,o),
(334,535,cs)
);
}
);
width = 600;
}
);
unicode = 176;
},
{
glyphname = bar;
lastChange = "2023-08-03 09:41:05 +0000";
layers = (
{
layerId = master01;
shapes = (
{
closed = 1;
nodes = (
(148,-12,l),
(251,720,l),
(163,720,l),
(60,-12,l)
);
}
);
width = 282;
}
);
unicode = 124;
},
{
glyphname = cent;
lastChange = "2023-08-03 09:41:05 +0000";
layers = (
{
layerId = master01;
shapes = (
{
closed = 1;
nodes = (
(356,95,o),
(440,143,o),
(487,226,c),
(415,256,l),
(387,205,o),
(339,171,o),
(279,171,c),
(178,171,o),
(139,255,o),
(153,359,cs),
(168,463,o),
(230,544,o),
(331,544,c),
(391,544,o),
(430,510,o),
(443,459,c),
(524,489,l),
(500,572,o),
(432,620,o),
(344,620,c),
(218,620,o),
(92,520,o),
(69,356,cs),
(46,195,o),
(144,95,o),
(270,95,c)
);
},
{
closed = 1;
nodes = (
(306,0,l),
(327,152,l),
(247,152,l),
(226,0,l)
);
},
{
closed = 1;
nodes = (
(377,548,l),
(398,700,l),
(318,700,l),
(297,548,l)
);
}
);
width = 563;
},
{
associatedMasterId = master01;
layerId = "67A10FD7-782D-4391-978E-3D650EA85A7F";
name = foreground;
width = 563;
}
);
unicode = 162;
},
{
glyphname = dollar;
lastChange = "2023-08-03 09:41:05 +0000";
layers = (
{
layerId = master01;
shapes = (
{
closed = 1;
nodes = (
(442,-12,o),
(565,58,o),
(584,195,c),
(605,340,o),
(510,370,o),
(384,395,c),
(294,413,o),
(196,433,o),
(208,521,cs),
(218,591,o),
(301,632,o),
(376,632,cs),
(476,632,o),
(518,572,o),
(520,513,c),
(622,513,l),
(630,603,o),
(567,712,o),
(394,712,c),
(229,712,o),
(134,618,o),
(119,516,c),
(100,380,o),
(188,338,o),
(295,317,c),
(404,300,o),
(509,287,o),
(495,186,c),
(486,114,o),
(396,68,o),
(308,68,c),
(215,70,o),
(158,129,o),
(156,214,c),
(53,214,l),
(50,99,o),
(122,-12,o),
(297,-12,c)
);
},
{
closed = 1;
nodes = (
(322,-91,l),
(446,791,l),
(365,791,l),
(241,-91,l)
);
}
);
width = 643;
},
{
associatedMasterId = master01;
layerId = "B77E3584-C066-4B83-9C04-DBBF2850799D";
name = foreground;
shapes = (
{
closed = 1;
nodes = (
(271,420,o),
(184,434,o),
(184,522,cs),
(184,592,o),
(247,626,o),
(322,626,cs),
(422,626,o),
(473,573,o),
(483,514,c),
(585,514,l),
(580,604,o),
(502,713,o),
(329,713,c),
(164,713,o),
(82,619,o),
(82,517,c),
(82,369,o),
(176,335,o),
(286,314,c),
(397,297,o),
(492,288,o),
(492,187,c),
(493,115,o),
(422,78,o),
(334,78,c),
(240,80,o),
(175,130,o),
(161,215,c),
(58,215,l),
(71,100,o),
(159,-11,o),
(334,-11,c),
(479,-11,o),
(592,59,o),
(592,196,c),
(592,341,o),
(493,377,o),
(364,402,c)
);
},
{
closed = 1;
nodes = (
(370,-91,l),
(370,791,l),
(289,791,l),
(289,-91,l)
);
}
);
width = 643;
}
);
unicode = 36;
},
{
glyphname = euro;
lastChange = "2023-08-03 09:41:05 +0000";
layers = (
{
layerId = master01;
shapes = (
{
closed = 1;
nodes = (
(402,-13,o),
(499,40,o),
(557,121,c),
(482,163,l),
(440,105,o),
(372,67,o),
(290,67,cs),
(146,67,o),
(89,193,o),
(112,356,cs),
(135,519,o),
(227,643,o),
(371,643,cs),
(453,643,o),
(510,605,o),
(536,547,c),
(623,589,l),
(588,670,o),
(505,723,o),
(382,723,cs),
(162,723,o),
(48,539,o),
(22,355,cs),
(-4,171,o),
(59,-13,o),
(279,-13,cs)
);
},
{
closed = 1;
nodes = (
(427,225,l),
(459,305,l),
(-43,305,l),
(-75,225,l)
);
},
{
closed = 1;
nodes = (
(448,370,l),
(479,450,l),
(-23,450,l),
(-54,370,l)
);
}
);
width = 600;
}
);
unicode = 8364;
},
{
glyphname = sterling;
lastChange = "2023-08-03 09:41:05 +0000";
layers = (
{
layerId = master01;
shapes = (
{
closed = 1;
nodes = (
(306,0,ls),
(428,0,o),
(495,74,o),
(532,158,c),
(458,179,l),
(435,124,o),
(390,80,o),
(313,80,cs),
(126,80,l),
(152,97,o),
(235,167,o),
(251,278,cs),
(268,399,o),
(173,440,o),
(185,528,cs),
(193,584,o),
(249,632,o),
(327,632,c),
(405,632,o),
(442,576,o),
(434,519,c),
(522,519,l),
(527,555,o),
(523,589,o),
(511,615,c),
(484,677,o),
(417,712,o),
(337,712,c),
(222,712,o),
(116,647,o),
(99,528,cs),
(83,413,o),
(175,381,o),
(162,289,cs),
(149,192,o),
(80,119,o),
(21,80,c),
(10,0,l)
);
},
{
closed = 1;
nodes = (
(399,281,l),
(411,361,l),
(77,361,l),
(65,281,l)
);
}
);
width = 568;
},
{
associatedMasterId = master01;
layerId = "39949623-1A73-454F-BBEA-2B76B8F5BB59";
name = foreground;
width = 614;
}
);
unicode = 163;
},
{
glyphname = yen;
lastChange = "2023-08-03 09:41:05 +0000";
layers = (
{
layerId = master01;
shapes = (
{
closed = 1;
nodes = (
(310,0,l),
(350,309,l),
(646,700,l),
(553,700,l),
(319,390,l),
(174,700,l),
(74,700,l),
(268,309,l),
(222,0,l)
);
},
{
closed = 1;
nodes = (
(501,163,l),
(512,243,l),
(80,243,l),
(69,163,l)
);
},
{
closed = 1;
nodes = (
(521,308,l),
(532,388,l),
(100,388,l),
(89,308,l)
);
}
);
width = 594;
}
);
unicode = 165;
},
{
glyphname = plus;
lastChange = "2023-08-03 09:41:05 +0000";
layers = (
{
hints = (
{
horizontal = 1;
origin = (1,3);
target = (1,2);
type = Stem;
},
{
origin = (0,3);
target = (0,0);
type = Stem;
}
);
layerId = master01;
shapes = (
{
closed = 1;
nodes = (
(297,84,l),
(357,512,l),
(269,512,l),
(209,84,l)
);
},
{
closed = 1;
nodes = (
(475,258,l),
(486,338,l),
(89,338,l),
(78,258,l)
);
}
);
width = 550;
},
{
associatedMasterId = master01;
layerId = "A5CB3561-8809-4C40-98EF-8A07A48E9182";
name = foreground;
shapes = (
{
closed = 1;
nodes = (
(457,249,l),
(457,347,l),
(60,347,l),
(60,249,l)
);
},
{
closed = 1;
nodes = (
(307,512,l),
(209,512,l),
(209,84,l),
(307,84,l)
);
}
);
width = 517;
}
);
unicode = 43;
},
{
glyphname = minus;
lastChange = "2023-08-03 09:41:05 +0000";
layers = (
{
layerId = master01;
shapes = (
{
closed = 1;
nodes = (
(491,255,l),
(502,335,l),
(73,335,l),
(62,255,l)
);
}
);
width = 550;
}
);
unicode = 8722;
},
{
glyphname = multiply;
lastChange = "2023-08-03 09:41:05 +0000";
layers = (
{
layerId = master01;
shapes = (
{
closed = 1;
nodes = (
(279,277,l),
(416,118,l),
(476,170,l),
(338,329,l),
(520,488,l),
(476,540,l),
(293,381,l),
(157,540,l),
(97,488,l),
(234,329,l),
(53,170,l),
(97,118,l)
);
}
);
width = 550;
}
);
unicode = 215;
},
{
glyphname = divide;
lastChange = "2023-08-03 09:41:05 +0000";
layers = (
{
layerId = master01;
shapes = (
{
closed = 1;
nodes = (
(480,220,l),
(491,300,l),
(73,300,l),
(62,220,l)
);
},
{
closed = 1;
nodes = (
(275,1,o),
(307,30,o),
(312,64,cs),
(317,99,o),
(293,128,o),
(259,128,cs),
(224,128,o),
(191,99,o),
(186,64,cs),
(181,30,o),
(206,1,o),
(241,1,cs)
);
},
{
closed = 1;
nodes = (
(329,385,o),
(361,414,o),
(366,448,cs),
(371,483,o),
(347,512,o),
(313,512,cs),
(278,512,o),
(245,483,o),
(240,448,cs),
(235,414,o),
(260,385,o),
(295,385,cs)
);
}
);
width = 550;
}
);
unicode = 247;
},
{
glyphname = equal;
lastChange = "2023-08-03 09:41:05 +0000";
layers = (
{
hints = (
{
horizontal = 1;
place = (86,240);
target = (0,3);
type = Stem;
},
{
horizontal = 1;
origin = (0,3);
target = (0,2);
type = Stem;
},
{
origin = (0,3);
target = (0,0);
type = Stem;
}
);
layerId = master01;
shapes = (
{
closed = 1;
nodes = (
(474,326,l),
(485,406,l),
(110,406,l),
(99,326,l)
);
},
{
closed = 1;
nodes = (
(446,136,l),
(457,216,l),
(82,216,l),
(71,136,l)
);
}
);
width = 550;
},
{
associatedMasterId = master01;
layerId = "FCFF93B1-7D38-4FD5-A711-74071FE2EC06";
name = foreground;
shapes = (
{
closed = 1;
nodes = (
(443,320,l),
(443,418,l),
(68,418,l),
(68,320,l)
);
},
{
closed = 1;
nodes = (
(443,134,l),
(443,232,l),
(68,232,l),
(68,134,l)
);
}
);
width = 508;
}
);
unicode = 61;
},
{
glyphname = greater;
lastChange = "2023-08-03 09:41:05 +0000";
layers = (
{
layerId = master01;
shapes = (
{
closed = 1;
nodes = (
(502,249,l),
(513,325,l),
(89,544,l),
(77,459,l),
(401,287,l),
(29,115,l),
(17,30,l)
);
}
);
width = 550;
}
);
unicode = 62;
},
{
glyphname = less;
lastChange = "2023-08-03 09:41:05 +0000";
layers = (
{
layerId = master01;
shapes = (
{
closed = 1;
nodes = (
(483,115,l),
(159,287,l),
(531,459,l),
(543,544,l),
(59,325,l),
(48,249,l),
(471,30,l)
);
}
);
width = 550;
}
);
unicode = 60;
},
{
glyphname = asciitilde;
lastChange = "2023-08-03 09:41:05 +0000";
layers = (
{
layerId = master01;
shapes = (
{
closed = 1;
nodes = (
(418,218,o),
(461,260,o),
(483,292,c),
(445,341,l),
(429,325,o),
(406,292,o),
(360,292,cs),
(320,292,o),
(279,354,o),
(214,354,cs),
(147,354,o),
(98,313,o),
(77,281,c),
(115,231,l),
(132,248,o),
(154,281,o),
(198,281,cs),
(239,281,o),
(283,218,o),
(359,218,cs)
);
}
);
width = 550;
}
);
unicode = 126;
},
{
glyphname = asciicircum;
lastChange = "2023-08-03 09:41:05 +0000";
layers = (
{
layerId = master01;
shapes = (
{
closed = 1;
nodes = (
(395,699,l),
(347,699,l),
(101,419,l),
(193,419,l),
(360,619,l),
(470,418,l),
(563,418,l)
);
}
);
width = 600;
}
);
unicode = 94;
},
{
glyphname = percent;
lastChange = "2023-08-03 09:41:05 +0000";
layers = (
{
hints = (
{
horizontal = 1;
origin = (0,0);
target = (0,0);
type = Stem;
},
{
horizontal = 1;
place = (214,34);
type = Stem;
},
{
horizontal = 1;
origin = (1,11);
target = (2,11);
type = Stem;
},
{
horizontal = 1;
origin = (1,5);
target = (2,5);
type = Stem;
},
{
origin = (1,8);
target = (2,2);
type = Stem;
},
{
origin = (2,8);
target = (1,2);
type = Stem;
},
{
place = (490,111);
target = (0,2);
type = Stem;
},
{
place = (722,41);
type = Stem;
}
);
layerId = master01;
shapes = (
{
closed = 1;
nodes = (
(285,0,l),
(679,720,l),
(601,720,l),
(207,0,l)
);
},
{
closed = 1;
nodes = (
(312,391,o),
(394,450,o),
(409,556,cs),
(423,659,o),
(362,720,o),
(280,720,c),
(197,720,o),
(115,658,o),
(101,555,cs),
(86,449,o),
(148,391,o),
(230,391,c)
);
},
{
closed = 1;
nodes = (
(188,458,o),
(168,507,o),
(175,555,cs),
(182,605,o),
(215,652,o),
(269,652,c),
(321,652,o),
(342,606,o),
(335,556,cs),
(328,509,o),
(291,458,o),
(240,458,c)
);
},
{
closed = 1;
nodes = (
(693,-9,o),
(775,50,o),
(790,156,cs),
(804,259,o),
(743,320,o),
(661,320,c),
(578,320,o),
(496,258,o),
(482,155,cs),
(467,49,o),
(529,-9,o),
(611,-9,c)
);
},
{
closed = 1;
nodes = (
(569,58,o),
(549,107,o),
(556,155,cs),
(563,205,o),
(596,252,o),
(650,252,c),
(702,252,o),
(723,206,o),
(716,156,cs),
(709,109,o),
(672,58,o),
(621,58,c)
);
}
);
width = 861;
},
{
associatedMasterId = master01;
layerId = "B4672107-219B-492B-AE8A-C8526732ACAF";
name = foreground;
shapes = (
{
closed = 1;
nodes = (
(351,0,l),
(644,720,l),
(557,720,l),
(264,0,l)
);
},
{
closed = 1;
nodes = (
(323,391,o),
(397,450,o),
(397,556,cs),
(397,659,o),
(327,720,o),
(245,720,c),
(162,720,o),
(89,658,o),
(89,555,cs),
(89,449,o),
(159,391,o),
(241,391,c)
);
},
{
closed = 1;
nodes = (
(295,651,o),
(321,605,o),
(321,556,cs),
(321,510,o),
(292,460,o),
(242,460,c),
(191,460,o),
(166,508,o),
(166,555,cs),
(166,604,o),
(191,651,o),
(244,651,c)
);
},
{
closed = 1;
nodes = (
(759,-11,o),
(833,48,o),
(833,154,cs),
(833,257,o),
(763,318,o),
(681,318,c),
(598,318,o),
(525,256,o),
(525,153,cs),
(525,47,o),
(595,-11,o),
(677,-11,c)
);
},
{
closed = 1;
nodes = (
(731,249,o),
(757,203,o),
(757,154,cs),
(757,108,o),
(728,58,o),
(678,58,c),
(627,58,o),
(602,106,o),
(602,153,cs),
(602,202,o),
(627,249,o),
(680,249,c)
);
}
);
width = 918;
}
);
unicode = 37;
},
{
glyphname = brevecomb_hookabovecomb;
lastChange = "2023-08-03 09:41:05 +0000";
layers = (
{
layerId = master01;
shapes = (
{
closed = 1;
nodes = (
(395,739,l),
(399,767,l),
(441,772,o),
(482,802,o),
(488,847,cs),
(498,918,o),
(432,939,o),
(354,934,c),
(347,881,l),
(390,885,o),
(432,874,o),
(428,847,cs),
(424,816,o),
(385,805,o),
(342,805,c),
(333,739,l)
);
},
{
ref = brevecomb;
}
);
width = 600;
}
);
},
{
glyphname = dieresiscomb;
lastChange = "2023-08-03 09:41:05 +0000";
layers = (
{
anchors = (
{
name = _top;
pos = (198,512);
}
);
guides = (
{
pos = (-27,712);
},
{
pos = (-22,557);
},
{
pos = (-27,636);
}
);
layerId = master01;
shapes = (
{
closed = 1;
nodes = (
(327,581,o),
(354,606,o),
(358,636,cs),
(362,666,o),
(342,691,o),
(312,691,cs),
(282,691,o),
(253,666,o),
(249,636,cs),
(245,606,o),
(267,581,o),
(297,581,cs)
);
},
{
closed = 1;
nodes = (
(152,581,o),
(179,606,o),
(183,636,cs),
(187,666,o),
(167,691,o),
(137,691,cs),
(107,691,o),
(78,666,o),
(74,636,cs),
(70,606,o),
(92,581,o),
(122,581,cs)
);
}
);
width = 324;
}
);
unicode = 776;
},
{
glyphname = dotaccentcomb;
lastChange = "2023-08-03 09:41:05 +0000";
layers = (
{
anchors = (
{
name = _top;
pos = (111,512);
}
);
guides = (
{
pos = (-27,712);
},
{
pos = (-22,557);
},
{
pos = (-27,636);
}
);
layerId = master01;
shapes = (
{
closed = 1;
nodes = (
(151,581,o),
(178,606,o),
(182,636,cs),
(186,666,o),
(166,691,o),
(136,691,cs),
(106,691,o),
(77,666,o),
(73,636,cs),
(69,606,o),
(91,581,o),
(121,581,cs)
);
}
);
width = 147;
}
);
unicode = 775;
},
{
glyphname = gravecomb;
lastChange = "2023-08-03 09:41:05 +0000";
layers = (
{
anchors = (
{
name = _top;
pos = (215,512);
}
);
guides = (
{
pos = (-27,712);
},
{
pos = (-22,557);
}
);
layerId = master01;
shapes = (
{
closed = 1;
nodes = (
(258,557,l),
(196,712,l),
(86,712,l),
(186,557,l)
);
}
);
width = 237;
}
);
unicode = 768;
},
{
glyphname = acutecomb;
lastChange = "2023-08-03 09:41:05 +0000";
layers = (
{
anchors = (
{
name = _top;
pos = (93,512);
}
);
layerId = master01;
shapes = (
{
closed = 1;
nodes = (
(139,557,l),
(283,712,l),
(173,712,l),
(67,557,l)
);
}
);
width = 237;
}
);
unicode = 769;
},
{
glyphname = hungarumlautcomb;
lastChange = "2023-08-03 09:41:05 +0000";
layers = (
{
anchors = (
{
name = _top;
pos = (290,512);
}
);
layerId = master01;
shapes = (
{
closed = 1;
nodes = (
(428,557,l),
(572,712,l),
(452,712,l),
(346,557,l)
);
},
{
closed = 1;
nodes = (
(236,557,l),
(380,712,l),
(260,712,l),
(154,557,l)
);
}
);
width = 600;
}
);
unicode = 779;
},
{
glyphname = caroncomb.alt;
lastChange = "2023-08-03 12:06:26 +0000";
layers = (
{
anchors = (
{
name = _topright;
pos = (188,720);
}
);
layerId = master01;
shapes = (
{
closed = 1;
nodes = (
(233,529,l),
(327,712,l),
(220,712,l),
(164,529,l)
);
}
);
width = 320;
}
);
},
{
glyphname = circumflexcomb;
lastChange = "2023-08-03 09:41:05 +0000";
layers = (
{
anchors = (
{
name = _top;
pos = (248,512);
}
);
layerId = master01;
shapes = (
{
closed = 1;
nodes = (
(178,557,l),
(269,648,l),
(334,557,l),
(416,557,l),
(303,712,l),
(253,712,l),
(95,557,l)
);
}
);
width = 420;
},
{
associatedMasterId = master01;
layerId = "20458CA3-7F03-4177-ABD8-708FA8DF63BB";
name = "3 Aug 21, 16:24";
shapes = (
{
closed = 1;
nodes = (
(104,557,l),
(190,557,l),
(353,745,l),
(267,745,l)
);
},
{
closed = 1;
nodes = (
(216,745,l),
(379,557,l),
(465,557,l),
(302,745,l)
);
},
{
closed = 1;
nodes = (
(104,557,l),
(190,557,l),
(353,745,l),
(267,745,l)
);
},
{
closed = 1;
nodes = (
(216,745,l),
(379,557,l),
(465,557,l),
(302,745,l)
);
}
);
width = 600;
}
);
unicode = 770;
},
{
glyphname = caroncomb;
lastChange = "2023-08-03 09:41:05 +0000";
layers = (
{
anchors = (
{
name = _top;
pos = (250,512);
}
);
guides = (
{
pos = (-27,712);
},
{
pos = (-22,557);
},
{
pos = (-27,636);
}
);
layerId = master01;
shapes = (
{
closed = 1;
nodes = (
(281,557,l),
(438,712,l),
(356,712,l),
(265,621,l),
(200,712,l),
(117,712,l),
(231,557,l)
);
}
);
width = 420;
}
);
unicode = 780;
},
{
glyphname = brevecomb;
lastChange = "2023-08-03 09:41:05 +0000";
layers = (
{
anchors = (
{
name = _top;
pos = (344,512);
}
);
guides = (
{
pos = (-27,712);
},
{
pos = (-22,557);
}
);
layerId = master01;
shapes = (
{
closed = 1;
nodes = (
(445,557,o),
(511,631,o),
(522,712,c),
(450,712,l),
(444,668,o),
(410,627,o),
(359,627,cs),
(310,627,o),
(287,668,o),
(293,712,c),
(221,712,l),
(210,631,o),
(254,557,o),
(349,557,cs)
);
}
);
width = 600;
}
);
unicode = 774;
},
{
glyphname = ringcomb;
lastChange = "2023-08-03 09:41:05 +0000";
layers = (
{
anchors = (
{
name = _top;
pos = (155,512);
}
);
guides = (
{
pos = (-27,712);
},
{
pos = (-22,557);
}
);
layerId = master01;
shapes = (
{
closed = 1;
nodes = (
(225,557,o),
(269,607,o),
(277,660,cs),
(284,715,o),
(254,764,o),
(190,764,cs),
(127,764,o),
(83,715,o),
(76,660,cs),
(68,607,o),
(98,557,o),
(161,557,cs)
);
},
{
closed = 1;
nodes = (
(144,614,o),
(128,633,o),
(132,660,cs),
(135,687,o),
(157,707,o),
(182,707,c),
(208,707,o),
(224,687,o),
(221,660,cs),
(217,633,o),
(195,614,o),
(169,614,cs)
);
}
);
width = 237;
}
);
unicode = 778;
},
{
glyphname = tildecomb;
lastChange = "2023-08-03 09:41:05 +0000";
layers = (
{
anchors = (
{
name = _top;
pos = (336,512);
}
);
guides = (
{
pos = (-27,712);
},
{
pos = (-22,557);
},
{
pos = (-26,636);
}
);
layerId = master01;
shapes = (
{
closed = 1;
nodes = (
(468,574,o),
(508,614,o),
(526,643,c),
(495,688,l),
(481,673,o),
(461,644,o),
(423,644,cs),
(389,644,o),
(340,702,o),
(297,702,cs),
(243,702,o),
(202,662,o),
(184,633,c),
(216,588,l),
(229,603,o),
(249,632,o),
(287,632,cs),
(321,632,o),
(371,574,o),
(414,574,cs)
);
}
);
width = 600;
}
);
unicode = 771;
},
{
glyphname = macroncomb;
lastChange = "2023-08-03 09:41:05 +0000";
layers = (
{
anchors = (
{
name = _top;
pos = (338,512);
}
);
guides = (
{
pos = (-27,712);
},
{
pos = (-22,557);
},
{
pos = (-27,636);
}
);
layerId = master01;
shapes = (
{
closed = 1;
nodes = (
(500,599,l),
(510,673,l),
(211,673,l),
(201,599,l)
);
}
);
width = 600;
}
);
unicode = 772;
},
{
glyphname = hookabovecomb;
lastChange = "2023-08-03 09:41:05 +0000";
layers = (
{
anchors = (
{
name = _top;
pos = (327,500);
}
);
guides = (
{
pos = (-27,712);
},
{
pos = (-22,557);
},
{
pos = (-27,636);
},
{
pos = (-27,762);
}
);
layerId = master01;
shapes = (
{
closed = 1;
nodes = (
(371,557,l),
(375,586,l),
(419,591,o),
(460,622,o),
(467,668,cs),
(477,740,o),
(409,762,o),
(329,757,c),
(322,703,l),
(366,707,o),
(409,695,o),
(405,668,cs),
(400,636,o),
(361,625,o),
(317,625,c),
(307,557,l)
);
}
);
width = 600;
}
);
unicode = 777;
},
{
glyphname = commaturnedabovecomb;
lastChange = "2023-08-03 09:41:05 +0000";
layers = (
{
anchors = (
{
name = _top;
pos = (357,512);
}
);
layerId = master01;
shapes = (
{
closed = 1;
nodes = (
(393,555,o),
(421,584,o),
(425,612,cs),
(429,638,o),
(407,664,o),
(380,664,cs),
(379,664,o),
(374,664,o),
(372,663,c),
(380,721,o),
(442,733,o),
(442,733,c),
(442,733,o),
(447,760,o),
(446,760,cs),
(377,760,o),
(320,705,o),
(309,625,cs),
(303,587,o),
(327,555,o),
(364,555,cs)
);
}
);
width = 600;
}
);
unicode = 786;
},
{
glyphname = dotbelowcomb;
lastChange = "2023-08-03 09:41:05 +0000";
layers = (
{
anchors = (
{
name = _bottom;
pos = (40,0);
}
);
layerId = master01;
shapes = (
{
closed = 1;
nodes = (
(45,-174,o),
(73,-149,o),
(77,-119,cs),
(81,-89,o),
(61,-64,o),
(31,-64,cs),
(1,-64,o),
(-28,-89,o),
(-32,-119,cs),
(-36,-149,o),
(-15,-174,o),
(15,-174,cs)
);
}
);
width = 149;
}
);
unicode = 803;
},
{
glyphname = commaaccentcomb;
lastChange = "2023-08-03 09:41:05 +0000";
layers = (
{
anchors = (
{
name = _bottom;
pos = (269,-12);
}
);
layerId = master01;
shapes = (
{
closed = 1;
nodes = (
(242,-284,o),
(299,-229,o),
(310,-149,cs),
(315,-111,o),
(292,-79,o),
(255,-79,cs),
(226,-79,o),
(198,-108,o),
(194,-136,cs),
(190,-162,o),
(211,-188,o),
(238,-188,cs),
(239,-188,o),
(244,-188,o),
(247,-187,c),
(238,-245,o),
(177,-257,o),
(177,-257,c),
(177,-257,o),
(172,-284,o),
(173,-284,cs)
);
}
);
width = 600;
}
);
unicode = 806;
},
{
glyphname = cedillacomb;
lastChange = "2023-08-03 09:41:05 +0000";
layers = (
{
anchors = (
{
name = _bottom;
pos = (255,2);
}
);
layerId = master01;
shapes = (
{
closed = 1;
nodes = (
(289,-207,o),
(339,-172,o),
(346,-123,cs),
(354,-66,o),
(300,-33,o),
(251,-46,c),
(294,8,l),
(232,8,l),
(177,-63,l),
(214,-103,l),
(219,-98,o),
(235,-89,o),
(253,-89,cs),
(281,-89,o),
(293,-99,o),
(290,-119,cs),
(287,-138,o),
(269,-148,o),
(239,-148,cs),
(208,-148,o),
(189,-126,o),
(181,-113,c),
(138,-157,l),
(155,-185,o),
(192,-207,o),
(237,-207,cs)
);
}
);
width = 600;
}
);
unicode = 807;
},
{
glyphname = ogonekcomb;
lastChange = "2023-08-03 09:41:05 +0000";
layers = (
{
anchors = (
{
name = _ogonek;
pos = (321,0);
}
);
layerId = master01;
shapes = (
{
closed = 1;
nodes = (
(315,-230,o),
(347,-226,o),
(366,-215,c),
(375,-145,l),
(332,-166,o),
(279,-157,o),
(287,-101,cs),
(291,-68,o),
(323,-24,o),
(366,0,c),
(283,0,l),
(261,-12,o),
(216,-66,o),
(209,-116,cs),
(201,-173,o),
(231,-230,o),
(302,-230,cs)
);
}
);
width = 600;
}
);
unicode = 808;
},
{
glyphname = macronbelowcomb;
lastChange = "2023-08-03 09:41:05 +0000";
layers = (
{
anchors = (
{
name = _bottom;
pos = (278,-12);
}
);
layerId = master01;
shapes = (
{
closed = 1;
nodes = (
(427,-159,l),
(437,-85,l),
(98,-85,l),
(88,-159,l)
);
}
);
width = 600;
}
);
unicode = 817;
},
{
glyphname = commaaccentcomb.loclMAH;
lastChange = "2023-08-03 09:41:05 +0000";
layers = (
{
anchors = (
{
name = _bottom;
pos = (275,2);
}
);
layerId = master01;
shapes = (
{
closed = 1;
nodes = (
(289,-207,o),
(339,-172,o),
(346,-119,cs),
(354,-66,o),
(313,-41,o),
(267,-41,cs),
(248,-41,o),
(236,-43,o),
(224,-46,c),
(231,-93,l),
(237,-91,o),
(245,-89,o),
(253,-89,cs),
(281,-89,o),
(293,-99,o),
(290,-118,cs),
(287,-138,o),
(269,-148,o),
(244,-148,cs),
(208,-148,o),
(189,-126,o),
(181,-113,c),
(138,-157,l),
(155,-185,o),
(192,-207,o),
(237,-207,cs)
);
}
);
width = 600;
}
);
},
{
glyphname = macron;
lastChange = "2023-08-03 09:41:05 +0000";
layers = (
{
layerId = master01;
shapes = (
{
closed = 1;
nodes = (
(488,640,l),
(499,720,l),
(169,720,l),
(158,640,l)
);
}
);
width = 536;
}
);
unicode = 175;
},
